G04 #@! TF.FileFunction,Copper,L2,Bot,Signal*
%FSLAX46Y46*%
G04 Gerber Fmt 4.6, Leading zero omitted, Abs format (unit mm)*
G04 Created by KiCad (PCBNEW (2015-09-30 BZR 6232)-product) date Fri 09 Oct 2015 07:53:00 AM EEST*
%MOMM*%
G01*
G04 APERTURE LIST*
%ADD10C,0.100000*%
%ADD11O,2.199640X1.524000*%
%ADD12O,2.197100X1.524000*%
%ADD13R,2.999740X2.999740*%
%ADD14C,2.999740*%
%ADD15O,2.499360X1.501140*%
%ADD16R,2.199640X1.524000*%
%ADD17R,1.300000X1.300000*%
%ADD18C,1.300000*%
%ADD19R,1.524000X2.199640*%
%ADD20O,1.524000X2.199640*%
%ADD21C,0.600000*%
%ADD22C,2.000000*%
%ADD23C,1.000000*%
%ADD24C,0.300000*%
%ADD25C,0.254000*%
G04 APERTURE END LIST*
D10*
D11*
X171560000Y-132080000D03*
X171560000Y-129540000D03*
X171560000Y-127000000D03*
X171560000Y-124460000D03*
X171560000Y-121920000D03*
X171560000Y-119380000D03*
X171560000Y-116840000D03*
X171560000Y-114300000D03*
X171560000Y-111760000D03*
X171560000Y-109220000D03*
X171560000Y-106680000D03*
X171560000Y-104140000D03*
X171560000Y-101600000D03*
X171560000Y-99060000D03*
X171560000Y-96520000D03*
X186800000Y-96520000D03*
X186800000Y-99060000D03*
X186800000Y-101600000D03*
X186800000Y-104140000D03*
D12*
X186800000Y-106680000D03*
X186800000Y-109220000D03*
X186800000Y-111760000D03*
X186800000Y-114300000D03*
X186800000Y-116840000D03*
X186800000Y-119380000D03*
X186800000Y-121920000D03*
X186800000Y-124460000D03*
X186800000Y-127000000D03*
X186800000Y-129540000D03*
X186800000Y-132080000D03*
D13*
X71120000Y-119380000D03*
D14*
X71120000Y-124460000D03*
D13*
X71120000Y-109220000D03*
D14*
X71120000Y-114300000D03*
D15*
X91600000Y-111651040D03*
X91600000Y-114191040D03*
X91600000Y-109111040D03*
D13*
X154940000Y-91440000D03*
D14*
X149860000Y-91440000D03*
D13*
X144780000Y-91440000D03*
D14*
X139700000Y-91440000D03*
D13*
X134620000Y-91440000D03*
D14*
X129540000Y-91440000D03*
D13*
X124460000Y-91440000D03*
D14*
X119380000Y-91440000D03*
D13*
X114300000Y-91440000D03*
D14*
X109220000Y-91440000D03*
D13*
X104140000Y-91440000D03*
D14*
X99060000Y-91440000D03*
D13*
X93980000Y-91440000D03*
D14*
X88900000Y-91440000D03*
D13*
X83820000Y-91440000D03*
D14*
X78740000Y-91440000D03*
D13*
X78740000Y-131506596D03*
D14*
X83820000Y-131506596D03*
D13*
X88900000Y-131506596D03*
D14*
X93980000Y-131506596D03*
D13*
X99060000Y-131580000D03*
D14*
X104140000Y-131580000D03*
D13*
X109220000Y-131580000D03*
D14*
X114300000Y-131580000D03*
D13*
X119380000Y-131580000D03*
D14*
X124460000Y-131580000D03*
D13*
X129540000Y-131580000D03*
D14*
X134620000Y-131580000D03*
D13*
X139700000Y-131580000D03*
D14*
X144780000Y-131580000D03*
D13*
X149860000Y-131580000D03*
D14*
X154940000Y-131580000D03*
D16*
X133350000Y-102870000D03*
D11*
X133350000Y-105410000D03*
X133350000Y-107950000D03*
X133350000Y-110490000D03*
X133350000Y-113030000D03*
X133350000Y-115570000D03*
D16*
X138430000Y-102870000D03*
D11*
X138430000Y-105410000D03*
X138430000Y-107950000D03*
X138430000Y-110490000D03*
X138430000Y-113030000D03*
X138430000Y-115570000D03*
D13*
X71120000Y-99060000D03*
D14*
X71120000Y-104140000D03*
D17*
X83820000Y-114300000D03*
D18*
X83820000Y-110500000D03*
X99060000Y-111760000D03*
D17*
X99060000Y-109260000D03*
D19*
X203270000Y-122000000D03*
D20*
X200730000Y-122000000D03*
D13*
X201000000Y-117080000D03*
D14*
X201000000Y-112000000D03*
X201000000Y-106920000D03*
D16*
X163500000Y-96500000D03*
D11*
X163500000Y-99040000D03*
X163500000Y-101580000D03*
X163500000Y-104120000D03*
X163500000Y-106660000D03*
X163500000Y-109200000D03*
X163500000Y-111740000D03*
X163500000Y-114280000D03*
X163500000Y-116820000D03*
X163500000Y-119360000D03*
X163500000Y-121900000D03*
X163500000Y-124440000D03*
X163500000Y-126980000D03*
X163500000Y-129520000D03*
X163500000Y-132060000D03*
D16*
X193250000Y-132030000D03*
D11*
X193250000Y-129490000D03*
X193250000Y-126950000D03*
X193250000Y-124410000D03*
X193250000Y-121870000D03*
X193250000Y-119330000D03*
X193250000Y-116790000D03*
X193250000Y-114250000D03*
X193250000Y-111710000D03*
X193250000Y-109170000D03*
X193250000Y-106630000D03*
X193250000Y-104090000D03*
X193250000Y-101550000D03*
X193250000Y-99010000D03*
X193250000Y-96470000D03*
D21*
X121500000Y-119000000D03*
X174290000Y-134750000D03*
X128750000Y-114500000D03*
X113500000Y-114750000D03*
X124364806Y-114560000D03*
X122428000Y-116078000D03*
X182000000Y-132500000D03*
X183500000Y-131500000D03*
X147250000Y-128250000D03*
X135000000Y-128250000D03*
X126500000Y-130000000D03*
X114750000Y-128500000D03*
X104500000Y-128000000D03*
X93750000Y-127500000D03*
X84500000Y-127000000D03*
X98500000Y-94750000D03*
X88750000Y-95500000D03*
X111500000Y-97000000D03*
X120000000Y-97000000D03*
X125250000Y-95250000D03*
X128750000Y-95250000D03*
X138500000Y-95000000D03*
X144750000Y-95500000D03*
X146750000Y-101000000D03*
X142750000Y-105000000D03*
X146500000Y-114250000D03*
X122000000Y-122250000D03*
X126250000Y-103750000D03*
X127250000Y-102750000D03*
X184000000Y-127500000D03*
X184750000Y-126500000D03*
X128016000Y-116840000D03*
X128016000Y-116078000D03*
X128778000Y-112268000D03*
X129286000Y-113030000D03*
X128524000Y-113030000D03*
X123698000Y-107584010D03*
X124460000Y-108458000D03*
X124460000Y-109474000D03*
X147000000Y-103500000D03*
X153500000Y-107000000D03*
X152908000Y-102870000D03*
X152908000Y-105410000D03*
X137000000Y-98999994D03*
X151891994Y-100838000D03*
X152908000Y-97790000D03*
X135750000Y-116750000D03*
D22*
X121200001Y-118700001D02*
X121500000Y-119000000D01*
X117250000Y-114750000D02*
X121200001Y-118700001D01*
X113500000Y-114750000D02*
X117250000Y-114750000D01*
X174290000Y-134750000D02*
X184580000Y-124460000D01*
X184580000Y-124460000D02*
X186800000Y-124460000D01*
D23*
X128750000Y-114500000D02*
X129296002Y-114500000D01*
X129296002Y-114500000D02*
X130750000Y-113046002D01*
X130750000Y-113046002D02*
X130750000Y-105132180D01*
X130750000Y-105132180D02*
X133012180Y-102870000D01*
X133012180Y-102870000D02*
X133350000Y-102870000D01*
X113500000Y-114750000D02*
X128500000Y-114750000D01*
X128500000Y-114750000D02*
X128750000Y-114500000D01*
D24*
X122428000Y-116078000D02*
X123946000Y-114560000D01*
X123946000Y-114560000D02*
X124364806Y-114560000D01*
X83820000Y-110500000D02*
X81970129Y-112349871D01*
X81970129Y-112349871D02*
X81970129Y-124970129D01*
X81970129Y-124970129D02*
X84000000Y-127000000D01*
X84000000Y-127000000D02*
X84500000Y-127000000D01*
X161160180Y-124460000D02*
X171560000Y-124460000D01*
X135000000Y-128250000D02*
X147250000Y-128250000D01*
X128500000Y-128000000D02*
X134750000Y-128000000D01*
X134750000Y-128000000D02*
X135000000Y-128250000D01*
X126500000Y-130000000D02*
X128500000Y-128000000D01*
X114750000Y-128500000D02*
X125000000Y-128500000D01*
X125000000Y-128500000D02*
X126500000Y-130000000D01*
X114250000Y-128000000D02*
X114750000Y-128500000D01*
X104500000Y-128000000D02*
X114250000Y-128000000D01*
X93750000Y-127500000D02*
X104000000Y-127500000D01*
X104000000Y-127500000D02*
X104500000Y-128000000D01*
X84500000Y-127000000D02*
X93250000Y-127000000D01*
X93250000Y-127000000D02*
X93750000Y-127500000D01*
X98799999Y-95049999D02*
X98500000Y-94750000D01*
X111500000Y-97000000D02*
X100750000Y-97000000D01*
X97750000Y-95500000D02*
X98200001Y-95049999D01*
X88750000Y-95500000D02*
X97750000Y-95500000D01*
X98200001Y-95049999D02*
X98500000Y-94750000D01*
X100750000Y-97000000D02*
X98799999Y-95049999D01*
X120000000Y-97000000D02*
X111500000Y-97000000D01*
X125250000Y-95250000D02*
X121750000Y-95250000D01*
X121750000Y-95250000D02*
X120000000Y-97000000D01*
X128750000Y-95250000D02*
X125250000Y-95250000D01*
X138500000Y-95000000D02*
X129000000Y-95000000D01*
X129000000Y-95000000D02*
X128750000Y-95250000D01*
X144750000Y-95500000D02*
X139000000Y-95500000D01*
X139000000Y-95500000D02*
X138500000Y-95000000D01*
X142750000Y-105000000D02*
X142750000Y-97500000D01*
X142750000Y-97500000D02*
X144750000Y-95500000D01*
X142750000Y-105000000D02*
X146750000Y-101000000D01*
X146500000Y-114250000D02*
X146500000Y-108750000D01*
X146500000Y-108750000D02*
X142750000Y-105000000D01*
X155700180Y-119000000D02*
X151250000Y-119000000D01*
X151250000Y-119000000D02*
X146500000Y-114250000D01*
X171560000Y-124460000D02*
X170160180Y-124460000D01*
X161160180Y-124460000D02*
X155700180Y-119000000D01*
X128016000Y-116840000D02*
X127410000Y-116840000D01*
X127410000Y-116840000D02*
X122000000Y-122250000D01*
X127250000Y-102750000D02*
X126250000Y-103750000D01*
X184750000Y-126500000D02*
X184750000Y-126750000D01*
X184750000Y-126750000D02*
X184000000Y-127500000D01*
X128016000Y-116078000D02*
X128016000Y-116840000D01*
X129286000Y-113030000D02*
X129286000Y-112776000D01*
X129286000Y-112776000D02*
X128778000Y-112268000D01*
X123698000Y-107584010D02*
X128524000Y-112410010D01*
X128524000Y-112410010D02*
X128524000Y-113030000D01*
X124460000Y-109474000D02*
X124460000Y-108458000D01*
D23*
X153500000Y-107000000D02*
X150500000Y-107000000D01*
X150500000Y-107000000D02*
X147000000Y-103500000D01*
X152908000Y-105410000D02*
X152908000Y-102870000D01*
X136700001Y-99299993D02*
X137000000Y-98999994D01*
X135449820Y-103648000D02*
X135449820Y-100550174D01*
X133350000Y-105410000D02*
X133687820Y-105410000D01*
X135449820Y-100550174D02*
X136700001Y-99299993D01*
X133687820Y-105410000D02*
X135449820Y-103648000D01*
X152908000Y-99821994D02*
X152191993Y-100538001D01*
X152908000Y-97790000D02*
X152908000Y-99821994D01*
X152191993Y-100538001D02*
X151891994Y-100838000D01*
X135750000Y-116750000D02*
X135750000Y-105990180D01*
X135750000Y-105990180D02*
X136330180Y-105410000D01*
X136330180Y-105410000D02*
X138430000Y-105410000D01*
D25*
G36*
X205290000Y-135790000D02*
X175562240Y-135790000D01*
X179272239Y-132080000D01*
X185032488Y-132080000D01*
X185138828Y-132614609D01*
X185441660Y-133067828D01*
X185894879Y-133370660D01*
X186429488Y-133477000D01*
X187170512Y-133477000D01*
X187705121Y-133370660D01*
X188158340Y-133067828D01*
X188461172Y-132614609D01*
X188567512Y-132080000D01*
X188461172Y-131545391D01*
X188275825Y-131268000D01*
X191502740Y-131268000D01*
X191502740Y-132792000D01*
X191547018Y-133027317D01*
X191686090Y-133243441D01*
X191898290Y-133388431D01*
X192150180Y-133439440D01*
X194349820Y-133439440D01*
X194585137Y-133395162D01*
X194801261Y-133256090D01*
X194946251Y-133043890D01*
X194960743Y-132972325D01*
X199614587Y-132972325D01*
X199976916Y-133849229D01*
X200647242Y-134520726D01*
X201523513Y-134884585D01*
X202472325Y-134885413D01*
X203349229Y-134523084D01*
X204020726Y-133852758D01*
X204384585Y-132976487D01*
X204385413Y-132027675D01*
X204023084Y-131150771D01*
X203352758Y-130479274D01*
X202476487Y-130115415D01*
X201527675Y-130114587D01*
X200650771Y-130476916D01*
X199979274Y-131147242D01*
X199615415Y-132023513D01*
X199614587Y-132972325D01*
X194960743Y-132972325D01*
X194997260Y-132792000D01*
X194997260Y-131268000D01*
X194952982Y-131032683D01*
X194813910Y-130816559D01*
X194601710Y-130671569D01*
X194372133Y-130625079D01*
X194665450Y-130388026D01*
X194927080Y-129907277D01*
X194942040Y-129833070D01*
X194819540Y-129617000D01*
X193377000Y-129617000D01*
X193377000Y-129637000D01*
X193123000Y-129637000D01*
X193123000Y-129617000D01*
X191680460Y-129617000D01*
X191557960Y-129833070D01*
X191572920Y-129907277D01*
X191834550Y-130388026D01*
X192127546Y-130624819D01*
X191914863Y-130664838D01*
X191698739Y-130803910D01*
X191553749Y-131016110D01*
X191502740Y-131268000D01*
X188275825Y-131268000D01*
X188158340Y-131092172D01*
X187723107Y-130801358D01*
X187788491Y-130782059D01*
X188214180Y-130438026D01*
X188475810Y-129957277D01*
X188490770Y-129883070D01*
X188368270Y-129667000D01*
X186927000Y-129667000D01*
X186927000Y-129687000D01*
X186673000Y-129687000D01*
X186673000Y-129667000D01*
X185231730Y-129667000D01*
X185109230Y-129883070D01*
X185124190Y-129957277D01*
X185385820Y-130438026D01*
X185811509Y-130782059D01*
X185876893Y-130801358D01*
X185441660Y-131092172D01*
X185138828Y-131545391D01*
X185032488Y-132080000D01*
X179272239Y-132080000D01*
X185257239Y-126095000D01*
X185386316Y-126095000D01*
X185138828Y-126465391D01*
X185032488Y-127000000D01*
X185138828Y-127534609D01*
X185441660Y-127987828D01*
X185876893Y-128278642D01*
X185811509Y-128297941D01*
X185385820Y-128641974D01*
X185124190Y-129122723D01*
X185109230Y-129196930D01*
X185231730Y-129413000D01*
X186673000Y-129413000D01*
X186673000Y-129393000D01*
X186927000Y-129393000D01*
X186927000Y-129413000D01*
X188368270Y-129413000D01*
X188490770Y-129196930D01*
X188475810Y-129122723D01*
X188214180Y-128641974D01*
X187788491Y-128297941D01*
X187723107Y-128278642D01*
X188158340Y-127987828D01*
X188461172Y-127534609D01*
X188567512Y-127000000D01*
X188461172Y-126465391D01*
X188158340Y-126012172D01*
X187760863Y-125746586D01*
X187956120Y-125616120D01*
X187996163Y-125556192D01*
X188158340Y-125447828D01*
X188461172Y-124994609D01*
X188567512Y-124460000D01*
X188461172Y-123925391D01*
X188158340Y-123472172D01*
X187996163Y-123363808D01*
X187956120Y-123303880D01*
X187760863Y-123173414D01*
X188158340Y-122907828D01*
X188461172Y-122454609D01*
X188567512Y-121920000D01*
X188461172Y-121385391D01*
X188158340Y-120932172D01*
X187736041Y-120650000D01*
X188158340Y-120367828D01*
X188461172Y-119914609D01*
X188567512Y-119380000D01*
X188461172Y-118845391D01*
X188158340Y-118392172D01*
X187736041Y-118110000D01*
X188158340Y-117827828D01*
X188461172Y-117374609D01*
X188567512Y-116840000D01*
X188461172Y-116305391D01*
X188158340Y-115852172D01*
X187736041Y-115570000D01*
X188158340Y-115287828D01*
X188461172Y-114834609D01*
X188567512Y-114300000D01*
X188461172Y-113765391D01*
X188158340Y-113312172D01*
X187736041Y-113030000D01*
X188158340Y-112747828D01*
X188461172Y-112294609D01*
X188567512Y-111760000D01*
X188461172Y-111225391D01*
X188158340Y-110772172D01*
X187736041Y-110490000D01*
X188158340Y-110207828D01*
X188461172Y-109754609D01*
X188567512Y-109220000D01*
X188461172Y-108685391D01*
X188158340Y-108232172D01*
X187736041Y-107950000D01*
X188158340Y-107667828D01*
X188461172Y-107214609D01*
X188567512Y-106680000D01*
X188461172Y-106145391D01*
X188158340Y-105692172D01*
X187736688Y-105410433D01*
X188159635Y-105127828D01*
X188462467Y-104674609D01*
X188568807Y-104140000D01*
X188462467Y-103605391D01*
X188159635Y-103152172D01*
X187737336Y-102870000D01*
X188159635Y-102587828D01*
X188462467Y-102134609D01*
X188568807Y-101600000D01*
X188462467Y-101065391D01*
X188159635Y-100612172D01*
X187737336Y-100330000D01*
X188159635Y-100047828D01*
X188462467Y-99594609D01*
X188568807Y-99060000D01*
X188462467Y-98525391D01*
X188159635Y-98072172D01*
X187737336Y-97790000D01*
X188159635Y-97507828D01*
X188462467Y-97054609D01*
X188568807Y-96520000D01*
X188558862Y-96470000D01*
X191481193Y-96470000D01*
X191587533Y-97004609D01*
X191890365Y-97457828D01*
X192312664Y-97740000D01*
X191890365Y-98022172D01*
X191587533Y-98475391D01*
X191481193Y-99010000D01*
X191587533Y-99544609D01*
X191890365Y-99997828D01*
X192312664Y-100280000D01*
X191890365Y-100562172D01*
X191587533Y-101015391D01*
X191481193Y-101550000D01*
X191587533Y-102084609D01*
X191890365Y-102537828D01*
X192312664Y-102820000D01*
X191890365Y-103102172D01*
X191587533Y-103555391D01*
X191481193Y-104090000D01*
X191587533Y-104624609D01*
X191890365Y-105077828D01*
X192312664Y-105360000D01*
X191890365Y-105642172D01*
X191587533Y-106095391D01*
X191481193Y-106630000D01*
X191587533Y-107164609D01*
X191890365Y-107617828D01*
X192312664Y-107900000D01*
X191890365Y-108182172D01*
X191587533Y-108635391D01*
X191481193Y-109170000D01*
X191587533Y-109704609D01*
X191890365Y-110157828D01*
X192312664Y-110440000D01*
X191890365Y-110722172D01*
X191587533Y-111175391D01*
X191481193Y-111710000D01*
X191587533Y-112244609D01*
X191890365Y-112697828D01*
X192312664Y-112980000D01*
X191890365Y-113262172D01*
X191587533Y-113715391D01*
X191481193Y-114250000D01*
X191587533Y-114784609D01*
X191890365Y-115237828D01*
X192312664Y-115520000D01*
X191890365Y-115802172D01*
X191587533Y-116255391D01*
X191481193Y-116790000D01*
X191587533Y-117324609D01*
X191890365Y-117777828D01*
X192312664Y-118060000D01*
X191890365Y-118342172D01*
X191587533Y-118795391D01*
X191481193Y-119330000D01*
X191587533Y-119864609D01*
X191890365Y-120317828D01*
X192312664Y-120600000D01*
X191890365Y-120882172D01*
X191587533Y-121335391D01*
X191481193Y-121870000D01*
X191587533Y-122404609D01*
X191890365Y-122857828D01*
X192312664Y-123140000D01*
X191890365Y-123422172D01*
X191587533Y-123875391D01*
X191481193Y-124410000D01*
X191587533Y-124944609D01*
X191890365Y-125397828D01*
X192312664Y-125680000D01*
X191890365Y-125962172D01*
X191587533Y-126415391D01*
X191481193Y-126950000D01*
X191587533Y-127484609D01*
X191890365Y-127937828D01*
X192325606Y-128228647D01*
X192260239Y-128247941D01*
X191834550Y-128591974D01*
X191572920Y-129072723D01*
X191557960Y-129146930D01*
X191680460Y-129363000D01*
X193123000Y-129363000D01*
X193123000Y-129343000D01*
X193377000Y-129343000D01*
X193377000Y-129363000D01*
X194819540Y-129363000D01*
X194942040Y-129146930D01*
X194927080Y-129072723D01*
X194665450Y-128591974D01*
X194239761Y-128247941D01*
X194174394Y-128228647D01*
X194609635Y-127937828D01*
X194912467Y-127484609D01*
X195018807Y-126950000D01*
X194912467Y-126415391D01*
X194609635Y-125962172D01*
X194187336Y-125680000D01*
X194609635Y-125397828D01*
X194912467Y-124944609D01*
X195018807Y-124410000D01*
X194912467Y-123875391D01*
X194609635Y-123422172D01*
X194187336Y-123140000D01*
X194609635Y-122857828D01*
X194912467Y-122404609D01*
X195018807Y-121870000D01*
X194970709Y-121628193D01*
X199333000Y-121628193D01*
X199333000Y-122371807D01*
X199439340Y-122906416D01*
X199742172Y-123359635D01*
X200195391Y-123662467D01*
X200730000Y-123768807D01*
X201264609Y-123662467D01*
X201717828Y-123359635D01*
X201867343Y-123135870D01*
X201904838Y-123335137D01*
X202043910Y-123551261D01*
X202256110Y-123696251D01*
X202508000Y-123747260D01*
X204032000Y-123747260D01*
X204267317Y-123702982D01*
X204483441Y-123563910D01*
X204628431Y-123351710D01*
X204679440Y-123099820D01*
X204679440Y-120900180D01*
X204635162Y-120664863D01*
X204496090Y-120448739D01*
X204283890Y-120303749D01*
X204032000Y-120252740D01*
X202508000Y-120252740D01*
X202272683Y-120297018D01*
X202056559Y-120436090D01*
X201911569Y-120648290D01*
X201867740Y-120864724D01*
X201717828Y-120640365D01*
X201264609Y-120337533D01*
X200730000Y-120231193D01*
X200195391Y-120337533D01*
X199742172Y-120640365D01*
X199439340Y-121093584D01*
X199333000Y-121628193D01*
X194970709Y-121628193D01*
X194912467Y-121335391D01*
X194609635Y-120882172D01*
X194187336Y-120600000D01*
X194609635Y-120317828D01*
X194912467Y-119864609D01*
X195018807Y-119330000D01*
X194912467Y-118795391D01*
X194609635Y-118342172D01*
X194187336Y-118060000D01*
X194609635Y-117777828D01*
X194912467Y-117324609D01*
X195018807Y-116790000D01*
X194912467Y-116255391D01*
X194609635Y-115802172D01*
X194277327Y-115580130D01*
X198852690Y-115580130D01*
X198852690Y-118579870D01*
X198896968Y-118815187D01*
X199036040Y-119031311D01*
X199248240Y-119176301D01*
X199500130Y-119227310D01*
X202499870Y-119227310D01*
X202735187Y-119183032D01*
X202951311Y-119043960D01*
X203096301Y-118831760D01*
X203147310Y-118579870D01*
X203147310Y-115580130D01*
X203103032Y-115344813D01*
X202963960Y-115128689D01*
X202751760Y-114983699D01*
X202499870Y-114932690D01*
X199500130Y-114932690D01*
X199264813Y-114976968D01*
X199048689Y-115116040D01*
X198903699Y-115328240D01*
X198852690Y-115580130D01*
X194277327Y-115580130D01*
X194187336Y-115520000D01*
X194609635Y-115237828D01*
X194912467Y-114784609D01*
X195018807Y-114250000D01*
X194912467Y-113715391D01*
X194609635Y-113262172D01*
X194187336Y-112980000D01*
X194609635Y-112697828D01*
X194793410Y-112422789D01*
X198864760Y-112422789D01*
X199189090Y-113207727D01*
X199789114Y-113808800D01*
X200573485Y-114134499D01*
X201422789Y-114135240D01*
X202207727Y-113810910D01*
X202808800Y-113210886D01*
X203134499Y-112426515D01*
X203135240Y-111577211D01*
X202810910Y-110792273D01*
X202210886Y-110191200D01*
X201426515Y-109865501D01*
X200577211Y-109864760D01*
X199792273Y-110189090D01*
X199191200Y-110789114D01*
X198865501Y-111573485D01*
X198864760Y-112422789D01*
X194793410Y-112422789D01*
X194912467Y-112244609D01*
X195018807Y-111710000D01*
X194912467Y-111175391D01*
X194609635Y-110722172D01*
X194187336Y-110440000D01*
X194609635Y-110157828D01*
X194912467Y-109704609D01*
X195018807Y-109170000D01*
X194912467Y-108635391D01*
X194777820Y-108433877D01*
X199665728Y-108433877D01*
X199825495Y-108752632D01*
X200616217Y-109062595D01*
X201465366Y-109046367D01*
X202174505Y-108752632D01*
X202334272Y-108433877D01*
X201000000Y-107099605D01*
X199665728Y-108433877D01*
X194777820Y-108433877D01*
X194609635Y-108182172D01*
X194187336Y-107900000D01*
X194609635Y-107617828D01*
X194912467Y-107164609D01*
X195018807Y-106630000D01*
X195000153Y-106536217D01*
X198857405Y-106536217D01*
X198873633Y-107385366D01*
X199167368Y-108094505D01*
X199486123Y-108254272D01*
X200820395Y-106920000D01*
X201179605Y-106920000D01*
X202513877Y-108254272D01*
X202832632Y-108094505D01*
X203142595Y-107303783D01*
X203126367Y-106454634D01*
X202832632Y-105745495D01*
X202513877Y-105585728D01*
X201179605Y-106920000D01*
X200820395Y-106920000D01*
X199486123Y-105585728D01*
X199167368Y-105745495D01*
X198857405Y-106536217D01*
X195000153Y-106536217D01*
X194912467Y-106095391D01*
X194609635Y-105642172D01*
X194256364Y-105406123D01*
X199665728Y-105406123D01*
X201000000Y-106740395D01*
X202334272Y-105406123D01*
X202174505Y-105087368D01*
X201383783Y-104777405D01*
X200534634Y-104793633D01*
X199825495Y-105087368D01*
X199665728Y-105406123D01*
X194256364Y-105406123D01*
X194187336Y-105360000D01*
X194609635Y-105077828D01*
X194912467Y-104624609D01*
X195018807Y-104090000D01*
X194912467Y-103555391D01*
X194609635Y-103102172D01*
X194187336Y-102820000D01*
X194609635Y-102537828D01*
X194912467Y-102084609D01*
X195018807Y-101550000D01*
X194912467Y-101015391D01*
X194609635Y-100562172D01*
X194187336Y-100280000D01*
X194609635Y-99997828D01*
X194912467Y-99544609D01*
X195018807Y-99010000D01*
X194912467Y-98475391D01*
X194609635Y-98022172D01*
X194187336Y-97740000D01*
X194609635Y-97457828D01*
X194912467Y-97004609D01*
X195018807Y-96470000D01*
X194912467Y-95935391D01*
X194609635Y-95482172D01*
X194156416Y-95179340D01*
X193621807Y-95073000D01*
X192878193Y-95073000D01*
X192343584Y-95179340D01*
X191890365Y-95482172D01*
X191587533Y-95935391D01*
X191481193Y-96470000D01*
X188558862Y-96470000D01*
X188462467Y-95985391D01*
X188159635Y-95532172D01*
X187706416Y-95229340D01*
X187171807Y-95123000D01*
X186428193Y-95123000D01*
X185893584Y-95229340D01*
X185440365Y-95532172D01*
X185137533Y-95985391D01*
X185031193Y-96520000D01*
X185137533Y-97054609D01*
X185440365Y-97507828D01*
X185862664Y-97790000D01*
X185440365Y-98072172D01*
X185137533Y-98525391D01*
X185031193Y-99060000D01*
X185137533Y-99594609D01*
X185440365Y-100047828D01*
X185862664Y-100330000D01*
X185440365Y-100612172D01*
X185137533Y-101065391D01*
X185031193Y-101600000D01*
X185137533Y-102134609D01*
X185440365Y-102587828D01*
X185862664Y-102870000D01*
X185440365Y-103152172D01*
X185137533Y-103605391D01*
X185031193Y-104140000D01*
X185137533Y-104674609D01*
X185440365Y-105127828D01*
X185863312Y-105410433D01*
X185441660Y-105692172D01*
X185138828Y-106145391D01*
X185032488Y-106680000D01*
X185138828Y-107214609D01*
X185441660Y-107667828D01*
X185863959Y-107950000D01*
X185441660Y-108232172D01*
X185138828Y-108685391D01*
X185032488Y-109220000D01*
X185138828Y-109754609D01*
X185441660Y-110207828D01*
X185863959Y-110490000D01*
X185441660Y-110772172D01*
X185138828Y-111225391D01*
X185032488Y-111760000D01*
X185138828Y-112294609D01*
X185441660Y-112747828D01*
X185863959Y-113030000D01*
X185441660Y-113312172D01*
X185138828Y-113765391D01*
X185032488Y-114300000D01*
X185138828Y-114834609D01*
X185441660Y-115287828D01*
X185863959Y-115570000D01*
X185441660Y-115852172D01*
X185138828Y-116305391D01*
X185032488Y-116840000D01*
X185138828Y-117374609D01*
X185441660Y-117827828D01*
X185863959Y-118110000D01*
X185441660Y-118392172D01*
X185138828Y-118845391D01*
X185032488Y-119380000D01*
X185138828Y-119914609D01*
X185441660Y-120367828D01*
X185863959Y-120650000D01*
X185441660Y-120932172D01*
X185138828Y-121385391D01*
X185032488Y-121920000D01*
X185138828Y-122454609D01*
X185386316Y-122825000D01*
X184580005Y-122825000D01*
X184580000Y-122824999D01*
X183954313Y-122949457D01*
X183423880Y-123303880D01*
X183423878Y-123303883D01*
X173133880Y-133593880D01*
X172779457Y-134124312D01*
X172654999Y-134750000D01*
X172779457Y-135375688D01*
X173056291Y-135790000D01*
X66710000Y-135790000D01*
X66710000Y-132972325D01*
X67614587Y-132972325D01*
X67976916Y-133849229D01*
X68647242Y-134520726D01*
X69523513Y-134884585D01*
X70472325Y-134885413D01*
X71349229Y-134523084D01*
X72020726Y-133852758D01*
X72384585Y-132976487D01*
X72385413Y-132027675D01*
X72023084Y-131150771D01*
X71352758Y-130479274D01*
X70476487Y-130115415D01*
X69527675Y-130114587D01*
X68650771Y-130476916D01*
X67979274Y-131147242D01*
X67615415Y-132023513D01*
X67614587Y-132972325D01*
X66710000Y-132972325D01*
X66710000Y-130006726D01*
X76592690Y-130006726D01*
X76592690Y-133006466D01*
X76636968Y-133241783D01*
X76776040Y-133457907D01*
X76988240Y-133602897D01*
X77240130Y-133653906D01*
X80239870Y-133653906D01*
X80475187Y-133609628D01*
X80691311Y-133470556D01*
X80836301Y-133258356D01*
X80887310Y-133006466D01*
X80887310Y-131929385D01*
X81684760Y-131929385D01*
X82009090Y-132714323D01*
X82609114Y-133315396D01*
X83393485Y-133641095D01*
X84242789Y-133641836D01*
X85027727Y-133317506D01*
X85628800Y-132717482D01*
X85954499Y-131933111D01*
X85955240Y-131083807D01*
X85630910Y-130298869D01*
X85339277Y-130006726D01*
X86752690Y-130006726D01*
X86752690Y-133006466D01*
X86796968Y-133241783D01*
X86936040Y-133457907D01*
X87148240Y-133602897D01*
X87400130Y-133653906D01*
X90399870Y-133653906D01*
X90635187Y-133609628D01*
X90851311Y-133470556D01*
X90996301Y-133258356D01*
X91047310Y-133006466D01*
X91047310Y-131929385D01*
X91844760Y-131929385D01*
X92169090Y-132714323D01*
X92769114Y-133315396D01*
X93553485Y-133641095D01*
X94402789Y-133641836D01*
X95187727Y-133317506D01*
X95788800Y-132717482D01*
X96114499Y-131933111D01*
X96115240Y-131083807D01*
X95790910Y-130298869D01*
X95572553Y-130080130D01*
X96912690Y-130080130D01*
X96912690Y-133079870D01*
X96956968Y-133315187D01*
X97096040Y-133531311D01*
X97308240Y-133676301D01*
X97560130Y-133727310D01*
X100559870Y-133727310D01*
X100795187Y-133683032D01*
X101011311Y-133543960D01*
X101156301Y-133331760D01*
X101207310Y-133079870D01*
X101207310Y-132002789D01*
X102004760Y-132002789D01*
X102329090Y-132787727D01*
X102929114Y-133388800D01*
X103713485Y-133714499D01*
X104562789Y-133715240D01*
X105347727Y-133390910D01*
X105948800Y-132790886D01*
X106274499Y-132006515D01*
X106275240Y-131157211D01*
X105950910Y-130372273D01*
X105659277Y-130080130D01*
X107072690Y-130080130D01*
X107072690Y-133079870D01*
X107116968Y-133315187D01*
X107256040Y-133531311D01*
X107468240Y-133676301D01*
X107720130Y-133727310D01*
X110719870Y-133727310D01*
X110955187Y-133683032D01*
X111171311Y-133543960D01*
X111316301Y-133331760D01*
X111367310Y-133079870D01*
X111367310Y-132002789D01*
X112164760Y-132002789D01*
X112489090Y-132787727D01*
X113089114Y-133388800D01*
X113873485Y-133714499D01*
X114722789Y-133715240D01*
X115507727Y-133390910D01*
X116108800Y-132790886D01*
X116434499Y-132006515D01*
X116435240Y-131157211D01*
X116110910Y-130372273D01*
X115819277Y-130080130D01*
X117232690Y-130080130D01*
X117232690Y-133079870D01*
X117276968Y-133315187D01*
X117416040Y-133531311D01*
X117628240Y-133676301D01*
X117880130Y-133727310D01*
X120879870Y-133727310D01*
X121115187Y-133683032D01*
X121331311Y-133543960D01*
X121476301Y-133331760D01*
X121527310Y-133079870D01*
X121527310Y-132002789D01*
X122324760Y-132002789D01*
X122649090Y-132787727D01*
X123249114Y-133388800D01*
X124033485Y-133714499D01*
X124882789Y-133715240D01*
X125667727Y-133390910D01*
X126268800Y-132790886D01*
X126594499Y-132006515D01*
X126595240Y-131157211D01*
X126270910Y-130372273D01*
X125979277Y-130080130D01*
X127392690Y-130080130D01*
X127392690Y-133079870D01*
X127436968Y-133315187D01*
X127576040Y-133531311D01*
X127788240Y-133676301D01*
X128040130Y-133727310D01*
X131039870Y-133727310D01*
X131275187Y-133683032D01*
X131491311Y-133543960D01*
X131636301Y-133331760D01*
X131687310Y-133079870D01*
X131687310Y-132002789D01*
X132484760Y-132002789D01*
X132809090Y-132787727D01*
X133409114Y-133388800D01*
X134193485Y-133714499D01*
X135042789Y-133715240D01*
X135827727Y-133390910D01*
X136428800Y-132790886D01*
X136754499Y-132006515D01*
X136755240Y-131157211D01*
X136430910Y-130372273D01*
X136139277Y-130080130D01*
X137552690Y-130080130D01*
X137552690Y-133079870D01*
X137596968Y-133315187D01*
X137736040Y-133531311D01*
X137948240Y-133676301D01*
X138200130Y-133727310D01*
X141199870Y-133727310D01*
X141435187Y-133683032D01*
X141651311Y-133543960D01*
X141796301Y-133331760D01*
X141847310Y-133079870D01*
X141847310Y-132002789D01*
X142644760Y-132002789D01*
X142969090Y-132787727D01*
X143569114Y-133388800D01*
X144353485Y-133714499D01*
X145202789Y-133715240D01*
X145987727Y-133390910D01*
X146588800Y-132790886D01*
X146914499Y-132006515D01*
X146915240Y-131157211D01*
X146590910Y-130372273D01*
X146299277Y-130080130D01*
X147712690Y-130080130D01*
X147712690Y-133079870D01*
X147756968Y-133315187D01*
X147896040Y-133531311D01*
X148108240Y-133676301D01*
X148360130Y-133727310D01*
X151359870Y-133727310D01*
X151595187Y-133683032D01*
X151811311Y-133543960D01*
X151956301Y-133331760D01*
X152007310Y-133079870D01*
X152007310Y-132002789D01*
X152804760Y-132002789D01*
X153129090Y-132787727D01*
X153729114Y-133388800D01*
X154513485Y-133714499D01*
X155362789Y-133715240D01*
X156147727Y-133390910D01*
X156748800Y-132790886D01*
X157074499Y-132006515D01*
X157075240Y-131157211D01*
X156750910Y-130372273D01*
X156150886Y-129771200D01*
X155366515Y-129445501D01*
X154517211Y-129444760D01*
X153732273Y-129769090D01*
X153131200Y-130369114D01*
X152805501Y-131153485D01*
X152804760Y-132002789D01*
X152007310Y-132002789D01*
X152007310Y-130080130D01*
X151963032Y-129844813D01*
X151823960Y-129628689D01*
X151611760Y-129483699D01*
X151359870Y-129432690D01*
X148360130Y-129432690D01*
X148124813Y-129476968D01*
X147908689Y-129616040D01*
X147763699Y-129828240D01*
X147712690Y-130080130D01*
X146299277Y-130080130D01*
X145990886Y-129771200D01*
X145206515Y-129445501D01*
X144357211Y-129444760D01*
X143572273Y-129769090D01*
X142971200Y-130369114D01*
X142645501Y-131153485D01*
X142644760Y-132002789D01*
X141847310Y-132002789D01*
X141847310Y-130080130D01*
X141803032Y-129844813D01*
X141663960Y-129628689D01*
X141451760Y-129483699D01*
X141199870Y-129432690D01*
X138200130Y-129432690D01*
X137964813Y-129476968D01*
X137748689Y-129616040D01*
X137603699Y-129828240D01*
X137552690Y-130080130D01*
X136139277Y-130080130D01*
X135830886Y-129771200D01*
X135046515Y-129445501D01*
X134197211Y-129444760D01*
X133412273Y-129769090D01*
X132811200Y-130369114D01*
X132485501Y-131153485D01*
X132484760Y-132002789D01*
X131687310Y-132002789D01*
X131687310Y-130080130D01*
X131643032Y-129844813D01*
X131503960Y-129628689D01*
X131291760Y-129483699D01*
X131039870Y-129432690D01*
X128040130Y-129432690D01*
X127804813Y-129476968D01*
X127588689Y-129616040D01*
X127443699Y-129828240D01*
X127392690Y-130080130D01*
X125979277Y-130080130D01*
X125670886Y-129771200D01*
X124886515Y-129445501D01*
X124037211Y-129444760D01*
X123252273Y-129769090D01*
X122651200Y-130369114D01*
X122325501Y-131153485D01*
X122324760Y-132002789D01*
X121527310Y-132002789D01*
X121527310Y-130080130D01*
X121483032Y-129844813D01*
X121343960Y-129628689D01*
X121131760Y-129483699D01*
X120879870Y-129432690D01*
X117880130Y-129432690D01*
X117644813Y-129476968D01*
X117428689Y-129616040D01*
X117283699Y-129828240D01*
X117232690Y-130080130D01*
X115819277Y-130080130D01*
X115510886Y-129771200D01*
X114726515Y-129445501D01*
X113877211Y-129444760D01*
X113092273Y-129769090D01*
X112491200Y-130369114D01*
X112165501Y-131153485D01*
X112164760Y-132002789D01*
X111367310Y-132002789D01*
X111367310Y-130080130D01*
X111323032Y-129844813D01*
X111183960Y-129628689D01*
X110971760Y-129483699D01*
X110719870Y-129432690D01*
X107720130Y-129432690D01*
X107484813Y-129476968D01*
X107268689Y-129616040D01*
X107123699Y-129828240D01*
X107072690Y-130080130D01*
X105659277Y-130080130D01*
X105350886Y-129771200D01*
X104566515Y-129445501D01*
X103717211Y-129444760D01*
X102932273Y-129769090D01*
X102331200Y-130369114D01*
X102005501Y-131153485D01*
X102004760Y-132002789D01*
X101207310Y-132002789D01*
X101207310Y-130080130D01*
X101163032Y-129844813D01*
X101023960Y-129628689D01*
X100811760Y-129483699D01*
X100559870Y-129432690D01*
X97560130Y-129432690D01*
X97324813Y-129476968D01*
X97108689Y-129616040D01*
X96963699Y-129828240D01*
X96912690Y-130080130D01*
X95572553Y-130080130D01*
X95190886Y-129697796D01*
X94406515Y-129372097D01*
X93557211Y-129371356D01*
X92772273Y-129695686D01*
X92171200Y-130295710D01*
X91845501Y-131080081D01*
X91844760Y-131929385D01*
X91047310Y-131929385D01*
X91047310Y-130006726D01*
X91003032Y-129771409D01*
X90863960Y-129555285D01*
X90651760Y-129410295D01*
X90399870Y-129359286D01*
X87400130Y-129359286D01*
X87164813Y-129403564D01*
X86948689Y-129542636D01*
X86803699Y-129754836D01*
X86752690Y-130006726D01*
X85339277Y-130006726D01*
X85030886Y-129697796D01*
X84246515Y-129372097D01*
X83397211Y-129371356D01*
X82612273Y-129695686D01*
X82011200Y-130295710D01*
X81685501Y-131080081D01*
X81684760Y-131929385D01*
X80887310Y-131929385D01*
X80887310Y-130006726D01*
X80843032Y-129771409D01*
X80703960Y-129555285D01*
X80491760Y-129410295D01*
X80239870Y-129359286D01*
X77240130Y-129359286D01*
X77004813Y-129403564D01*
X76788689Y-129542636D01*
X76643699Y-129754836D01*
X76592690Y-130006726D01*
X66710000Y-130006726D01*
X66710000Y-126980000D01*
X161731193Y-126980000D01*
X161837533Y-127514609D01*
X162140365Y-127967828D01*
X162562664Y-128250000D01*
X162140365Y-128532172D01*
X161837533Y-128985391D01*
X161731193Y-129520000D01*
X161837533Y-130054609D01*
X162140365Y-130507828D01*
X162562664Y-130790000D01*
X162140365Y-131072172D01*
X161837533Y-131525391D01*
X161731193Y-132060000D01*
X161837533Y-132594609D01*
X162140365Y-133047828D01*
X162593584Y-133350660D01*
X163128193Y-133457000D01*
X163871807Y-133457000D01*
X164406416Y-133350660D01*
X164859635Y-133047828D01*
X165162467Y-132594609D01*
X165268807Y-132060000D01*
X165162467Y-131525391D01*
X164859635Y-131072172D01*
X164437336Y-130790000D01*
X164859635Y-130507828D01*
X165162467Y-130054609D01*
X165268807Y-129520000D01*
X165162467Y-128985391D01*
X164859635Y-128532172D01*
X164437336Y-128250000D01*
X164859635Y-127967828D01*
X165162467Y-127514609D01*
X165264828Y-127000000D01*
X169791193Y-127000000D01*
X169897533Y-127534609D01*
X170200365Y-127987828D01*
X170622664Y-128270000D01*
X170200365Y-128552172D01*
X169897533Y-129005391D01*
X169791193Y-129540000D01*
X169897533Y-130074609D01*
X170200365Y-130527828D01*
X170622664Y-130810000D01*
X170200365Y-131092172D01*
X169897533Y-131545391D01*
X169791193Y-132080000D01*
X169897533Y-132614609D01*
X170200365Y-133067828D01*
X170653584Y-133370660D01*
X171188193Y-133477000D01*
X171931807Y-133477000D01*
X172466416Y-133370660D01*
X172919635Y-133067828D01*
X173222467Y-132614609D01*
X173328807Y-132080000D01*
X173222467Y-131545391D01*
X172919635Y-131092172D01*
X172497336Y-130810000D01*
X172919635Y-130527828D01*
X173222467Y-130074609D01*
X173328807Y-129540000D01*
X173222467Y-129005391D01*
X172919635Y-128552172D01*
X172497336Y-128270000D01*
X172919635Y-127987828D01*
X173222467Y-127534609D01*
X173328807Y-127000000D01*
X173222467Y-126465391D01*
X172919635Y-126012172D01*
X172484394Y-125721353D01*
X172549761Y-125702059D01*
X172975450Y-125358026D01*
X173237080Y-124877277D01*
X173252040Y-124803070D01*
X173129540Y-124587000D01*
X171687000Y-124587000D01*
X171687000Y-124607000D01*
X171433000Y-124607000D01*
X171433000Y-124587000D01*
X169990460Y-124587000D01*
X169867960Y-124803070D01*
X169882920Y-124877277D01*
X170144550Y-125358026D01*
X170570239Y-125702059D01*
X170635606Y-125721353D01*
X170200365Y-126012172D01*
X169897533Y-126465391D01*
X169791193Y-127000000D01*
X165264828Y-127000000D01*
X165268807Y-126980000D01*
X165162467Y-126445391D01*
X164859635Y-125992172D01*
X164424394Y-125701353D01*
X164489761Y-125682059D01*
X164915450Y-125338026D01*
X165177080Y-124857277D01*
X165192040Y-124783070D01*
X165069540Y-124567000D01*
X163627000Y-124567000D01*
X163627000Y-124587000D01*
X163373000Y-124587000D01*
X163373000Y-124567000D01*
X161930460Y-124567000D01*
X161807960Y-124783070D01*
X161822920Y-124857277D01*
X162084550Y-125338026D01*
X162510239Y-125682059D01*
X162575606Y-125701353D01*
X162140365Y-125992172D01*
X161837533Y-126445391D01*
X161731193Y-126980000D01*
X66710000Y-126980000D01*
X66710000Y-124882789D01*
X68984760Y-124882789D01*
X69309090Y-125667727D01*
X69909114Y-126268800D01*
X70693485Y-126594499D01*
X71542789Y-126595240D01*
X72327727Y-126270910D01*
X72928800Y-125670886D01*
X73254499Y-124886515D01*
X73255240Y-124037211D01*
X72930910Y-123252273D01*
X72330886Y-122651200D01*
X71546515Y-122325501D01*
X70697211Y-122324760D01*
X69912273Y-122649090D01*
X69311200Y-123249114D01*
X68985501Y-124033485D01*
X68984760Y-124882789D01*
X66710000Y-124882789D01*
X66710000Y-119665750D01*
X68985130Y-119665750D01*
X68985130Y-121006179D01*
X69081803Y-121239568D01*
X69260431Y-121418197D01*
X69493820Y-121514870D01*
X70834250Y-121514870D01*
X70993000Y-121356120D01*
X70993000Y-119507000D01*
X71247000Y-119507000D01*
X71247000Y-121356120D01*
X71405750Y-121514870D01*
X72746180Y-121514870D01*
X72979569Y-121418197D01*
X73158197Y-121239568D01*
X73254870Y-121006179D01*
X73254870Y-119665750D01*
X73096120Y-119507000D01*
X71247000Y-119507000D01*
X70993000Y-119507000D01*
X69143880Y-119507000D01*
X68985130Y-119665750D01*
X66710000Y-119665750D01*
X66710000Y-117753821D01*
X68985130Y-117753821D01*
X68985130Y-119094250D01*
X69143880Y-119253000D01*
X70993000Y-119253000D01*
X70993000Y-117403880D01*
X71247000Y-117403880D01*
X71247000Y-119253000D01*
X73096120Y-119253000D01*
X73254870Y-119094250D01*
X73254870Y-117753821D01*
X73158197Y-117520432D01*
X72979569Y-117341803D01*
X72746180Y-117245130D01*
X71405750Y-117245130D01*
X71247000Y-117403880D01*
X70993000Y-117403880D01*
X70834250Y-117245130D01*
X69493820Y-117245130D01*
X69260431Y-117341803D01*
X69081803Y-117520432D01*
X68985130Y-117753821D01*
X66710000Y-117753821D01*
X66710000Y-115813877D01*
X69785728Y-115813877D01*
X69945495Y-116132632D01*
X70736217Y-116442595D01*
X71585366Y-116426367D01*
X72294505Y-116132632D01*
X72454272Y-115813877D01*
X71120000Y-114479605D01*
X69785728Y-115813877D01*
X66710000Y-115813877D01*
X66710000Y-113916217D01*
X68977405Y-113916217D01*
X68993633Y-114765366D01*
X69287368Y-115474505D01*
X69606123Y-115634272D01*
X70940395Y-114300000D01*
X71299605Y-114300000D01*
X72633877Y-115634272D01*
X72952632Y-115474505D01*
X73262595Y-114683783D01*
X73246367Y-113834634D01*
X73169890Y-113650000D01*
X82522560Y-113650000D01*
X82522560Y-114950000D01*
X82566838Y-115185317D01*
X82705910Y-115401441D01*
X82918110Y-115546431D01*
X83170000Y-115597440D01*
X84470000Y-115597440D01*
X84705317Y-115553162D01*
X84921441Y-115414090D01*
X85066431Y-115201890D01*
X85117440Y-114950000D01*
X85117440Y-114191040D01*
X89678397Y-114191040D01*
X89783867Y-114721275D01*
X90084221Y-115170786D01*
X90533732Y-115471140D01*
X91063967Y-115576610D01*
X92136033Y-115576610D01*
X92666268Y-115471140D01*
X93115779Y-115170786D01*
X93396939Y-114750000D01*
X111865000Y-114750000D01*
X111989457Y-115375687D01*
X112343880Y-115906120D01*
X112874313Y-116260543D01*
X113500000Y-116385000D01*
X116572760Y-116385000D01*
X120043881Y-119856121D01*
X120343881Y-120156120D01*
X120874313Y-120510543D01*
X121500000Y-120635001D01*
X122125688Y-120510543D01*
X122656120Y-120156120D01*
X123010543Y-119625688D01*
X123135001Y-119000000D01*
X123010543Y-118374313D01*
X122656120Y-117843881D01*
X122356121Y-117543881D01*
X120697240Y-115885000D01*
X121495737Y-115885000D01*
X121493162Y-115891201D01*
X121492838Y-116263167D01*
X121634883Y-116606943D01*
X121897673Y-116870192D01*
X122241201Y-117012838D01*
X122613167Y-117013162D01*
X122956943Y-116871117D01*
X123220192Y-116608327D01*
X123362838Y-116264799D01*
X123362848Y-116253310D01*
X123731158Y-115885000D01*
X128500000Y-115885000D01*
X128934346Y-115798603D01*
X129179195Y-115635000D01*
X129296002Y-115635000D01*
X129730348Y-115548603D01*
X130098568Y-115302566D01*
X131552566Y-113848568D01*
X131714917Y-113605593D01*
X131990365Y-114017828D01*
X132412664Y-114300000D01*
X131990365Y-114582172D01*
X131687533Y-115035391D01*
X131581193Y-115570000D01*
X131687533Y-116104609D01*
X131990365Y-116557828D01*
X132443584Y-116860660D01*
X132978193Y-116967000D01*
X133721807Y-116967000D01*
X134256416Y-116860660D01*
X134615000Y-116621061D01*
X134615000Y-116750000D01*
X134701397Y-117184346D01*
X134947434Y-117552566D01*
X135315654Y-117798603D01*
X135750000Y-117885000D01*
X136184346Y-117798603D01*
X136552566Y-117552566D01*
X136798603Y-117184346D01*
X136885000Y-116750000D01*
X136885000Y-116280410D01*
X137070365Y-116557828D01*
X137523584Y-116860660D01*
X138058193Y-116967000D01*
X138801807Y-116967000D01*
X139336416Y-116860660D01*
X139789635Y-116557828D01*
X140092467Y-116104609D01*
X140198807Y-115570000D01*
X140092467Y-115035391D01*
X139789635Y-114582172D01*
X139367336Y-114300000D01*
X139789635Y-114017828D01*
X140092467Y-113564609D01*
X140198807Y-113030000D01*
X140092467Y-112495391D01*
X139789635Y-112042172D01*
X139367336Y-111760000D01*
X139789635Y-111477828D01*
X140092467Y-111024609D01*
X140198807Y-110490000D01*
X140092467Y-109955391D01*
X139789635Y-109502172D01*
X139367336Y-109220000D01*
X139789635Y-108937828D01*
X140092467Y-108484609D01*
X140198807Y-107950000D01*
X140092467Y-107415391D01*
X139789635Y-106962172D01*
X139367336Y-106680000D01*
X139789635Y-106397828D01*
X140092467Y-105944609D01*
X140198807Y-105410000D01*
X140092467Y-104875391D01*
X139789635Y-104422172D01*
X139565870Y-104272657D01*
X139765137Y-104235162D01*
X139981261Y-104096090D01*
X140126251Y-103883890D01*
X140177260Y-103632000D01*
X140177260Y-103500000D01*
X145865000Y-103500000D01*
X145951397Y-103934345D01*
X146197434Y-104302566D01*
X149697433Y-107802566D01*
X149949004Y-107970660D01*
X150065654Y-108048603D01*
X150500000Y-108135000D01*
X153500000Y-108135000D01*
X153934346Y-108048603D01*
X154302566Y-107802566D01*
X154548603Y-107434346D01*
X154635000Y-107000000D01*
X154548603Y-106565654D01*
X154302566Y-106197434D01*
X153934346Y-105951397D01*
X153890854Y-105942746D01*
X153956603Y-105844346D01*
X154043000Y-105410000D01*
X154043000Y-102870000D01*
X153956603Y-102435654D01*
X153710566Y-102067434D01*
X153342346Y-101821397D01*
X152908000Y-101735000D01*
X152473654Y-101821397D01*
X152105434Y-102067434D01*
X151859397Y-102435654D01*
X151773000Y-102870000D01*
X151773000Y-105410000D01*
X151859397Y-105844346D01*
X151873198Y-105865000D01*
X150970133Y-105865000D01*
X147802566Y-102697434D01*
X147434345Y-102451397D01*
X147000000Y-102365000D01*
X146565655Y-102451397D01*
X146197434Y-102697434D01*
X145951397Y-103065655D01*
X145865000Y-103500000D01*
X140177260Y-103500000D01*
X140177260Y-102108000D01*
X140132982Y-101872683D01*
X139993910Y-101656559D01*
X139781710Y-101511569D01*
X139529820Y-101460560D01*
X137330180Y-101460560D01*
X137094863Y-101504838D01*
X136878739Y-101643910D01*
X136733749Y-101856110D01*
X136682740Y-102108000D01*
X136682740Y-103632000D01*
X136727018Y-103867317D01*
X136866090Y-104083441D01*
X137078290Y-104228431D01*
X137294724Y-104272260D01*
X137290623Y-104275000D01*
X136369696Y-104275000D01*
X136498423Y-104082346D01*
X136584820Y-103648000D01*
X136584820Y-101020306D01*
X136767126Y-100838000D01*
X150756994Y-100838000D01*
X150843391Y-101272345D01*
X151089428Y-101640566D01*
X151457649Y-101886603D01*
X151891994Y-101973000D01*
X152326339Y-101886603D01*
X152694560Y-101640566D01*
X153710566Y-100624560D01*
X153822526Y-100457000D01*
X153956603Y-100256340D01*
X154043000Y-99821994D01*
X154043000Y-99040000D01*
X161731193Y-99040000D01*
X161837533Y-99574609D01*
X162140365Y-100027828D01*
X162562664Y-100310000D01*
X162140365Y-100592172D01*
X161837533Y-101045391D01*
X161731193Y-101580000D01*
X161837533Y-102114609D01*
X162140365Y-102567828D01*
X162562664Y-102850000D01*
X162140365Y-103132172D01*
X161837533Y-103585391D01*
X161731193Y-104120000D01*
X161837533Y-104654609D01*
X162140365Y-105107828D01*
X162562664Y-105390000D01*
X162140365Y-105672172D01*
X161837533Y-106125391D01*
X161731193Y-106660000D01*
X161837533Y-107194609D01*
X162140365Y-107647828D01*
X162562664Y-107930000D01*
X162140365Y-108212172D01*
X161837533Y-108665391D01*
X161731193Y-109200000D01*
X161837533Y-109734609D01*
X162140365Y-110187828D01*
X162562664Y-110470000D01*
X162140365Y-110752172D01*
X161837533Y-111205391D01*
X161731193Y-111740000D01*
X161837533Y-112274609D01*
X162140365Y-112727828D01*
X162562664Y-113010000D01*
X162140365Y-113292172D01*
X161837533Y-113745391D01*
X161731193Y-114280000D01*
X161837533Y-114814609D01*
X162140365Y-115267828D01*
X162562664Y-115550000D01*
X162140365Y-115832172D01*
X161837533Y-116285391D01*
X161731193Y-116820000D01*
X161837533Y-117354609D01*
X162140365Y-117807828D01*
X162562664Y-118090000D01*
X162140365Y-118372172D01*
X161837533Y-118825391D01*
X161731193Y-119360000D01*
X161837533Y-119894609D01*
X162140365Y-120347828D01*
X162562664Y-120630000D01*
X162140365Y-120912172D01*
X161837533Y-121365391D01*
X161731193Y-121900000D01*
X161837533Y-122434609D01*
X162140365Y-122887828D01*
X162575606Y-123178647D01*
X162510239Y-123197941D01*
X162084550Y-123541974D01*
X161822920Y-124022723D01*
X161807960Y-124096930D01*
X161930460Y-124313000D01*
X163373000Y-124313000D01*
X163373000Y-124293000D01*
X163627000Y-124293000D01*
X163627000Y-124313000D01*
X165069540Y-124313000D01*
X165192040Y-124096930D01*
X165177080Y-124022723D01*
X164915450Y-123541974D01*
X164489761Y-123197941D01*
X164424394Y-123178647D01*
X164859635Y-122887828D01*
X165162467Y-122434609D01*
X165268807Y-121900000D01*
X165162467Y-121365391D01*
X164859635Y-120912172D01*
X164437336Y-120630000D01*
X164859635Y-120347828D01*
X165162467Y-119894609D01*
X165268807Y-119360000D01*
X165162467Y-118825391D01*
X164859635Y-118372172D01*
X164437336Y-118090000D01*
X164859635Y-117807828D01*
X165162467Y-117354609D01*
X165268807Y-116820000D01*
X165162467Y-116285391D01*
X164859635Y-115832172D01*
X164437336Y-115550000D01*
X164859635Y-115267828D01*
X165162467Y-114814609D01*
X165268807Y-114280000D01*
X165162467Y-113745391D01*
X164859635Y-113292172D01*
X164437336Y-113010000D01*
X164859635Y-112727828D01*
X165162467Y-112274609D01*
X165268807Y-111740000D01*
X165162467Y-111205391D01*
X164859635Y-110752172D01*
X164437336Y-110470000D01*
X164859635Y-110187828D01*
X165162467Y-109734609D01*
X165268807Y-109200000D01*
X165162467Y-108665391D01*
X164859635Y-108212172D01*
X164437336Y-107930000D01*
X164859635Y-107647828D01*
X165162467Y-107194609D01*
X165268807Y-106660000D01*
X165162467Y-106125391D01*
X164859635Y-105672172D01*
X164437336Y-105390000D01*
X164859635Y-105107828D01*
X165162467Y-104654609D01*
X165268807Y-104120000D01*
X165162467Y-103585391D01*
X164859635Y-103132172D01*
X164437336Y-102850000D01*
X164859635Y-102567828D01*
X165162467Y-102114609D01*
X165268807Y-101580000D01*
X165162467Y-101045391D01*
X164859635Y-100592172D01*
X164437336Y-100310000D01*
X164859635Y-100027828D01*
X165162467Y-99574609D01*
X165268807Y-99040000D01*
X165162467Y-98505391D01*
X164859635Y-98052172D01*
X164635870Y-97902657D01*
X164835137Y-97865162D01*
X165051261Y-97726090D01*
X165196251Y-97513890D01*
X165247260Y-97262000D01*
X165247260Y-96520000D01*
X169791193Y-96520000D01*
X169897533Y-97054609D01*
X170200365Y-97507828D01*
X170622664Y-97790000D01*
X170200365Y-98072172D01*
X169897533Y-98525391D01*
X169791193Y-99060000D01*
X169897533Y-99594609D01*
X170200365Y-100047828D01*
X170622664Y-100330000D01*
X170200365Y-100612172D01*
X169897533Y-101065391D01*
X169791193Y-101600000D01*
X169897533Y-102134609D01*
X170200365Y-102587828D01*
X170622664Y-102870000D01*
X170200365Y-103152172D01*
X169897533Y-103605391D01*
X169791193Y-104140000D01*
X169897533Y-104674609D01*
X170200365Y-105127828D01*
X170622664Y-105410000D01*
X170200365Y-105692172D01*
X169897533Y-106145391D01*
X169791193Y-106680000D01*
X169897533Y-107214609D01*
X170200365Y-107667828D01*
X170622664Y-107950000D01*
X170200365Y-108232172D01*
X169897533Y-108685391D01*
X169791193Y-109220000D01*
X169897533Y-109754609D01*
X170200365Y-110207828D01*
X170622664Y-110490000D01*
X170200365Y-110772172D01*
X169897533Y-111225391D01*
X169791193Y-111760000D01*
X169897533Y-112294609D01*
X170200365Y-112747828D01*
X170622664Y-113030000D01*
X170200365Y-113312172D01*
X169897533Y-113765391D01*
X169791193Y-114300000D01*
X169897533Y-114834609D01*
X170200365Y-115287828D01*
X170622664Y-115570000D01*
X170200365Y-115852172D01*
X169897533Y-116305391D01*
X169791193Y-116840000D01*
X169897533Y-117374609D01*
X170200365Y-117827828D01*
X170622664Y-118110000D01*
X170200365Y-118392172D01*
X169897533Y-118845391D01*
X169791193Y-119380000D01*
X169897533Y-119914609D01*
X170200365Y-120367828D01*
X170622664Y-120650000D01*
X170200365Y-120932172D01*
X169897533Y-121385391D01*
X169791193Y-121920000D01*
X169897533Y-122454609D01*
X170200365Y-122907828D01*
X170635606Y-123198647D01*
X170570239Y-123217941D01*
X170144550Y-123561974D01*
X169882920Y-124042723D01*
X169867960Y-124116930D01*
X169990460Y-124333000D01*
X171433000Y-124333000D01*
X171433000Y-124313000D01*
X171687000Y-124313000D01*
X171687000Y-124333000D01*
X173129540Y-124333000D01*
X173252040Y-124116930D01*
X173237080Y-124042723D01*
X172975450Y-123561974D01*
X172549761Y-123217941D01*
X172484394Y-123198647D01*
X172919635Y-122907828D01*
X173222467Y-122454609D01*
X173328807Y-121920000D01*
X173222467Y-121385391D01*
X172919635Y-120932172D01*
X172497336Y-120650000D01*
X172919635Y-120367828D01*
X173222467Y-119914609D01*
X173328807Y-119380000D01*
X173222467Y-118845391D01*
X172919635Y-118392172D01*
X172497336Y-118110000D01*
X172919635Y-117827828D01*
X173222467Y-117374609D01*
X173328807Y-116840000D01*
X173222467Y-116305391D01*
X172919635Y-115852172D01*
X172497336Y-115570000D01*
X172919635Y-115287828D01*
X173222467Y-114834609D01*
X173328807Y-114300000D01*
X173222467Y-113765391D01*
X172919635Y-113312172D01*
X172497336Y-113030000D01*
X172919635Y-112747828D01*
X173222467Y-112294609D01*
X173328807Y-111760000D01*
X173222467Y-111225391D01*
X172919635Y-110772172D01*
X172497336Y-110490000D01*
X172919635Y-110207828D01*
X173222467Y-109754609D01*
X173328807Y-109220000D01*
X173222467Y-108685391D01*
X172919635Y-108232172D01*
X172497336Y-107950000D01*
X172919635Y-107667828D01*
X173222467Y-107214609D01*
X173328807Y-106680000D01*
X173222467Y-106145391D01*
X172919635Y-105692172D01*
X172497336Y-105410000D01*
X172919635Y-105127828D01*
X173222467Y-104674609D01*
X173328807Y-104140000D01*
X173222467Y-103605391D01*
X172919635Y-103152172D01*
X172497336Y-102870000D01*
X172919635Y-102587828D01*
X173222467Y-102134609D01*
X173328807Y-101600000D01*
X173222467Y-101065391D01*
X172919635Y-100612172D01*
X172497336Y-100330000D01*
X172919635Y-100047828D01*
X173222467Y-99594609D01*
X173328807Y-99060000D01*
X173222467Y-98525391D01*
X172919635Y-98072172D01*
X172497336Y-97790000D01*
X172919635Y-97507828D01*
X173222467Y-97054609D01*
X173328807Y-96520000D01*
X173222467Y-95985391D01*
X172919635Y-95532172D01*
X172466416Y-95229340D01*
X171931807Y-95123000D01*
X171188193Y-95123000D01*
X170653584Y-95229340D01*
X170200365Y-95532172D01*
X169897533Y-95985391D01*
X169791193Y-96520000D01*
X165247260Y-96520000D01*
X165247260Y-95738000D01*
X165202982Y-95502683D01*
X165063910Y-95286559D01*
X164851710Y-95141569D01*
X164599820Y-95090560D01*
X162400180Y-95090560D01*
X162164863Y-95134838D01*
X161948739Y-95273910D01*
X161803749Y-95486110D01*
X161752740Y-95738000D01*
X161752740Y-97262000D01*
X161797018Y-97497317D01*
X161936090Y-97713441D01*
X162148290Y-97858431D01*
X162364724Y-97902260D01*
X162140365Y-98052172D01*
X161837533Y-98505391D01*
X161731193Y-99040000D01*
X154043000Y-99040000D01*
X154043000Y-97790000D01*
X153956603Y-97355654D01*
X153710566Y-96987434D01*
X153342346Y-96741397D01*
X152908000Y-96655000D01*
X152473654Y-96741397D01*
X152105434Y-96987434D01*
X151859397Y-97355654D01*
X151773000Y-97790000D01*
X151773000Y-99351862D01*
X151089428Y-100035434D01*
X150843391Y-100403655D01*
X150756994Y-100838000D01*
X136767126Y-100838000D01*
X137802566Y-99802560D01*
X138048604Y-99434339D01*
X138135000Y-98999994D01*
X138048604Y-98565648D01*
X137802566Y-98197428D01*
X137434346Y-97951390D01*
X137000000Y-97864994D01*
X136565655Y-97951390D01*
X136197434Y-98197428D01*
X134647254Y-99747608D01*
X134401217Y-100115828D01*
X134314820Y-100550174D01*
X134314820Y-101460560D01*
X132250180Y-101460560D01*
X132014863Y-101504838D01*
X131798739Y-101643910D01*
X131653749Y-101856110D01*
X131602740Y-102108000D01*
X131602740Y-102674308D01*
X129947434Y-104329614D01*
X129701397Y-104697834D01*
X129615000Y-105132180D01*
X129615000Y-112575870D01*
X128825870Y-113365000D01*
X128750000Y-113365000D01*
X128315654Y-113451397D01*
X128070805Y-113615000D01*
X118427240Y-113615000D01*
X118406120Y-113593880D01*
X117875688Y-113239457D01*
X117250000Y-113114999D01*
X117249995Y-113115000D01*
X113500000Y-113115000D01*
X112874313Y-113239457D01*
X112343880Y-113593880D01*
X111989457Y-114124313D01*
X111865000Y-114750000D01*
X93396939Y-114750000D01*
X93416133Y-114721275D01*
X93521603Y-114191040D01*
X93416133Y-113660805D01*
X93115779Y-113211294D01*
X92666268Y-112910940D01*
X92656968Y-112909090D01*
X92746677Y-112882539D01*
X93022832Y-112659016D01*
X98340590Y-112659016D01*
X98396271Y-112889611D01*
X98879078Y-113057622D01*
X99389428Y-113028083D01*
X99723729Y-112889611D01*
X99779410Y-112659016D01*
X99060000Y-111939605D01*
X98340590Y-112659016D01*
X93022832Y-112659016D01*
X93168658Y-112540984D01*
X93427810Y-112063943D01*
X93441993Y-111992315D01*
X93319339Y-111778040D01*
X91727000Y-111778040D01*
X91727000Y-111798040D01*
X91473000Y-111798040D01*
X91473000Y-111778040D01*
X89880661Y-111778040D01*
X89758007Y-111992315D01*
X89772190Y-112063943D01*
X90031342Y-112540984D01*
X90453323Y-112882539D01*
X90543032Y-112909090D01*
X90533732Y-112910940D01*
X90084221Y-113211294D01*
X89783867Y-113660805D01*
X89678397Y-114191040D01*
X85117440Y-114191040D01*
X85117440Y-113650000D01*
X85073162Y-113414683D01*
X84934090Y-113198559D01*
X84721890Y-113053569D01*
X84470000Y-113002560D01*
X83170000Y-113002560D01*
X82934683Y-113046838D01*
X82718559Y-113185910D01*
X82573569Y-113398110D01*
X82522560Y-113650000D01*
X73169890Y-113650000D01*
X72952632Y-113125495D01*
X72633877Y-112965728D01*
X71299605Y-114300000D01*
X70940395Y-114300000D01*
X69606123Y-112965728D01*
X69287368Y-113125495D01*
X68977405Y-113916217D01*
X66710000Y-113916217D01*
X66710000Y-112786123D01*
X69785728Y-112786123D01*
X71120000Y-114120395D01*
X72454272Y-112786123D01*
X72294505Y-112467368D01*
X71503783Y-112157405D01*
X70654634Y-112173633D01*
X69945495Y-112467368D01*
X69785728Y-112786123D01*
X66710000Y-112786123D01*
X66710000Y-111399016D01*
X83100590Y-111399016D01*
X83156271Y-111629611D01*
X83639078Y-111797622D01*
X84149428Y-111768083D01*
X84483729Y-111629611D01*
X84495931Y-111579078D01*
X97762378Y-111579078D01*
X97791917Y-112089428D01*
X97930389Y-112423729D01*
X98160984Y-112479410D01*
X98880395Y-111760000D01*
X99239605Y-111760000D01*
X99959016Y-112479410D01*
X100189611Y-112423729D01*
X100357622Y-111940922D01*
X100328083Y-111430572D01*
X100189611Y-111096271D01*
X99959016Y-111040590D01*
X99239605Y-111760000D01*
X98880395Y-111760000D01*
X98160984Y-111040590D01*
X97930389Y-111096271D01*
X97762378Y-111579078D01*
X84495931Y-111579078D01*
X84539410Y-111399016D01*
X83820000Y-110679605D01*
X83100590Y-111399016D01*
X66710000Y-111399016D01*
X66710000Y-109505750D01*
X68985130Y-109505750D01*
X68985130Y-110846179D01*
X69081803Y-111079568D01*
X69260431Y-111258197D01*
X69493820Y-111354870D01*
X70834250Y-111354870D01*
X70993000Y-111196120D01*
X70993000Y-109347000D01*
X71247000Y-109347000D01*
X71247000Y-111196120D01*
X71405750Y-111354870D01*
X72746180Y-111354870D01*
X72979569Y-111258197D01*
X73158197Y-111079568D01*
X73254870Y-110846179D01*
X73254870Y-110319078D01*
X82522378Y-110319078D01*
X82551917Y-110829428D01*
X82690389Y-111163729D01*
X82920984Y-111219410D01*
X83640395Y-110500000D01*
X83999605Y-110500000D01*
X84719016Y-111219410D01*
X84949611Y-111163729D01*
X85117622Y-110680922D01*
X85088083Y-110170572D01*
X84949611Y-109836271D01*
X84719016Y-109780590D01*
X83999605Y-110500000D01*
X83640395Y-110500000D01*
X82920984Y-109780590D01*
X82690389Y-109836271D01*
X82522378Y-110319078D01*
X73254870Y-110319078D01*
X73254870Y-109600984D01*
X83100590Y-109600984D01*
X83820000Y-110320395D01*
X84539410Y-109600984D01*
X84483729Y-109370389D01*
X84000922Y-109202378D01*
X83490572Y-109231917D01*
X83156271Y-109370389D01*
X83100590Y-109600984D01*
X73254870Y-109600984D01*
X73254870Y-109505750D01*
X73096120Y-109347000D01*
X71247000Y-109347000D01*
X70993000Y-109347000D01*
X69143880Y-109347000D01*
X68985130Y-109505750D01*
X66710000Y-109505750D01*
X66710000Y-109111040D01*
X89678397Y-109111040D01*
X89783867Y-109641275D01*
X90084221Y-110090786D01*
X90533732Y-110391140D01*
X90543032Y-110392990D01*
X90453323Y-110419541D01*
X90031342Y-110761096D01*
X89772190Y-111238137D01*
X89758007Y-111309765D01*
X89880661Y-111524040D01*
X91473000Y-111524040D01*
X91473000Y-111504040D01*
X91727000Y-111504040D01*
X91727000Y-111524040D01*
X93319339Y-111524040D01*
X93441993Y-111309765D01*
X93427810Y-111238137D01*
X93168658Y-110761096D01*
X92746677Y-110419541D01*
X92656968Y-110392990D01*
X92666268Y-110391140D01*
X93115779Y-110090786D01*
X93416133Y-109641275D01*
X93521603Y-109111040D01*
X93421941Y-108610000D01*
X97762560Y-108610000D01*
X97762560Y-109910000D01*
X97806838Y-110145317D01*
X97945910Y-110361441D01*
X98158110Y-110506431D01*
X98410000Y-110557440D01*
X98572385Y-110557440D01*
X98396271Y-110630389D01*
X98340590Y-110860984D01*
X99060000Y-111580395D01*
X99779410Y-110860984D01*
X99723729Y-110630389D01*
X99514098Y-110557440D01*
X99710000Y-110557440D01*
X99945317Y-110513162D01*
X100161441Y-110374090D01*
X100306431Y-110161890D01*
X100357440Y-109910000D01*
X100357440Y-108610000D01*
X100313162Y-108374683D01*
X100174090Y-108158559D01*
X99961890Y-108013569D01*
X99710000Y-107962560D01*
X98410000Y-107962560D01*
X98174683Y-108006838D01*
X97958559Y-108145910D01*
X97813569Y-108358110D01*
X97762560Y-108610000D01*
X93421941Y-108610000D01*
X93416133Y-108580805D01*
X93115779Y-108131294D01*
X92666268Y-107830940D01*
X92136033Y-107725470D01*
X91063967Y-107725470D01*
X90533732Y-107830940D01*
X90084221Y-108131294D01*
X89783867Y-108580805D01*
X89678397Y-109111040D01*
X66710000Y-109111040D01*
X66710000Y-107593821D01*
X68985130Y-107593821D01*
X68985130Y-108934250D01*
X69143880Y-109093000D01*
X70993000Y-109093000D01*
X70993000Y-107243880D01*
X71247000Y-107243880D01*
X71247000Y-109093000D01*
X73096120Y-109093000D01*
X73254870Y-108934250D01*
X73254870Y-107593821D01*
X73158197Y-107360432D01*
X72979569Y-107181803D01*
X72746180Y-107085130D01*
X71405750Y-107085130D01*
X71247000Y-107243880D01*
X70993000Y-107243880D01*
X70834250Y-107085130D01*
X69493820Y-107085130D01*
X69260431Y-107181803D01*
X69081803Y-107360432D01*
X68985130Y-107593821D01*
X66710000Y-107593821D01*
X66710000Y-105653877D01*
X69785728Y-105653877D01*
X69945495Y-105972632D01*
X70736217Y-106282595D01*
X71585366Y-106266367D01*
X72294505Y-105972632D01*
X72454272Y-105653877D01*
X71120000Y-104319605D01*
X69785728Y-105653877D01*
X66710000Y-105653877D01*
X66710000Y-103756217D01*
X68977405Y-103756217D01*
X68993633Y-104605366D01*
X69287368Y-105314505D01*
X69606123Y-105474272D01*
X70940395Y-104140000D01*
X71299605Y-104140000D01*
X72633877Y-105474272D01*
X72952632Y-105314505D01*
X73262595Y-104523783D01*
X73246367Y-103674634D01*
X72952632Y-102965495D01*
X72633877Y-102805728D01*
X71299605Y-104140000D01*
X70940395Y-104140000D01*
X69606123Y-102805728D01*
X69287368Y-102965495D01*
X68977405Y-103756217D01*
X66710000Y-103756217D01*
X66710000Y-102626123D01*
X69785728Y-102626123D01*
X71120000Y-103960395D01*
X72454272Y-102626123D01*
X72294505Y-102307368D01*
X71503783Y-101997405D01*
X70654634Y-102013633D01*
X69945495Y-102307368D01*
X69785728Y-102626123D01*
X66710000Y-102626123D01*
X66710000Y-99345750D01*
X68985130Y-99345750D01*
X68985130Y-100686179D01*
X69081803Y-100919568D01*
X69260431Y-101098197D01*
X69493820Y-101194870D01*
X70834250Y-101194870D01*
X70993000Y-101036120D01*
X70993000Y-99187000D01*
X71247000Y-99187000D01*
X71247000Y-101036120D01*
X71405750Y-101194870D01*
X72746180Y-101194870D01*
X72979569Y-101098197D01*
X73158197Y-100919568D01*
X73254870Y-100686179D01*
X73254870Y-99345750D01*
X73096120Y-99187000D01*
X71247000Y-99187000D01*
X70993000Y-99187000D01*
X69143880Y-99187000D01*
X68985130Y-99345750D01*
X66710000Y-99345750D01*
X66710000Y-97433821D01*
X68985130Y-97433821D01*
X68985130Y-98774250D01*
X69143880Y-98933000D01*
X70993000Y-98933000D01*
X70993000Y-97083880D01*
X71247000Y-97083880D01*
X71247000Y-98933000D01*
X73096120Y-98933000D01*
X73254870Y-98774250D01*
X73254870Y-97433821D01*
X73158197Y-97200432D01*
X72979569Y-97021803D01*
X72746180Y-96925130D01*
X71405750Y-96925130D01*
X71247000Y-97083880D01*
X70993000Y-97083880D01*
X70834250Y-96925130D01*
X69493820Y-96925130D01*
X69260431Y-97021803D01*
X69081803Y-97200432D01*
X68985130Y-97433821D01*
X66710000Y-97433821D01*
X66710000Y-90972325D01*
X67614587Y-90972325D01*
X67976916Y-91849229D01*
X68647242Y-92520726D01*
X69523513Y-92884585D01*
X70472325Y-92885413D01*
X71349229Y-92523084D01*
X72010677Y-91862789D01*
X76604760Y-91862789D01*
X76929090Y-92647727D01*
X77529114Y-93248800D01*
X78313485Y-93574499D01*
X79162789Y-93575240D01*
X79947727Y-93250910D01*
X80548800Y-92650886D01*
X80874499Y-91866515D01*
X80875240Y-91017211D01*
X80550910Y-90232273D01*
X80259277Y-89940130D01*
X81672690Y-89940130D01*
X81672690Y-92939870D01*
X81716968Y-93175187D01*
X81856040Y-93391311D01*
X82068240Y-93536301D01*
X82320130Y-93587310D01*
X85319870Y-93587310D01*
X85555187Y-93543032D01*
X85771311Y-93403960D01*
X85916301Y-93191760D01*
X85967310Y-92939870D01*
X85967310Y-91862789D01*
X86764760Y-91862789D01*
X87089090Y-92647727D01*
X87689114Y-93248800D01*
X88473485Y-93574499D01*
X89322789Y-93575240D01*
X90107727Y-93250910D01*
X90708800Y-92650886D01*
X91034499Y-91866515D01*
X91035240Y-91017211D01*
X90710910Y-90232273D01*
X90419277Y-89940130D01*
X91832690Y-89940130D01*
X91832690Y-92939870D01*
X91876968Y-93175187D01*
X92016040Y-93391311D01*
X92228240Y-93536301D01*
X92480130Y-93587310D01*
X95479870Y-93587310D01*
X95715187Y-93543032D01*
X95931311Y-93403960D01*
X96076301Y-93191760D01*
X96127310Y-92939870D01*
X96127310Y-91862789D01*
X96924760Y-91862789D01*
X97249090Y-92647727D01*
X97849114Y-93248800D01*
X98633485Y-93574499D01*
X99482789Y-93575240D01*
X100267727Y-93250910D01*
X100868800Y-92650886D01*
X101194499Y-91866515D01*
X101195240Y-91017211D01*
X100870910Y-90232273D01*
X100579277Y-89940130D01*
X101992690Y-89940130D01*
X101992690Y-92939870D01*
X102036968Y-93175187D01*
X102176040Y-93391311D01*
X102388240Y-93536301D01*
X102640130Y-93587310D01*
X105639870Y-93587310D01*
X105875187Y-93543032D01*
X106091311Y-93403960D01*
X106236301Y-93191760D01*
X106287310Y-92939870D01*
X106287310Y-91862789D01*
X107084760Y-91862789D01*
X107409090Y-92647727D01*
X108009114Y-93248800D01*
X108793485Y-93574499D01*
X109642789Y-93575240D01*
X110427727Y-93250910D01*
X111028800Y-92650886D01*
X111354499Y-91866515D01*
X111355240Y-91017211D01*
X111030910Y-90232273D01*
X110739277Y-89940130D01*
X112152690Y-89940130D01*
X112152690Y-92939870D01*
X112196968Y-93175187D01*
X112336040Y-93391311D01*
X112548240Y-93536301D01*
X112800130Y-93587310D01*
X115799870Y-93587310D01*
X116035187Y-93543032D01*
X116251311Y-93403960D01*
X116396301Y-93191760D01*
X116447310Y-92939870D01*
X116447310Y-91862789D01*
X117244760Y-91862789D01*
X117569090Y-92647727D01*
X118169114Y-93248800D01*
X118953485Y-93574499D01*
X119802789Y-93575240D01*
X120587727Y-93250910D01*
X121188800Y-92650886D01*
X121514499Y-91866515D01*
X121515240Y-91017211D01*
X121190910Y-90232273D01*
X120899277Y-89940130D01*
X122312690Y-89940130D01*
X122312690Y-92939870D01*
X122356968Y-93175187D01*
X122496040Y-93391311D01*
X122708240Y-93536301D01*
X122960130Y-93587310D01*
X125959870Y-93587310D01*
X126195187Y-93543032D01*
X126411311Y-93403960D01*
X126556301Y-93191760D01*
X126607310Y-92939870D01*
X126607310Y-91862789D01*
X127404760Y-91862789D01*
X127729090Y-92647727D01*
X128329114Y-93248800D01*
X129113485Y-93574499D01*
X129962789Y-93575240D01*
X130747727Y-93250910D01*
X131348800Y-92650886D01*
X131674499Y-91866515D01*
X131675240Y-91017211D01*
X131350910Y-90232273D01*
X131059277Y-89940130D01*
X132472690Y-89940130D01*
X132472690Y-92939870D01*
X132516968Y-93175187D01*
X132656040Y-93391311D01*
X132868240Y-93536301D01*
X133120130Y-93587310D01*
X136119870Y-93587310D01*
X136355187Y-93543032D01*
X136571311Y-93403960D01*
X136716301Y-93191760D01*
X136767310Y-92939870D01*
X136767310Y-91862789D01*
X137564760Y-91862789D01*
X137889090Y-92647727D01*
X138489114Y-93248800D01*
X139273485Y-93574499D01*
X140122789Y-93575240D01*
X140907727Y-93250910D01*
X141508800Y-92650886D01*
X141834499Y-91866515D01*
X141835240Y-91017211D01*
X141510910Y-90232273D01*
X141219277Y-89940130D01*
X142632690Y-89940130D01*
X142632690Y-92939870D01*
X142676968Y-93175187D01*
X142816040Y-93391311D01*
X143028240Y-93536301D01*
X143280130Y-93587310D01*
X146279870Y-93587310D01*
X146515187Y-93543032D01*
X146731311Y-93403960D01*
X146876301Y-93191760D01*
X146927310Y-92939870D01*
X146927310Y-91862789D01*
X147724760Y-91862789D01*
X148049090Y-92647727D01*
X148649114Y-93248800D01*
X149433485Y-93574499D01*
X150282789Y-93575240D01*
X151067727Y-93250910D01*
X151668800Y-92650886D01*
X151994499Y-91866515D01*
X151995240Y-91017211D01*
X151670910Y-90232273D01*
X151379277Y-89940130D01*
X152792690Y-89940130D01*
X152792690Y-92939870D01*
X152836968Y-93175187D01*
X152976040Y-93391311D01*
X153188240Y-93536301D01*
X153440130Y-93587310D01*
X156439870Y-93587310D01*
X156675187Y-93543032D01*
X156891311Y-93403960D01*
X157036301Y-93191760D01*
X157087310Y-92939870D01*
X157087310Y-90972325D01*
X199614587Y-90972325D01*
X199976916Y-91849229D01*
X200647242Y-92520726D01*
X201523513Y-92884585D01*
X202472325Y-92885413D01*
X203349229Y-92523084D01*
X204020726Y-91852758D01*
X204384585Y-90976487D01*
X204385413Y-90027675D01*
X204023084Y-89150771D01*
X203352758Y-88479274D01*
X202476487Y-88115415D01*
X201527675Y-88114587D01*
X200650771Y-88476916D01*
X199979274Y-89147242D01*
X199615415Y-90023513D01*
X199614587Y-90972325D01*
X157087310Y-90972325D01*
X157087310Y-89940130D01*
X157043032Y-89704813D01*
X156903960Y-89488689D01*
X156691760Y-89343699D01*
X156439870Y-89292690D01*
X153440130Y-89292690D01*
X153204813Y-89336968D01*
X152988689Y-89476040D01*
X152843699Y-89688240D01*
X152792690Y-89940130D01*
X151379277Y-89940130D01*
X151070886Y-89631200D01*
X150286515Y-89305501D01*
X149437211Y-89304760D01*
X148652273Y-89629090D01*
X148051200Y-90229114D01*
X147725501Y-91013485D01*
X147724760Y-91862789D01*
X146927310Y-91862789D01*
X146927310Y-89940130D01*
X146883032Y-89704813D01*
X146743960Y-89488689D01*
X146531760Y-89343699D01*
X146279870Y-89292690D01*
X143280130Y-89292690D01*
X143044813Y-89336968D01*
X142828689Y-89476040D01*
X142683699Y-89688240D01*
X142632690Y-89940130D01*
X141219277Y-89940130D01*
X140910886Y-89631200D01*
X140126515Y-89305501D01*
X139277211Y-89304760D01*
X138492273Y-89629090D01*
X137891200Y-90229114D01*
X137565501Y-91013485D01*
X137564760Y-91862789D01*
X136767310Y-91862789D01*
X136767310Y-89940130D01*
X136723032Y-89704813D01*
X136583960Y-89488689D01*
X136371760Y-89343699D01*
X136119870Y-89292690D01*
X133120130Y-89292690D01*
X132884813Y-89336968D01*
X132668689Y-89476040D01*
X132523699Y-89688240D01*
X132472690Y-89940130D01*
X131059277Y-89940130D01*
X130750886Y-89631200D01*
X129966515Y-89305501D01*
X129117211Y-89304760D01*
X128332273Y-89629090D01*
X127731200Y-90229114D01*
X127405501Y-91013485D01*
X127404760Y-91862789D01*
X126607310Y-91862789D01*
X126607310Y-89940130D01*
X126563032Y-89704813D01*
X126423960Y-89488689D01*
X126211760Y-89343699D01*
X125959870Y-89292690D01*
X122960130Y-89292690D01*
X122724813Y-89336968D01*
X122508689Y-89476040D01*
X122363699Y-89688240D01*
X122312690Y-89940130D01*
X120899277Y-89940130D01*
X120590886Y-89631200D01*
X119806515Y-89305501D01*
X118957211Y-89304760D01*
X118172273Y-89629090D01*
X117571200Y-90229114D01*
X117245501Y-91013485D01*
X117244760Y-91862789D01*
X116447310Y-91862789D01*
X116447310Y-89940130D01*
X116403032Y-89704813D01*
X116263960Y-89488689D01*
X116051760Y-89343699D01*
X115799870Y-89292690D01*
X112800130Y-89292690D01*
X112564813Y-89336968D01*
X112348689Y-89476040D01*
X112203699Y-89688240D01*
X112152690Y-89940130D01*
X110739277Y-89940130D01*
X110430886Y-89631200D01*
X109646515Y-89305501D01*
X108797211Y-89304760D01*
X108012273Y-89629090D01*
X107411200Y-90229114D01*
X107085501Y-91013485D01*
X107084760Y-91862789D01*
X106287310Y-91862789D01*
X106287310Y-89940130D01*
X106243032Y-89704813D01*
X106103960Y-89488689D01*
X105891760Y-89343699D01*
X105639870Y-89292690D01*
X102640130Y-89292690D01*
X102404813Y-89336968D01*
X102188689Y-89476040D01*
X102043699Y-89688240D01*
X101992690Y-89940130D01*
X100579277Y-89940130D01*
X100270886Y-89631200D01*
X99486515Y-89305501D01*
X98637211Y-89304760D01*
X97852273Y-89629090D01*
X97251200Y-90229114D01*
X96925501Y-91013485D01*
X96924760Y-91862789D01*
X96127310Y-91862789D01*
X96127310Y-89940130D01*
X96083032Y-89704813D01*
X95943960Y-89488689D01*
X95731760Y-89343699D01*
X95479870Y-89292690D01*
X92480130Y-89292690D01*
X92244813Y-89336968D01*
X92028689Y-89476040D01*
X91883699Y-89688240D01*
X91832690Y-89940130D01*
X90419277Y-89940130D01*
X90110886Y-89631200D01*
X89326515Y-89305501D01*
X88477211Y-89304760D01*
X87692273Y-89629090D01*
X87091200Y-90229114D01*
X86765501Y-91013485D01*
X86764760Y-91862789D01*
X85967310Y-91862789D01*
X85967310Y-89940130D01*
X85923032Y-89704813D01*
X85783960Y-89488689D01*
X85571760Y-89343699D01*
X85319870Y-89292690D01*
X82320130Y-89292690D01*
X82084813Y-89336968D01*
X81868689Y-89476040D01*
X81723699Y-89688240D01*
X81672690Y-89940130D01*
X80259277Y-89940130D01*
X79950886Y-89631200D01*
X79166515Y-89305501D01*
X78317211Y-89304760D01*
X77532273Y-89629090D01*
X76931200Y-90229114D01*
X76605501Y-91013485D01*
X76604760Y-91862789D01*
X72010677Y-91862789D01*
X72020726Y-91852758D01*
X72384585Y-90976487D01*
X72385413Y-90027675D01*
X72023084Y-89150771D01*
X71352758Y-88479274D01*
X70476487Y-88115415D01*
X69527675Y-88114587D01*
X68650771Y-88476916D01*
X67979274Y-89147242D01*
X67615415Y-90023513D01*
X67614587Y-90972325D01*
X66710000Y-90972325D01*
X66710000Y-87210000D01*
X205290000Y-87210000D01*
X205290000Y-135790000D01*
X205290000Y-135790000D01*
G37*
X205290000Y-135790000D02*
X175562240Y-135790000D01*
X179272239Y-132080000D01*
X185032488Y-132080000D01*
X185138828Y-132614609D01*
X185441660Y-133067828D01*
X185894879Y-133370660D01*
X186429488Y-133477000D01*
X187170512Y-133477000D01*
X187705121Y-133370660D01*
X188158340Y-133067828D01*
X188461172Y-132614609D01*
X188567512Y-132080000D01*
X188461172Y-131545391D01*
X188275825Y-131268000D01*
X191502740Y-131268000D01*
X191502740Y-132792000D01*
X191547018Y-133027317D01*
X191686090Y-133243441D01*
X191898290Y-133388431D01*
X192150180Y-133439440D01*
X194349820Y-133439440D01*
X194585137Y-133395162D01*
X194801261Y-133256090D01*
X194946251Y-133043890D01*
X194960743Y-132972325D01*
X199614587Y-132972325D01*
X199976916Y-133849229D01*
X200647242Y-134520726D01*
X201523513Y-134884585D01*
X202472325Y-134885413D01*
X203349229Y-134523084D01*
X204020726Y-133852758D01*
X204384585Y-132976487D01*
X204385413Y-132027675D01*
X204023084Y-131150771D01*
X203352758Y-130479274D01*
X202476487Y-130115415D01*
X201527675Y-130114587D01*
X200650771Y-130476916D01*
X199979274Y-131147242D01*
X199615415Y-132023513D01*
X199614587Y-132972325D01*
X194960743Y-132972325D01*
X194997260Y-132792000D01*
X194997260Y-131268000D01*
X194952982Y-131032683D01*
X194813910Y-130816559D01*
X194601710Y-130671569D01*
X194372133Y-130625079D01*
X194665450Y-130388026D01*
X194927080Y-129907277D01*
X194942040Y-129833070D01*
X194819540Y-129617000D01*
X193377000Y-129617000D01*
X193377000Y-129637000D01*
X193123000Y-129637000D01*
X193123000Y-129617000D01*
X191680460Y-129617000D01*
X191557960Y-129833070D01*
X191572920Y-129907277D01*
X191834550Y-130388026D01*
X192127546Y-130624819D01*
X191914863Y-130664838D01*
X191698739Y-130803910D01*
X191553749Y-131016110D01*
X191502740Y-131268000D01*
X188275825Y-131268000D01*
X188158340Y-131092172D01*
X187723107Y-130801358D01*
X187788491Y-130782059D01*
X188214180Y-130438026D01*
X188475810Y-129957277D01*
X188490770Y-129883070D01*
X188368270Y-129667000D01*
X186927000Y-129667000D01*
X186927000Y-129687000D01*
X186673000Y-129687000D01*
X186673000Y-129667000D01*
X185231730Y-129667000D01*
X185109230Y-129883070D01*
X185124190Y-129957277D01*
X185385820Y-130438026D01*
X185811509Y-130782059D01*
X185876893Y-130801358D01*
X185441660Y-131092172D01*
X185138828Y-131545391D01*
X185032488Y-132080000D01*
X179272239Y-132080000D01*
X185257239Y-126095000D01*
X185386316Y-126095000D01*
X185138828Y-126465391D01*
X185032488Y-127000000D01*
X185138828Y-127534609D01*
X185441660Y-127987828D01*
X185876893Y-128278642D01*
X185811509Y-128297941D01*
X185385820Y-128641974D01*
X185124190Y-129122723D01*
X185109230Y-129196930D01*
X185231730Y-129413000D01*
X186673000Y-129413000D01*
X186673000Y-129393000D01*
X186927000Y-129393000D01*
X186927000Y-129413000D01*
X188368270Y-129413000D01*
X188490770Y-129196930D01*
X188475810Y-129122723D01*
X188214180Y-128641974D01*
X187788491Y-128297941D01*
X187723107Y-128278642D01*
X188158340Y-127987828D01*
X188461172Y-127534609D01*
X188567512Y-127000000D01*
X188461172Y-126465391D01*
X188158340Y-126012172D01*
X187760863Y-125746586D01*
X187956120Y-125616120D01*
X187996163Y-125556192D01*
X188158340Y-125447828D01*
X188461172Y-124994609D01*
X188567512Y-124460000D01*
X188461172Y-123925391D01*
X188158340Y-123472172D01*
X187996163Y-123363808D01*
X187956120Y-123303880D01*
X187760863Y-123173414D01*
X188158340Y-122907828D01*
X188461172Y-122454609D01*
X188567512Y-121920000D01*
X188461172Y-121385391D01*
X188158340Y-120932172D01*
X187736041Y-120650000D01*
X188158340Y-120367828D01*
X188461172Y-119914609D01*
X188567512Y-119380000D01*
X188461172Y-118845391D01*
X188158340Y-118392172D01*
X187736041Y-118110000D01*
X188158340Y-117827828D01*
X188461172Y-117374609D01*
X188567512Y-116840000D01*
X188461172Y-116305391D01*
X188158340Y-115852172D01*
X187736041Y-115570000D01*
X188158340Y-115287828D01*
X188461172Y-114834609D01*
X188567512Y-114300000D01*
X188461172Y-113765391D01*
X188158340Y-113312172D01*
X187736041Y-113030000D01*
X188158340Y-112747828D01*
X188461172Y-112294609D01*
X188567512Y-111760000D01*
X188461172Y-111225391D01*
X188158340Y-110772172D01*
X187736041Y-110490000D01*
X188158340Y-110207828D01*
X188461172Y-109754609D01*
X188567512Y-109220000D01*
X188461172Y-108685391D01*
X188158340Y-108232172D01*
X187736041Y-107950000D01*
X188158340Y-107667828D01*
X188461172Y-107214609D01*
X188567512Y-106680000D01*
X188461172Y-106145391D01*
X188158340Y-105692172D01*
X187736688Y-105410433D01*
X188159635Y-105127828D01*
X188462467Y-104674609D01*
X188568807Y-104140000D01*
X188462467Y-103605391D01*
X188159635Y-103152172D01*
X187737336Y-102870000D01*
X188159635Y-102587828D01*
X188462467Y-102134609D01*
X188568807Y-101600000D01*
X188462467Y-101065391D01*
X188159635Y-100612172D01*
X187737336Y-100330000D01*
X188159635Y-100047828D01*
X188462467Y-99594609D01*
X188568807Y-99060000D01*
X188462467Y-98525391D01*
X188159635Y-98072172D01*
X187737336Y-97790000D01*
X188159635Y-97507828D01*
X188462467Y-97054609D01*
X188568807Y-96520000D01*
X188558862Y-96470000D01*
X191481193Y-96470000D01*
X191587533Y-97004609D01*
X191890365Y-97457828D01*
X192312664Y-97740000D01*
X191890365Y-98022172D01*
X191587533Y-98475391D01*
X191481193Y-99010000D01*
X191587533Y-99544609D01*
X191890365Y-99997828D01*
X192312664Y-100280000D01*
X191890365Y-100562172D01*
X191587533Y-101015391D01*
X191481193Y-101550000D01*
X191587533Y-102084609D01*
X191890365Y-102537828D01*
X192312664Y-102820000D01*
X191890365Y-103102172D01*
X191587533Y-103555391D01*
X191481193Y-104090000D01*
X191587533Y-104624609D01*
X191890365Y-105077828D01*
X192312664Y-105360000D01*
X191890365Y-105642172D01*
X191587533Y-106095391D01*
X191481193Y-106630000D01*
X191587533Y-107164609D01*
X191890365Y-107617828D01*
X192312664Y-107900000D01*
X191890365Y-108182172D01*
X191587533Y-108635391D01*
X191481193Y-109170000D01*
X191587533Y-109704609D01*
X191890365Y-110157828D01*
X192312664Y-110440000D01*
X191890365Y-110722172D01*
X191587533Y-111175391D01*
X191481193Y-111710000D01*
X191587533Y-112244609D01*
X191890365Y-112697828D01*
X192312664Y-112980000D01*
X191890365Y-113262172D01*
X191587533Y-113715391D01*
X191481193Y-114250000D01*
X191587533Y-114784609D01*
X191890365Y-115237828D01*
X192312664Y-115520000D01*
X191890365Y-115802172D01*
X191587533Y-116255391D01*
X191481193Y-116790000D01*
X191587533Y-117324609D01*
X191890365Y-117777828D01*
X192312664Y-118060000D01*
X191890365Y-118342172D01*
X191587533Y-118795391D01*
X191481193Y-119330000D01*
X191587533Y-119864609D01*
X191890365Y-120317828D01*
X192312664Y-120600000D01*
X191890365Y-120882172D01*
X191587533Y-121335391D01*
X191481193Y-121870000D01*
X191587533Y-122404609D01*
X191890365Y-122857828D01*
X192312664Y-123140000D01*
X191890365Y-123422172D01*
X191587533Y-123875391D01*
X191481193Y-124410000D01*
X191587533Y-124944609D01*
X191890365Y-125397828D01*
X192312664Y-125680000D01*
X191890365Y-125962172D01*
X191587533Y-126415391D01*
X191481193Y-126950000D01*
X191587533Y-127484609D01*
X191890365Y-127937828D01*
X192325606Y-128228647D01*
X192260239Y-128247941D01*
X191834550Y-128591974D01*
X191572920Y-129072723D01*
X191557960Y-129146930D01*
X191680460Y-129363000D01*
X193123000Y-129363000D01*
X193123000Y-129343000D01*
X193377000Y-129343000D01*
X193377000Y-129363000D01*
X194819540Y-129363000D01*
X194942040Y-129146930D01*
X194927080Y-129072723D01*
X194665450Y-128591974D01*
X194239761Y-128247941D01*
X194174394Y-128228647D01*
X194609635Y-127937828D01*
X194912467Y-127484609D01*
X195018807Y-126950000D01*
X194912467Y-126415391D01*
X194609635Y-125962172D01*
X194187336Y-125680000D01*
X194609635Y-125397828D01*
X194912467Y-124944609D01*
X195018807Y-124410000D01*
X194912467Y-123875391D01*
X194609635Y-123422172D01*
X194187336Y-123140000D01*
X194609635Y-122857828D01*
X194912467Y-122404609D01*
X195018807Y-121870000D01*
X194970709Y-121628193D01*
X199333000Y-121628193D01*
X199333000Y-122371807D01*
X199439340Y-122906416D01*
X199742172Y-123359635D01*
X200195391Y-123662467D01*
X200730000Y-123768807D01*
X201264609Y-123662467D01*
X201717828Y-123359635D01*
X201867343Y-123135870D01*
X201904838Y-123335137D01*
X202043910Y-123551261D01*
X202256110Y-123696251D01*
X202508000Y-123747260D01*
X204032000Y-123747260D01*
X204267317Y-123702982D01*
X204483441Y-123563910D01*
X204628431Y-123351710D01*
X204679440Y-123099820D01*
X204679440Y-120900180D01*
X204635162Y-120664863D01*
X204496090Y-120448739D01*
X204283890Y-120303749D01*
X204032000Y-120252740D01*
X202508000Y-120252740D01*
X202272683Y-120297018D01*
X202056559Y-120436090D01*
X201911569Y-120648290D01*
X201867740Y-120864724D01*
X201717828Y-120640365D01*
X201264609Y-120337533D01*
X200730000Y-120231193D01*
X200195391Y-120337533D01*
X199742172Y-120640365D01*
X199439340Y-121093584D01*
X199333000Y-121628193D01*
X194970709Y-121628193D01*
X194912467Y-121335391D01*
X194609635Y-120882172D01*
X194187336Y-120600000D01*
X194609635Y-120317828D01*
X194912467Y-119864609D01*
X195018807Y-119330000D01*
X194912467Y-118795391D01*
X194609635Y-118342172D01*
X194187336Y-118060000D01*
X194609635Y-117777828D01*
X194912467Y-117324609D01*
X195018807Y-116790000D01*
X194912467Y-116255391D01*
X194609635Y-115802172D01*
X194277327Y-115580130D01*
X198852690Y-115580130D01*
X198852690Y-118579870D01*
X198896968Y-118815187D01*
X199036040Y-119031311D01*
X199248240Y-119176301D01*
X199500130Y-119227310D01*
X202499870Y-119227310D01*
X202735187Y-119183032D01*
X202951311Y-119043960D01*
X203096301Y-118831760D01*
X203147310Y-118579870D01*
X203147310Y-115580130D01*
X203103032Y-115344813D01*
X202963960Y-115128689D01*
X202751760Y-114983699D01*
X202499870Y-114932690D01*
X199500130Y-114932690D01*
X199264813Y-114976968D01*
X199048689Y-115116040D01*
X198903699Y-115328240D01*
X198852690Y-115580130D01*
X194277327Y-115580130D01*
X194187336Y-115520000D01*
X194609635Y-115237828D01*
X194912467Y-114784609D01*
X195018807Y-114250000D01*
X194912467Y-113715391D01*
X194609635Y-113262172D01*
X194187336Y-112980000D01*
X194609635Y-112697828D01*
X194793410Y-112422789D01*
X198864760Y-112422789D01*
X199189090Y-113207727D01*
X199789114Y-113808800D01*
X200573485Y-114134499D01*
X201422789Y-114135240D01*
X202207727Y-113810910D01*
X202808800Y-113210886D01*
X203134499Y-112426515D01*
X203135240Y-111577211D01*
X202810910Y-110792273D01*
X202210886Y-110191200D01*
X201426515Y-109865501D01*
X200577211Y-109864760D01*
X199792273Y-110189090D01*
X199191200Y-110789114D01*
X198865501Y-111573485D01*
X198864760Y-112422789D01*
X194793410Y-112422789D01*
X194912467Y-112244609D01*
X195018807Y-111710000D01*
X194912467Y-111175391D01*
X194609635Y-110722172D01*
X194187336Y-110440000D01*
X194609635Y-110157828D01*
X194912467Y-109704609D01*
X195018807Y-109170000D01*
X194912467Y-108635391D01*
X194777820Y-108433877D01*
X199665728Y-108433877D01*
X199825495Y-108752632D01*
X200616217Y-109062595D01*
X201465366Y-109046367D01*
X202174505Y-108752632D01*
X202334272Y-108433877D01*
X201000000Y-107099605D01*
X199665728Y-108433877D01*
X194777820Y-108433877D01*
X194609635Y-108182172D01*
X194187336Y-107900000D01*
X194609635Y-107617828D01*
X194912467Y-107164609D01*
X195018807Y-106630000D01*
X195000153Y-106536217D01*
X198857405Y-106536217D01*
X198873633Y-107385366D01*
X199167368Y-108094505D01*
X199486123Y-108254272D01*
X200820395Y-106920000D01*
X201179605Y-106920000D01*
X202513877Y-108254272D01*
X202832632Y-108094505D01*
X203142595Y-107303783D01*
X203126367Y-106454634D01*
X202832632Y-105745495D01*
X202513877Y-105585728D01*
X201179605Y-106920000D01*
X200820395Y-106920000D01*
X199486123Y-105585728D01*
X199167368Y-105745495D01*
X198857405Y-106536217D01*
X195000153Y-106536217D01*
X194912467Y-106095391D01*
X194609635Y-105642172D01*
X194256364Y-105406123D01*
X199665728Y-105406123D01*
X201000000Y-106740395D01*
X202334272Y-105406123D01*
X202174505Y-105087368D01*
X201383783Y-104777405D01*
X200534634Y-104793633D01*
X199825495Y-105087368D01*
X199665728Y-105406123D01*
X194256364Y-105406123D01*
X194187336Y-105360000D01*
X194609635Y-105077828D01*
X194912467Y-104624609D01*
X195018807Y-104090000D01*
X194912467Y-103555391D01*
X194609635Y-103102172D01*
X194187336Y-102820000D01*
X194609635Y-102537828D01*
X194912467Y-102084609D01*
X195018807Y-101550000D01*
X194912467Y-101015391D01*
X194609635Y-100562172D01*
X194187336Y-100280000D01*
X194609635Y-99997828D01*
X194912467Y-99544609D01*
X195018807Y-99010000D01*
X194912467Y-98475391D01*
X194609635Y-98022172D01*
X194187336Y-97740000D01*
X194609635Y-97457828D01*
X194912467Y-97004609D01*
X195018807Y-96470000D01*
X194912467Y-95935391D01*
X194609635Y-95482172D01*
X194156416Y-95179340D01*
X193621807Y-95073000D01*
X192878193Y-95073000D01*
X192343584Y-95179340D01*
X191890365Y-95482172D01*
X191587533Y-95935391D01*
X191481193Y-96470000D01*
X188558862Y-96470000D01*
X188462467Y-95985391D01*
X188159635Y-95532172D01*
X187706416Y-95229340D01*
X187171807Y-95123000D01*
X186428193Y-95123000D01*
X185893584Y-95229340D01*
X185440365Y-95532172D01*
X185137533Y-95985391D01*
X185031193Y-96520000D01*
X185137533Y-97054609D01*
X185440365Y-97507828D01*
X185862664Y-97790000D01*
X185440365Y-98072172D01*
X185137533Y-98525391D01*
X185031193Y-99060000D01*
X185137533Y-99594609D01*
X185440365Y-100047828D01*
X185862664Y-100330000D01*
X185440365Y-100612172D01*
X185137533Y-101065391D01*
X185031193Y-101600000D01*
X185137533Y-102134609D01*
X185440365Y-102587828D01*
X185862664Y-102870000D01*
X185440365Y-103152172D01*
X185137533Y-103605391D01*
X185031193Y-104140000D01*
X185137533Y-104674609D01*
X185440365Y-105127828D01*
X185863312Y-105410433D01*
X185441660Y-105692172D01*
X185138828Y-106145391D01*
X185032488Y-106680000D01*
X185138828Y-107214609D01*
X185441660Y-107667828D01*
X185863959Y-107950000D01*
X185441660Y-108232172D01*
X185138828Y-108685391D01*
X185032488Y-109220000D01*
X185138828Y-109754609D01*
X185441660Y-110207828D01*
X185863959Y-110490000D01*
X185441660Y-110772172D01*
X185138828Y-111225391D01*
X185032488Y-111760000D01*
X185138828Y-112294609D01*
X185441660Y-112747828D01*
X185863959Y-113030000D01*
X185441660Y-113312172D01*
X185138828Y-113765391D01*
X185032488Y-114300000D01*
X185138828Y-114834609D01*
X185441660Y-115287828D01*
X185863959Y-115570000D01*
X185441660Y-115852172D01*
X185138828Y-116305391D01*
X185032488Y-116840000D01*
X185138828Y-117374609D01*
X185441660Y-117827828D01*
X185863959Y-118110000D01*
X185441660Y-118392172D01*
X185138828Y-118845391D01*
X185032488Y-119380000D01*
X185138828Y-119914609D01*
X185441660Y-120367828D01*
X185863959Y-120650000D01*
X185441660Y-120932172D01*
X185138828Y-121385391D01*
X185032488Y-121920000D01*
X185138828Y-122454609D01*
X185386316Y-122825000D01*
X184580005Y-122825000D01*
X184580000Y-122824999D01*
X183954313Y-122949457D01*
X183423880Y-123303880D01*
X183423878Y-123303883D01*
X173133880Y-133593880D01*
X172779457Y-134124312D01*
X172654999Y-134750000D01*
X172779457Y-135375688D01*
X173056291Y-135790000D01*
X66710000Y-135790000D01*
X66710000Y-132972325D01*
X67614587Y-132972325D01*
X67976916Y-133849229D01*
X68647242Y-134520726D01*
X69523513Y-134884585D01*
X70472325Y-134885413D01*
X71349229Y-134523084D01*
X72020726Y-133852758D01*
X72384585Y-132976487D01*
X72385413Y-132027675D01*
X72023084Y-131150771D01*
X71352758Y-130479274D01*
X70476487Y-130115415D01*
X69527675Y-130114587D01*
X68650771Y-130476916D01*
X67979274Y-131147242D01*
X67615415Y-132023513D01*
X67614587Y-132972325D01*
X66710000Y-132972325D01*
X66710000Y-130006726D01*
X76592690Y-130006726D01*
X76592690Y-133006466D01*
X76636968Y-133241783D01*
X76776040Y-133457907D01*
X76988240Y-133602897D01*
X77240130Y-133653906D01*
X80239870Y-133653906D01*
X80475187Y-133609628D01*
X80691311Y-133470556D01*
X80836301Y-133258356D01*
X80887310Y-133006466D01*
X80887310Y-131929385D01*
X81684760Y-131929385D01*
X82009090Y-132714323D01*
X82609114Y-133315396D01*
X83393485Y-133641095D01*
X84242789Y-133641836D01*
X85027727Y-133317506D01*
X85628800Y-132717482D01*
X85954499Y-131933111D01*
X85955240Y-131083807D01*
X85630910Y-130298869D01*
X85339277Y-130006726D01*
X86752690Y-130006726D01*
X86752690Y-133006466D01*
X86796968Y-133241783D01*
X86936040Y-133457907D01*
X87148240Y-133602897D01*
X87400130Y-133653906D01*
X90399870Y-133653906D01*
X90635187Y-133609628D01*
X90851311Y-133470556D01*
X90996301Y-133258356D01*
X91047310Y-133006466D01*
X91047310Y-131929385D01*
X91844760Y-131929385D01*
X92169090Y-132714323D01*
X92769114Y-133315396D01*
X93553485Y-133641095D01*
X94402789Y-133641836D01*
X95187727Y-133317506D01*
X95788800Y-132717482D01*
X96114499Y-131933111D01*
X96115240Y-131083807D01*
X95790910Y-130298869D01*
X95572553Y-130080130D01*
X96912690Y-130080130D01*
X96912690Y-133079870D01*
X96956968Y-133315187D01*
X97096040Y-133531311D01*
X97308240Y-133676301D01*
X97560130Y-133727310D01*
X100559870Y-133727310D01*
X100795187Y-133683032D01*
X101011311Y-133543960D01*
X101156301Y-133331760D01*
X101207310Y-133079870D01*
X101207310Y-132002789D01*
X102004760Y-132002789D01*
X102329090Y-132787727D01*
X102929114Y-133388800D01*
X103713485Y-133714499D01*
X104562789Y-133715240D01*
X105347727Y-133390910D01*
X105948800Y-132790886D01*
X106274499Y-132006515D01*
X106275240Y-131157211D01*
X105950910Y-130372273D01*
X105659277Y-130080130D01*
X107072690Y-130080130D01*
X107072690Y-133079870D01*
X107116968Y-133315187D01*
X107256040Y-133531311D01*
X107468240Y-133676301D01*
X107720130Y-133727310D01*
X110719870Y-133727310D01*
X110955187Y-133683032D01*
X111171311Y-133543960D01*
X111316301Y-133331760D01*
X111367310Y-133079870D01*
X111367310Y-132002789D01*
X112164760Y-132002789D01*
X112489090Y-132787727D01*
X113089114Y-133388800D01*
X113873485Y-133714499D01*
X114722789Y-133715240D01*
X115507727Y-133390910D01*
X116108800Y-132790886D01*
X116434499Y-132006515D01*
X116435240Y-131157211D01*
X116110910Y-130372273D01*
X115819277Y-130080130D01*
X117232690Y-130080130D01*
X117232690Y-133079870D01*
X117276968Y-133315187D01*
X117416040Y-133531311D01*
X117628240Y-133676301D01*
X117880130Y-133727310D01*
X120879870Y-133727310D01*
X121115187Y-133683032D01*
X121331311Y-133543960D01*
X121476301Y-133331760D01*
X121527310Y-133079870D01*
X121527310Y-132002789D01*
X122324760Y-132002789D01*
X122649090Y-132787727D01*
X123249114Y-133388800D01*
X124033485Y-133714499D01*
X124882789Y-133715240D01*
X125667727Y-133390910D01*
X126268800Y-132790886D01*
X126594499Y-132006515D01*
X126595240Y-131157211D01*
X126270910Y-130372273D01*
X125979277Y-130080130D01*
X127392690Y-130080130D01*
X127392690Y-133079870D01*
X127436968Y-133315187D01*
X127576040Y-133531311D01*
X127788240Y-133676301D01*
X128040130Y-133727310D01*
X131039870Y-133727310D01*
X131275187Y-133683032D01*
X131491311Y-133543960D01*
X131636301Y-133331760D01*
X131687310Y-133079870D01*
X131687310Y-132002789D01*
X132484760Y-132002789D01*
X132809090Y-132787727D01*
X133409114Y-133388800D01*
X134193485Y-133714499D01*
X135042789Y-133715240D01*
X135827727Y-133390910D01*
X136428800Y-132790886D01*
X136754499Y-132006515D01*
X136755240Y-131157211D01*
X136430910Y-130372273D01*
X136139277Y-130080130D01*
X137552690Y-130080130D01*
X137552690Y-133079870D01*
X137596968Y-133315187D01*
X137736040Y-133531311D01*
X137948240Y-133676301D01*
X138200130Y-133727310D01*
X141199870Y-133727310D01*
X141435187Y-133683032D01*
X141651311Y-133543960D01*
X141796301Y-133331760D01*
X141847310Y-133079870D01*
X141847310Y-132002789D01*
X142644760Y-132002789D01*
X142969090Y-132787727D01*
X143569114Y-133388800D01*
X144353485Y-133714499D01*
X145202789Y-133715240D01*
X145987727Y-133390910D01*
X146588800Y-132790886D01*
X146914499Y-132006515D01*
X146915240Y-131157211D01*
X146590910Y-130372273D01*
X146299277Y-130080130D01*
X147712690Y-130080130D01*
X147712690Y-133079870D01*
X147756968Y-133315187D01*
X147896040Y-133531311D01*
X148108240Y-133676301D01*
X148360130Y-133727310D01*
X151359870Y-133727310D01*
X151595187Y-133683032D01*
X151811311Y-133543960D01*
X151956301Y-133331760D01*
X152007310Y-133079870D01*
X152007310Y-132002789D01*
X152804760Y-132002789D01*
X153129090Y-132787727D01*
X153729114Y-133388800D01*
X154513485Y-133714499D01*
X155362789Y-133715240D01*
X156147727Y-133390910D01*
X156748800Y-132790886D01*
X157074499Y-132006515D01*
X157075240Y-131157211D01*
X156750910Y-130372273D01*
X156150886Y-129771200D01*
X155366515Y-129445501D01*
X154517211Y-129444760D01*
X153732273Y-129769090D01*
X153131200Y-130369114D01*
X152805501Y-131153485D01*
X152804760Y-132002789D01*
X152007310Y-132002789D01*
X152007310Y-130080130D01*
X151963032Y-129844813D01*
X151823960Y-129628689D01*
X151611760Y-129483699D01*
X151359870Y-129432690D01*
X148360130Y-129432690D01*
X148124813Y-129476968D01*
X147908689Y-129616040D01*
X147763699Y-129828240D01*
X147712690Y-130080130D01*
X146299277Y-130080130D01*
X145990886Y-129771200D01*
X145206515Y-129445501D01*
X144357211Y-129444760D01*
X143572273Y-129769090D01*
X142971200Y-130369114D01*
X142645501Y-131153485D01*
X142644760Y-132002789D01*
X141847310Y-132002789D01*
X141847310Y-130080130D01*
X141803032Y-129844813D01*
X141663960Y-129628689D01*
X141451760Y-129483699D01*
X141199870Y-129432690D01*
X138200130Y-129432690D01*
X137964813Y-129476968D01*
X137748689Y-129616040D01*
X137603699Y-129828240D01*
X137552690Y-130080130D01*
X136139277Y-130080130D01*
X135830886Y-129771200D01*
X135046515Y-129445501D01*
X134197211Y-129444760D01*
X133412273Y-129769090D01*
X132811200Y-130369114D01*
X132485501Y-131153485D01*
X132484760Y-132002789D01*
X131687310Y-132002789D01*
X131687310Y-130080130D01*
X131643032Y-129844813D01*
X131503960Y-129628689D01*
X131291760Y-129483699D01*
X131039870Y-129432690D01*
X128040130Y-129432690D01*
X127804813Y-129476968D01*
X127588689Y-129616040D01*
X127443699Y-129828240D01*
X127392690Y-130080130D01*
X125979277Y-130080130D01*
X125670886Y-129771200D01*
X124886515Y-129445501D01*
X124037211Y-129444760D01*
X123252273Y-129769090D01*
X122651200Y-130369114D01*
X122325501Y-131153485D01*
X122324760Y-132002789D01*
X121527310Y-132002789D01*
X121527310Y-130080130D01*
X121483032Y-129844813D01*
X121343960Y-129628689D01*
X121131760Y-129483699D01*
X120879870Y-129432690D01*
X117880130Y-129432690D01*
X117644813Y-129476968D01*
X117428689Y-129616040D01*
X117283699Y-129828240D01*
X117232690Y-130080130D01*
X115819277Y-130080130D01*
X115510886Y-129771200D01*
X114726515Y-129445501D01*
X113877211Y-129444760D01*
X113092273Y-129769090D01*
X112491200Y-130369114D01*
X112165501Y-131153485D01*
X112164760Y-132002789D01*
X111367310Y-132002789D01*
X111367310Y-130080130D01*
X111323032Y-129844813D01*
X111183960Y-129628689D01*
X110971760Y-129483699D01*
X110719870Y-129432690D01*
X107720130Y-129432690D01*
X107484813Y-129476968D01*
X107268689Y-129616040D01*
X107123699Y-129828240D01*
X107072690Y-130080130D01*
X105659277Y-130080130D01*
X105350886Y-129771200D01*
X104566515Y-129445501D01*
X103717211Y-129444760D01*
X102932273Y-129769090D01*
X102331200Y-130369114D01*
X102005501Y-131153485D01*
X102004760Y-132002789D01*
X101207310Y-132002789D01*
X101207310Y-130080130D01*
X101163032Y-129844813D01*
X101023960Y-129628689D01*
X100811760Y-129483699D01*
X100559870Y-129432690D01*
X97560130Y-129432690D01*
X97324813Y-129476968D01*
X97108689Y-129616040D01*
X96963699Y-129828240D01*
X96912690Y-130080130D01*
X95572553Y-130080130D01*
X95190886Y-129697796D01*
X94406515Y-129372097D01*
X93557211Y-129371356D01*
X92772273Y-129695686D01*
X92171200Y-130295710D01*
X91845501Y-131080081D01*
X91844760Y-131929385D01*
X91047310Y-131929385D01*
X91047310Y-130006726D01*
X91003032Y-129771409D01*
X90863960Y-129555285D01*
X90651760Y-129410295D01*
X90399870Y-129359286D01*
X87400130Y-129359286D01*
X87164813Y-129403564D01*
X86948689Y-129542636D01*
X86803699Y-129754836D01*
X86752690Y-130006726D01*
X85339277Y-130006726D01*
X85030886Y-129697796D01*
X84246515Y-129372097D01*
X83397211Y-129371356D01*
X82612273Y-129695686D01*
X82011200Y-130295710D01*
X81685501Y-131080081D01*
X81684760Y-131929385D01*
X80887310Y-131929385D01*
X80887310Y-130006726D01*
X80843032Y-129771409D01*
X80703960Y-129555285D01*
X80491760Y-129410295D01*
X80239870Y-129359286D01*
X77240130Y-129359286D01*
X77004813Y-129403564D01*
X76788689Y-129542636D01*
X76643699Y-129754836D01*
X76592690Y-130006726D01*
X66710000Y-130006726D01*
X66710000Y-126980000D01*
X161731193Y-126980000D01*
X161837533Y-127514609D01*
X162140365Y-127967828D01*
X162562664Y-128250000D01*
X162140365Y-128532172D01*
X161837533Y-128985391D01*
X161731193Y-129520000D01*
X161837533Y-130054609D01*
X162140365Y-130507828D01*
X162562664Y-130790000D01*
X162140365Y-131072172D01*
X161837533Y-131525391D01*
X161731193Y-132060000D01*
X161837533Y-132594609D01*
X162140365Y-133047828D01*
X162593584Y-133350660D01*
X163128193Y-133457000D01*
X163871807Y-133457000D01*
X164406416Y-133350660D01*
X164859635Y-133047828D01*
X165162467Y-132594609D01*
X165268807Y-132060000D01*
X165162467Y-131525391D01*
X164859635Y-131072172D01*
X164437336Y-130790000D01*
X164859635Y-130507828D01*
X165162467Y-130054609D01*
X165268807Y-129520000D01*
X165162467Y-128985391D01*
X164859635Y-128532172D01*
X164437336Y-128250000D01*
X164859635Y-127967828D01*
X165162467Y-127514609D01*
X165264828Y-127000000D01*
X169791193Y-127000000D01*
X169897533Y-127534609D01*
X170200365Y-127987828D01*
X170622664Y-128270000D01*
X170200365Y-128552172D01*
X169897533Y-129005391D01*
X169791193Y-129540000D01*
X169897533Y-130074609D01*
X170200365Y-130527828D01*
X170622664Y-130810000D01*
X170200365Y-131092172D01*
X169897533Y-131545391D01*
X169791193Y-132080000D01*
X169897533Y-132614609D01*
X170200365Y-133067828D01*
X170653584Y-133370660D01*
X171188193Y-133477000D01*
X171931807Y-133477000D01*
X172466416Y-133370660D01*
X172919635Y-133067828D01*
X173222467Y-132614609D01*
X173328807Y-132080000D01*
X173222467Y-131545391D01*
X172919635Y-131092172D01*
X172497336Y-130810000D01*
X172919635Y-130527828D01*
X173222467Y-130074609D01*
X173328807Y-129540000D01*
X173222467Y-129005391D01*
X172919635Y-128552172D01*
X172497336Y-128270000D01*
X172919635Y-127987828D01*
X173222467Y-127534609D01*
X173328807Y-127000000D01*
X173222467Y-126465391D01*
X172919635Y-126012172D01*
X172484394Y-125721353D01*
X172549761Y-125702059D01*
X172975450Y-125358026D01*
X173237080Y-124877277D01*
X173252040Y-124803070D01*
X173129540Y-124587000D01*
X171687000Y-124587000D01*
X171687000Y-124607000D01*
X171433000Y-124607000D01*
X171433000Y-124587000D01*
X169990460Y-124587000D01*
X169867960Y-124803070D01*
X169882920Y-124877277D01*
X170144550Y-125358026D01*
X170570239Y-125702059D01*
X170635606Y-125721353D01*
X170200365Y-126012172D01*
X169897533Y-126465391D01*
X169791193Y-127000000D01*
X165264828Y-127000000D01*
X165268807Y-126980000D01*
X165162467Y-126445391D01*
X164859635Y-125992172D01*
X164424394Y-125701353D01*
X164489761Y-125682059D01*
X164915450Y-125338026D01*
X165177080Y-124857277D01*
X165192040Y-124783070D01*
X165069540Y-124567000D01*
X163627000Y-124567000D01*
X163627000Y-124587000D01*
X163373000Y-124587000D01*
X163373000Y-124567000D01*
X161930460Y-124567000D01*
X161807960Y-124783070D01*
X161822920Y-124857277D01*
X162084550Y-125338026D01*
X162510239Y-125682059D01*
X162575606Y-125701353D01*
X162140365Y-125992172D01*
X161837533Y-126445391D01*
X161731193Y-126980000D01*
X66710000Y-126980000D01*
X66710000Y-124882789D01*
X68984760Y-124882789D01*
X69309090Y-125667727D01*
X69909114Y-126268800D01*
X70693485Y-126594499D01*
X71542789Y-126595240D01*
X72327727Y-126270910D01*
X72928800Y-125670886D01*
X73254499Y-124886515D01*
X73255240Y-124037211D01*
X72930910Y-123252273D01*
X72330886Y-122651200D01*
X71546515Y-122325501D01*
X70697211Y-122324760D01*
X69912273Y-122649090D01*
X69311200Y-123249114D01*
X68985501Y-124033485D01*
X68984760Y-124882789D01*
X66710000Y-124882789D01*
X66710000Y-119665750D01*
X68985130Y-119665750D01*
X68985130Y-121006179D01*
X69081803Y-121239568D01*
X69260431Y-121418197D01*
X69493820Y-121514870D01*
X70834250Y-121514870D01*
X70993000Y-121356120D01*
X70993000Y-119507000D01*
X71247000Y-119507000D01*
X71247000Y-121356120D01*
X71405750Y-121514870D01*
X72746180Y-121514870D01*
X72979569Y-121418197D01*
X73158197Y-121239568D01*
X73254870Y-121006179D01*
X73254870Y-119665750D01*
X73096120Y-119507000D01*
X71247000Y-119507000D01*
X70993000Y-119507000D01*
X69143880Y-119507000D01*
X68985130Y-119665750D01*
X66710000Y-119665750D01*
X66710000Y-117753821D01*
X68985130Y-117753821D01*
X68985130Y-119094250D01*
X69143880Y-119253000D01*
X70993000Y-119253000D01*
X70993000Y-117403880D01*
X71247000Y-117403880D01*
X71247000Y-119253000D01*
X73096120Y-119253000D01*
X73254870Y-119094250D01*
X73254870Y-117753821D01*
X73158197Y-117520432D01*
X72979569Y-117341803D01*
X72746180Y-117245130D01*
X71405750Y-117245130D01*
X71247000Y-117403880D01*
X70993000Y-117403880D01*
X70834250Y-117245130D01*
X69493820Y-117245130D01*
X69260431Y-117341803D01*
X69081803Y-117520432D01*
X68985130Y-117753821D01*
X66710000Y-117753821D01*
X66710000Y-115813877D01*
X69785728Y-115813877D01*
X69945495Y-116132632D01*
X70736217Y-116442595D01*
X71585366Y-116426367D01*
X72294505Y-116132632D01*
X72454272Y-115813877D01*
X71120000Y-114479605D01*
X69785728Y-115813877D01*
X66710000Y-115813877D01*
X66710000Y-113916217D01*
X68977405Y-113916217D01*
X68993633Y-114765366D01*
X69287368Y-115474505D01*
X69606123Y-115634272D01*
X70940395Y-114300000D01*
X71299605Y-114300000D01*
X72633877Y-115634272D01*
X72952632Y-115474505D01*
X73262595Y-114683783D01*
X73246367Y-113834634D01*
X73169890Y-113650000D01*
X82522560Y-113650000D01*
X82522560Y-114950000D01*
X82566838Y-115185317D01*
X82705910Y-115401441D01*
X82918110Y-115546431D01*
X83170000Y-115597440D01*
X84470000Y-115597440D01*
X84705317Y-115553162D01*
X84921441Y-115414090D01*
X85066431Y-115201890D01*
X85117440Y-114950000D01*
X85117440Y-114191040D01*
X89678397Y-114191040D01*
X89783867Y-114721275D01*
X90084221Y-115170786D01*
X90533732Y-115471140D01*
X91063967Y-115576610D01*
X92136033Y-115576610D01*
X92666268Y-115471140D01*
X93115779Y-115170786D01*
X93396939Y-114750000D01*
X111865000Y-114750000D01*
X111989457Y-115375687D01*
X112343880Y-115906120D01*
X112874313Y-116260543D01*
X113500000Y-116385000D01*
X116572760Y-116385000D01*
X120043881Y-119856121D01*
X120343881Y-120156120D01*
X120874313Y-120510543D01*
X121500000Y-120635001D01*
X122125688Y-120510543D01*
X122656120Y-120156120D01*
X123010543Y-119625688D01*
X123135001Y-119000000D01*
X123010543Y-118374313D01*
X122656120Y-117843881D01*
X122356121Y-117543881D01*
X120697240Y-115885000D01*
X121495737Y-115885000D01*
X121493162Y-115891201D01*
X121492838Y-116263167D01*
X121634883Y-116606943D01*
X121897673Y-116870192D01*
X122241201Y-117012838D01*
X122613167Y-117013162D01*
X122956943Y-116871117D01*
X123220192Y-116608327D01*
X123362838Y-116264799D01*
X123362848Y-116253310D01*
X123731158Y-115885000D01*
X128500000Y-115885000D01*
X128934346Y-115798603D01*
X129179195Y-115635000D01*
X129296002Y-115635000D01*
X129730348Y-115548603D01*
X130098568Y-115302566D01*
X131552566Y-113848568D01*
X131714917Y-113605593D01*
X131990365Y-114017828D01*
X132412664Y-114300000D01*
X131990365Y-114582172D01*
X131687533Y-115035391D01*
X131581193Y-115570000D01*
X131687533Y-116104609D01*
X131990365Y-116557828D01*
X132443584Y-116860660D01*
X132978193Y-116967000D01*
X133721807Y-116967000D01*
X134256416Y-116860660D01*
X134615000Y-116621061D01*
X134615000Y-116750000D01*
X134701397Y-117184346D01*
X134947434Y-117552566D01*
X135315654Y-117798603D01*
X135750000Y-117885000D01*
X136184346Y-117798603D01*
X136552566Y-117552566D01*
X136798603Y-117184346D01*
X136885000Y-116750000D01*
X136885000Y-116280410D01*
X137070365Y-116557828D01*
X137523584Y-116860660D01*
X138058193Y-116967000D01*
X138801807Y-116967000D01*
X139336416Y-116860660D01*
X139789635Y-116557828D01*
X140092467Y-116104609D01*
X140198807Y-115570000D01*
X140092467Y-115035391D01*
X139789635Y-114582172D01*
X139367336Y-114300000D01*
X139789635Y-114017828D01*
X140092467Y-113564609D01*
X140198807Y-113030000D01*
X140092467Y-112495391D01*
X139789635Y-112042172D01*
X139367336Y-111760000D01*
X139789635Y-111477828D01*
X140092467Y-111024609D01*
X140198807Y-110490000D01*
X140092467Y-109955391D01*
X139789635Y-109502172D01*
X139367336Y-109220000D01*
X139789635Y-108937828D01*
X140092467Y-108484609D01*
X140198807Y-107950000D01*
X140092467Y-107415391D01*
X139789635Y-106962172D01*
X139367336Y-106680000D01*
X139789635Y-106397828D01*
X140092467Y-105944609D01*
X140198807Y-105410000D01*
X140092467Y-104875391D01*
X139789635Y-104422172D01*
X139565870Y-104272657D01*
X139765137Y-104235162D01*
X139981261Y-104096090D01*
X140126251Y-103883890D01*
X140177260Y-103632000D01*
X140177260Y-103500000D01*
X145865000Y-103500000D01*
X145951397Y-103934345D01*
X146197434Y-104302566D01*
X149697433Y-107802566D01*
X149949004Y-107970660D01*
X150065654Y-108048603D01*
X150500000Y-108135000D01*
X153500000Y-108135000D01*
X153934346Y-108048603D01*
X154302566Y-107802566D01*
X154548603Y-107434346D01*
X154635000Y-107000000D01*
X154548603Y-106565654D01*
X154302566Y-106197434D01*
X153934346Y-105951397D01*
X153890854Y-105942746D01*
X153956603Y-105844346D01*
X154043000Y-105410000D01*
X154043000Y-102870000D01*
X153956603Y-102435654D01*
X153710566Y-102067434D01*
X153342346Y-101821397D01*
X152908000Y-101735000D01*
X152473654Y-101821397D01*
X152105434Y-102067434D01*
X151859397Y-102435654D01*
X151773000Y-102870000D01*
X151773000Y-105410000D01*
X151859397Y-105844346D01*
X151873198Y-105865000D01*
X150970133Y-105865000D01*
X147802566Y-102697434D01*
X147434345Y-102451397D01*
X147000000Y-102365000D01*
X146565655Y-102451397D01*
X146197434Y-102697434D01*
X145951397Y-103065655D01*
X145865000Y-103500000D01*
X140177260Y-103500000D01*
X140177260Y-102108000D01*
X140132982Y-101872683D01*
X139993910Y-101656559D01*
X139781710Y-101511569D01*
X139529820Y-101460560D01*
X137330180Y-101460560D01*
X137094863Y-101504838D01*
X136878739Y-101643910D01*
X136733749Y-101856110D01*
X136682740Y-102108000D01*
X136682740Y-103632000D01*
X136727018Y-103867317D01*
X136866090Y-104083441D01*
X137078290Y-104228431D01*
X137294724Y-104272260D01*
X137290623Y-104275000D01*
X136369696Y-104275000D01*
X136498423Y-104082346D01*
X136584820Y-103648000D01*
X136584820Y-101020306D01*
X136767126Y-100838000D01*
X150756994Y-100838000D01*
X150843391Y-101272345D01*
X151089428Y-101640566D01*
X151457649Y-101886603D01*
X151891994Y-101973000D01*
X152326339Y-101886603D01*
X152694560Y-101640566D01*
X153710566Y-100624560D01*
X153822526Y-100457000D01*
X153956603Y-100256340D01*
X154043000Y-99821994D01*
X154043000Y-99040000D01*
X161731193Y-99040000D01*
X161837533Y-99574609D01*
X162140365Y-100027828D01*
X162562664Y-100310000D01*
X162140365Y-100592172D01*
X161837533Y-101045391D01*
X161731193Y-101580000D01*
X161837533Y-102114609D01*
X162140365Y-102567828D01*
X162562664Y-102850000D01*
X162140365Y-103132172D01*
X161837533Y-103585391D01*
X161731193Y-104120000D01*
X161837533Y-104654609D01*
X162140365Y-105107828D01*
X162562664Y-105390000D01*
X162140365Y-105672172D01*
X161837533Y-106125391D01*
X161731193Y-106660000D01*
X161837533Y-107194609D01*
X162140365Y-107647828D01*
X162562664Y-107930000D01*
X162140365Y-108212172D01*
X161837533Y-108665391D01*
X161731193Y-109200000D01*
X161837533Y-109734609D01*
X162140365Y-110187828D01*
X162562664Y-110470000D01*
X162140365Y-110752172D01*
X161837533Y-111205391D01*
X161731193Y-111740000D01*
X161837533Y-112274609D01*
X162140365Y-112727828D01*
X162562664Y-113010000D01*
X162140365Y-113292172D01*
X161837533Y-113745391D01*
X161731193Y-114280000D01*
X161837533Y-114814609D01*
X162140365Y-115267828D01*
X162562664Y-115550000D01*
X162140365Y-115832172D01*
X161837533Y-116285391D01*
X161731193Y-116820000D01*
X161837533Y-117354609D01*
X162140365Y-117807828D01*
X162562664Y-118090000D01*
X162140365Y-118372172D01*
X161837533Y-118825391D01*
X161731193Y-119360000D01*
X161837533Y-119894609D01*
X162140365Y-120347828D01*
X162562664Y-120630000D01*
X162140365Y-120912172D01*
X161837533Y-121365391D01*
X161731193Y-121900000D01*
X161837533Y-122434609D01*
X162140365Y-122887828D01*
X162575606Y-123178647D01*
X162510239Y-123197941D01*
X162084550Y-123541974D01*
X161822920Y-124022723D01*
X161807960Y-124096930D01*
X161930460Y-124313000D01*
X163373000Y-124313000D01*
X163373000Y-124293000D01*
X163627000Y-124293000D01*
X163627000Y-124313000D01*
X165069540Y-124313000D01*
X165192040Y-124096930D01*
X165177080Y-124022723D01*
X164915450Y-123541974D01*
X164489761Y-123197941D01*
X164424394Y-123178647D01*
X164859635Y-122887828D01*
X165162467Y-122434609D01*
X165268807Y-121900000D01*
X165162467Y-121365391D01*
X164859635Y-120912172D01*
X164437336Y-120630000D01*
X164859635Y-120347828D01*
X165162467Y-119894609D01*
X165268807Y-119360000D01*
X165162467Y-118825391D01*
X164859635Y-118372172D01*
X164437336Y-118090000D01*
X164859635Y-117807828D01*
X165162467Y-117354609D01*
X165268807Y-116820000D01*
X165162467Y-116285391D01*
X164859635Y-115832172D01*
X164437336Y-115550000D01*
X164859635Y-115267828D01*
X165162467Y-114814609D01*
X165268807Y-114280000D01*
X165162467Y-113745391D01*
X164859635Y-113292172D01*
X164437336Y-113010000D01*
X164859635Y-112727828D01*
X165162467Y-112274609D01*
X165268807Y-111740000D01*
X165162467Y-111205391D01*
X164859635Y-110752172D01*
X164437336Y-110470000D01*
X164859635Y-110187828D01*
X165162467Y-109734609D01*
X165268807Y-109200000D01*
X165162467Y-108665391D01*
X164859635Y-108212172D01*
X164437336Y-107930000D01*
X164859635Y-107647828D01*
X165162467Y-107194609D01*
X165268807Y-106660000D01*
X165162467Y-106125391D01*
X164859635Y-105672172D01*
X164437336Y-105390000D01*
X164859635Y-105107828D01*
X165162467Y-104654609D01*
X165268807Y-104120000D01*
X165162467Y-103585391D01*
X164859635Y-103132172D01*
X164437336Y-102850000D01*
X164859635Y-102567828D01*
X165162467Y-102114609D01*
X165268807Y-101580000D01*
X165162467Y-101045391D01*
X164859635Y-100592172D01*
X164437336Y-100310000D01*
X164859635Y-100027828D01*
X165162467Y-99574609D01*
X165268807Y-99040000D01*
X165162467Y-98505391D01*
X164859635Y-98052172D01*
X164635870Y-97902657D01*
X164835137Y-97865162D01*
X165051261Y-97726090D01*
X165196251Y-97513890D01*
X165247260Y-97262000D01*
X165247260Y-96520000D01*
X169791193Y-96520000D01*
X169897533Y-97054609D01*
X170200365Y-97507828D01*
X170622664Y-97790000D01*
X170200365Y-98072172D01*
X169897533Y-98525391D01*
X169791193Y-99060000D01*
X169897533Y-99594609D01*
X170200365Y-100047828D01*
X170622664Y-100330000D01*
X170200365Y-100612172D01*
X169897533Y-101065391D01*
X169791193Y-101600000D01*
X169897533Y-102134609D01*
X170200365Y-102587828D01*
X170622664Y-102870000D01*
X170200365Y-103152172D01*
X169897533Y-103605391D01*
X169791193Y-104140000D01*
X169897533Y-104674609D01*
X170200365Y-105127828D01*
X170622664Y-105410000D01*
X170200365Y-105692172D01*
X169897533Y-106145391D01*
X169791193Y-106680000D01*
X169897533Y-107214609D01*
X170200365Y-107667828D01*
X170622664Y-107950000D01*
X170200365Y-108232172D01*
X169897533Y-108685391D01*
X169791193Y-109220000D01*
X169897533Y-109754609D01*
X170200365Y-110207828D01*
X170622664Y-110490000D01*
X170200365Y-110772172D01*
X169897533Y-111225391D01*
X169791193Y-111760000D01*
X169897533Y-112294609D01*
X170200365Y-112747828D01*
X170622664Y-113030000D01*
X170200365Y-113312172D01*
X169897533Y-113765391D01*
X169791193Y-114300000D01*
X169897533Y-114834609D01*
X170200365Y-115287828D01*
X170622664Y-115570000D01*
X170200365Y-115852172D01*
X169897533Y-116305391D01*
X169791193Y-116840000D01*
X169897533Y-117374609D01*
X170200365Y-117827828D01*
X170622664Y-118110000D01*
X170200365Y-118392172D01*
X169897533Y-118845391D01*
X169791193Y-119380000D01*
X169897533Y-119914609D01*
X170200365Y-120367828D01*
X170622664Y-120650000D01*
X170200365Y-120932172D01*
X169897533Y-121385391D01*
X169791193Y-121920000D01*
X169897533Y-122454609D01*
X170200365Y-122907828D01*
X170635606Y-123198647D01*
X170570239Y-123217941D01*
X170144550Y-123561974D01*
X169882920Y-124042723D01*
X169867960Y-124116930D01*
X169990460Y-124333000D01*
X171433000Y-124333000D01*
X171433000Y-124313000D01*
X171687000Y-124313000D01*
X171687000Y-124333000D01*
X173129540Y-124333000D01*
X173252040Y-124116930D01*
X173237080Y-124042723D01*
X172975450Y-123561974D01*
X172549761Y-123217941D01*
X172484394Y-123198647D01*
X172919635Y-122907828D01*
X173222467Y-122454609D01*
X173328807Y-121920000D01*
X173222467Y-121385391D01*
X172919635Y-120932172D01*
X172497336Y-120650000D01*
X172919635Y-120367828D01*
X173222467Y-119914609D01*
X173328807Y-119380000D01*
X173222467Y-118845391D01*
X172919635Y-118392172D01*
X172497336Y-118110000D01*
X172919635Y-117827828D01*
X173222467Y-117374609D01*
X173328807Y-116840000D01*
X173222467Y-116305391D01*
X172919635Y-115852172D01*
X172497336Y-115570000D01*
X172919635Y-115287828D01*
X173222467Y-114834609D01*
X173328807Y-114300000D01*
X173222467Y-113765391D01*
X172919635Y-113312172D01*
X172497336Y-113030000D01*
X172919635Y-112747828D01*
X173222467Y-112294609D01*
X173328807Y-111760000D01*
X173222467Y-111225391D01*
X172919635Y-110772172D01*
X172497336Y-110490000D01*
X172919635Y-110207828D01*
X173222467Y-109754609D01*
X173328807Y-109220000D01*
X173222467Y-108685391D01*
X172919635Y-108232172D01*
X172497336Y-107950000D01*
X172919635Y-107667828D01*
X173222467Y-107214609D01*
X173328807Y-106680000D01*
X173222467Y-106145391D01*
X172919635Y-105692172D01*
X172497336Y-105410000D01*
X172919635Y-105127828D01*
X173222467Y-104674609D01*
X173328807Y-104140000D01*
X173222467Y-103605391D01*
X172919635Y-103152172D01*
X172497336Y-102870000D01*
X172919635Y-102587828D01*
X173222467Y-102134609D01*
X173328807Y-101600000D01*
X173222467Y-101065391D01*
X172919635Y-100612172D01*
X172497336Y-100330000D01*
X172919635Y-100047828D01*
X173222467Y-99594609D01*
X173328807Y-99060000D01*
X173222467Y-98525391D01*
X172919635Y-98072172D01*
X172497336Y-97790000D01*
X172919635Y-97507828D01*
X173222467Y-97054609D01*
X173328807Y-96520000D01*
X173222467Y-95985391D01*
X172919635Y-95532172D01*
X172466416Y-95229340D01*
X171931807Y-95123000D01*
X171188193Y-95123000D01*
X170653584Y-95229340D01*
X170200365Y-95532172D01*
X169897533Y-95985391D01*
X169791193Y-96520000D01*
X165247260Y-96520000D01*
X165247260Y-95738000D01*
X165202982Y-95502683D01*
X165063910Y-95286559D01*
X164851710Y-95141569D01*
X164599820Y-95090560D01*
X162400180Y-95090560D01*
X162164863Y-95134838D01*
X161948739Y-95273910D01*
X161803749Y-95486110D01*
X161752740Y-95738000D01*
X161752740Y-97262000D01*
X161797018Y-97497317D01*
X161936090Y-97713441D01*
X162148290Y-97858431D01*
X162364724Y-97902260D01*
X162140365Y-98052172D01*
X161837533Y-98505391D01*
X161731193Y-99040000D01*
X154043000Y-99040000D01*
X154043000Y-97790000D01*
X153956603Y-97355654D01*
X153710566Y-96987434D01*
X153342346Y-96741397D01*
X152908000Y-96655000D01*
X152473654Y-96741397D01*
X152105434Y-96987434D01*
X151859397Y-97355654D01*
X151773000Y-97790000D01*
X151773000Y-99351862D01*
X151089428Y-100035434D01*
X150843391Y-100403655D01*
X150756994Y-100838000D01*
X136767126Y-100838000D01*
X137802566Y-99802560D01*
X138048604Y-99434339D01*
X138135000Y-98999994D01*
X138048604Y-98565648D01*
X137802566Y-98197428D01*
X137434346Y-97951390D01*
X137000000Y-97864994D01*
X136565655Y-97951390D01*
X136197434Y-98197428D01*
X134647254Y-99747608D01*
X134401217Y-100115828D01*
X134314820Y-100550174D01*
X134314820Y-101460560D01*
X132250180Y-101460560D01*
X132014863Y-101504838D01*
X131798739Y-101643910D01*
X131653749Y-101856110D01*
X131602740Y-102108000D01*
X131602740Y-102674308D01*
X129947434Y-104329614D01*
X129701397Y-104697834D01*
X129615000Y-105132180D01*
X129615000Y-112575870D01*
X128825870Y-113365000D01*
X128750000Y-113365000D01*
X128315654Y-113451397D01*
X128070805Y-113615000D01*
X118427240Y-113615000D01*
X118406120Y-113593880D01*
X117875688Y-113239457D01*
X117250000Y-113114999D01*
X117249995Y-113115000D01*
X113500000Y-113115000D01*
X112874313Y-113239457D01*
X112343880Y-113593880D01*
X111989457Y-114124313D01*
X111865000Y-114750000D01*
X93396939Y-114750000D01*
X93416133Y-114721275D01*
X93521603Y-114191040D01*
X93416133Y-113660805D01*
X93115779Y-113211294D01*
X92666268Y-112910940D01*
X92656968Y-112909090D01*
X92746677Y-112882539D01*
X93022832Y-112659016D01*
X98340590Y-112659016D01*
X98396271Y-112889611D01*
X98879078Y-113057622D01*
X99389428Y-113028083D01*
X99723729Y-112889611D01*
X99779410Y-112659016D01*
X99060000Y-111939605D01*
X98340590Y-112659016D01*
X93022832Y-112659016D01*
X93168658Y-112540984D01*
X93427810Y-112063943D01*
X93441993Y-111992315D01*
X93319339Y-111778040D01*
X91727000Y-111778040D01*
X91727000Y-111798040D01*
X91473000Y-111798040D01*
X91473000Y-111778040D01*
X89880661Y-111778040D01*
X89758007Y-111992315D01*
X89772190Y-112063943D01*
X90031342Y-112540984D01*
X90453323Y-112882539D01*
X90543032Y-112909090D01*
X90533732Y-112910940D01*
X90084221Y-113211294D01*
X89783867Y-113660805D01*
X89678397Y-114191040D01*
X85117440Y-114191040D01*
X85117440Y-113650000D01*
X85073162Y-113414683D01*
X84934090Y-113198559D01*
X84721890Y-113053569D01*
X84470000Y-113002560D01*
X83170000Y-113002560D01*
X82934683Y-113046838D01*
X82718559Y-113185910D01*
X82573569Y-113398110D01*
X82522560Y-113650000D01*
X73169890Y-113650000D01*
X72952632Y-113125495D01*
X72633877Y-112965728D01*
X71299605Y-114300000D01*
X70940395Y-114300000D01*
X69606123Y-112965728D01*
X69287368Y-113125495D01*
X68977405Y-113916217D01*
X66710000Y-113916217D01*
X66710000Y-112786123D01*
X69785728Y-112786123D01*
X71120000Y-114120395D01*
X72454272Y-112786123D01*
X72294505Y-112467368D01*
X71503783Y-112157405D01*
X70654634Y-112173633D01*
X69945495Y-112467368D01*
X69785728Y-112786123D01*
X66710000Y-112786123D01*
X66710000Y-111399016D01*
X83100590Y-111399016D01*
X83156271Y-111629611D01*
X83639078Y-111797622D01*
X84149428Y-111768083D01*
X84483729Y-111629611D01*
X84495931Y-111579078D01*
X97762378Y-111579078D01*
X97791917Y-112089428D01*
X97930389Y-112423729D01*
X98160984Y-112479410D01*
X98880395Y-111760000D01*
X99239605Y-111760000D01*
X99959016Y-112479410D01*
X100189611Y-112423729D01*
X100357622Y-111940922D01*
X100328083Y-111430572D01*
X100189611Y-111096271D01*
X99959016Y-111040590D01*
X99239605Y-111760000D01*
X98880395Y-111760000D01*
X98160984Y-111040590D01*
X97930389Y-111096271D01*
X97762378Y-111579078D01*
X84495931Y-111579078D01*
X84539410Y-111399016D01*
X83820000Y-110679605D01*
X83100590Y-111399016D01*
X66710000Y-111399016D01*
X66710000Y-109505750D01*
X68985130Y-109505750D01*
X68985130Y-110846179D01*
X69081803Y-111079568D01*
X69260431Y-111258197D01*
X69493820Y-111354870D01*
X70834250Y-111354870D01*
X70993000Y-111196120D01*
X70993000Y-109347000D01*
X71247000Y-109347000D01*
X71247000Y-111196120D01*
X71405750Y-111354870D01*
X72746180Y-111354870D01*
X72979569Y-111258197D01*
X73158197Y-111079568D01*
X73254870Y-110846179D01*
X73254870Y-110319078D01*
X82522378Y-110319078D01*
X82551917Y-110829428D01*
X82690389Y-111163729D01*
X82920984Y-111219410D01*
X83640395Y-110500000D01*
X83999605Y-110500000D01*
X84719016Y-111219410D01*
X84949611Y-111163729D01*
X85117622Y-110680922D01*
X85088083Y-110170572D01*
X84949611Y-109836271D01*
X84719016Y-109780590D01*
X83999605Y-110500000D01*
X83640395Y-110500000D01*
X82920984Y-109780590D01*
X82690389Y-109836271D01*
X82522378Y-110319078D01*
X73254870Y-110319078D01*
X73254870Y-109600984D01*
X83100590Y-109600984D01*
X83820000Y-110320395D01*
X84539410Y-109600984D01*
X84483729Y-109370389D01*
X84000922Y-109202378D01*
X83490572Y-109231917D01*
X83156271Y-109370389D01*
X83100590Y-109600984D01*
X73254870Y-109600984D01*
X73254870Y-109505750D01*
X73096120Y-109347000D01*
X71247000Y-109347000D01*
X70993000Y-109347000D01*
X69143880Y-109347000D01*
X68985130Y-109505750D01*
X66710000Y-109505750D01*
X66710000Y-109111040D01*
X89678397Y-109111040D01*
X89783867Y-109641275D01*
X90084221Y-110090786D01*
X90533732Y-110391140D01*
X90543032Y-110392990D01*
X90453323Y-110419541D01*
X90031342Y-110761096D01*
X89772190Y-111238137D01*
X89758007Y-111309765D01*
X89880661Y-111524040D01*
X91473000Y-111524040D01*
X91473000Y-111504040D01*
X91727000Y-111504040D01*
X91727000Y-111524040D01*
X93319339Y-111524040D01*
X93441993Y-111309765D01*
X93427810Y-111238137D01*
X93168658Y-110761096D01*
X92746677Y-110419541D01*
X92656968Y-110392990D01*
X92666268Y-110391140D01*
X93115779Y-110090786D01*
X93416133Y-109641275D01*
X93521603Y-109111040D01*
X93421941Y-108610000D01*
X97762560Y-108610000D01*
X97762560Y-109910000D01*
X97806838Y-110145317D01*
X97945910Y-110361441D01*
X98158110Y-110506431D01*
X98410000Y-110557440D01*
X98572385Y-110557440D01*
X98396271Y-110630389D01*
X98340590Y-110860984D01*
X99060000Y-111580395D01*
X99779410Y-110860984D01*
X99723729Y-110630389D01*
X99514098Y-110557440D01*
X99710000Y-110557440D01*
X99945317Y-110513162D01*
X100161441Y-110374090D01*
X100306431Y-110161890D01*
X100357440Y-109910000D01*
X100357440Y-108610000D01*
X100313162Y-108374683D01*
X100174090Y-108158559D01*
X99961890Y-108013569D01*
X99710000Y-107962560D01*
X98410000Y-107962560D01*
X98174683Y-108006838D01*
X97958559Y-108145910D01*
X97813569Y-108358110D01*
X97762560Y-108610000D01*
X93421941Y-108610000D01*
X93416133Y-108580805D01*
X93115779Y-108131294D01*
X92666268Y-107830940D01*
X92136033Y-107725470D01*
X91063967Y-107725470D01*
X90533732Y-107830940D01*
X90084221Y-108131294D01*
X89783867Y-108580805D01*
X89678397Y-109111040D01*
X66710000Y-109111040D01*
X66710000Y-107593821D01*
X68985130Y-107593821D01*
X68985130Y-108934250D01*
X69143880Y-109093000D01*
X70993000Y-109093000D01*
X70993000Y-107243880D01*
X71247000Y-107243880D01*
X71247000Y-109093000D01*
X73096120Y-109093000D01*
X73254870Y-108934250D01*
X73254870Y-107593821D01*
X73158197Y-107360432D01*
X72979569Y-107181803D01*
X72746180Y-107085130D01*
X71405750Y-107085130D01*
X71247000Y-107243880D01*
X70993000Y-107243880D01*
X70834250Y-107085130D01*
X69493820Y-107085130D01*
X69260431Y-107181803D01*
X69081803Y-107360432D01*
X68985130Y-107593821D01*
X66710000Y-107593821D01*
X66710000Y-105653877D01*
X69785728Y-105653877D01*
X69945495Y-105972632D01*
X70736217Y-106282595D01*
X71585366Y-106266367D01*
X72294505Y-105972632D01*
X72454272Y-105653877D01*
X71120000Y-104319605D01*
X69785728Y-105653877D01*
X66710000Y-105653877D01*
X66710000Y-103756217D01*
X68977405Y-103756217D01*
X68993633Y-104605366D01*
X69287368Y-105314505D01*
X69606123Y-105474272D01*
X70940395Y-104140000D01*
X71299605Y-104140000D01*
X72633877Y-105474272D01*
X72952632Y-105314505D01*
X73262595Y-104523783D01*
X73246367Y-103674634D01*
X72952632Y-102965495D01*
X72633877Y-102805728D01*
X71299605Y-104140000D01*
X70940395Y-104140000D01*
X69606123Y-102805728D01*
X69287368Y-102965495D01*
X68977405Y-103756217D01*
X66710000Y-103756217D01*
X66710000Y-102626123D01*
X69785728Y-102626123D01*
X71120000Y-103960395D01*
X72454272Y-102626123D01*
X72294505Y-102307368D01*
X71503783Y-101997405D01*
X70654634Y-102013633D01*
X69945495Y-102307368D01*
X69785728Y-102626123D01*
X66710000Y-102626123D01*
X66710000Y-99345750D01*
X68985130Y-99345750D01*
X68985130Y-100686179D01*
X69081803Y-100919568D01*
X69260431Y-101098197D01*
X69493820Y-101194870D01*
X70834250Y-101194870D01*
X70993000Y-101036120D01*
X70993000Y-99187000D01*
X71247000Y-99187000D01*
X71247000Y-101036120D01*
X71405750Y-101194870D01*
X72746180Y-101194870D01*
X72979569Y-101098197D01*
X73158197Y-100919568D01*
X73254870Y-100686179D01*
X73254870Y-99345750D01*
X73096120Y-99187000D01*
X71247000Y-99187000D01*
X70993000Y-99187000D01*
X69143880Y-99187000D01*
X68985130Y-99345750D01*
X66710000Y-99345750D01*
X66710000Y-97433821D01*
X68985130Y-97433821D01*
X68985130Y-98774250D01*
X69143880Y-98933000D01*
X70993000Y-98933000D01*
X70993000Y-97083880D01*
X71247000Y-97083880D01*
X71247000Y-98933000D01*
X73096120Y-98933000D01*
X73254870Y-98774250D01*
X73254870Y-97433821D01*
X73158197Y-97200432D01*
X72979569Y-97021803D01*
X72746180Y-96925130D01*
X71405750Y-96925130D01*
X71247000Y-97083880D01*
X70993000Y-97083880D01*
X70834250Y-96925130D01*
X69493820Y-96925130D01*
X69260431Y-97021803D01*
X69081803Y-97200432D01*
X68985130Y-97433821D01*
X66710000Y-97433821D01*
X66710000Y-90972325D01*
X67614587Y-90972325D01*
X67976916Y-91849229D01*
X68647242Y-92520726D01*
X69523513Y-92884585D01*
X70472325Y-92885413D01*
X71349229Y-92523084D01*
X72010677Y-91862789D01*
X76604760Y-91862789D01*
X76929090Y-92647727D01*
X77529114Y-93248800D01*
X78313485Y-93574499D01*
X79162789Y-93575240D01*
X79947727Y-93250910D01*
X80548800Y-92650886D01*
X80874499Y-91866515D01*
X80875240Y-91017211D01*
X80550910Y-90232273D01*
X80259277Y-89940130D01*
X81672690Y-89940130D01*
X81672690Y-92939870D01*
X81716968Y-93175187D01*
X81856040Y-93391311D01*
X82068240Y-93536301D01*
X82320130Y-93587310D01*
X85319870Y-93587310D01*
X85555187Y-93543032D01*
X85771311Y-93403960D01*
X85916301Y-93191760D01*
X85967310Y-92939870D01*
X85967310Y-91862789D01*
X86764760Y-91862789D01*
X87089090Y-92647727D01*
X87689114Y-93248800D01*
X88473485Y-93574499D01*
X89322789Y-93575240D01*
X90107727Y-93250910D01*
X90708800Y-92650886D01*
X91034499Y-91866515D01*
X91035240Y-91017211D01*
X90710910Y-90232273D01*
X90419277Y-89940130D01*
X91832690Y-89940130D01*
X91832690Y-92939870D01*
X91876968Y-93175187D01*
X92016040Y-93391311D01*
X92228240Y-93536301D01*
X92480130Y-93587310D01*
X95479870Y-93587310D01*
X95715187Y-93543032D01*
X95931311Y-93403960D01*
X96076301Y-93191760D01*
X96127310Y-92939870D01*
X96127310Y-91862789D01*
X96924760Y-91862789D01*
X97249090Y-92647727D01*
X97849114Y-93248800D01*
X98633485Y-93574499D01*
X99482789Y-93575240D01*
X100267727Y-93250910D01*
X100868800Y-92650886D01*
X101194499Y-91866515D01*
X101195240Y-91017211D01*
X100870910Y-90232273D01*
X100579277Y-89940130D01*
X101992690Y-89940130D01*
X101992690Y-92939870D01*
X102036968Y-93175187D01*
X102176040Y-93391311D01*
X102388240Y-93536301D01*
X102640130Y-93587310D01*
X105639870Y-93587310D01*
X105875187Y-93543032D01*
X106091311Y-93403960D01*
X106236301Y-93191760D01*
X106287310Y-92939870D01*
X106287310Y-91862789D01*
X107084760Y-91862789D01*
X107409090Y-92647727D01*
X108009114Y-93248800D01*
X108793485Y-93574499D01*
X109642789Y-93575240D01*
X110427727Y-93250910D01*
X111028800Y-92650886D01*
X111354499Y-91866515D01*
X111355240Y-91017211D01*
X111030910Y-90232273D01*
X110739277Y-89940130D01*
X112152690Y-89940130D01*
X112152690Y-92939870D01*
X112196968Y-93175187D01*
X112336040Y-93391311D01*
X112548240Y-93536301D01*
X112800130Y-93587310D01*
X115799870Y-93587310D01*
X116035187Y-93543032D01*
X116251311Y-93403960D01*
X116396301Y-93191760D01*
X116447310Y-92939870D01*
X116447310Y-91862789D01*
X117244760Y-91862789D01*
X117569090Y-92647727D01*
X118169114Y-93248800D01*
X118953485Y-93574499D01*
X119802789Y-93575240D01*
X120587727Y-93250910D01*
X121188800Y-92650886D01*
X121514499Y-91866515D01*
X121515240Y-91017211D01*
X121190910Y-90232273D01*
X120899277Y-89940130D01*
X122312690Y-89940130D01*
X122312690Y-92939870D01*
X122356968Y-93175187D01*
X122496040Y-93391311D01*
X122708240Y-93536301D01*
X122960130Y-93587310D01*
X125959870Y-93587310D01*
X126195187Y-93543032D01*
X126411311Y-93403960D01*
X126556301Y-93191760D01*
X126607310Y-92939870D01*
X126607310Y-91862789D01*
X127404760Y-91862789D01*
X127729090Y-92647727D01*
X128329114Y-93248800D01*
X129113485Y-93574499D01*
X129962789Y-93575240D01*
X130747727Y-93250910D01*
X131348800Y-92650886D01*
X131674499Y-91866515D01*
X131675240Y-91017211D01*
X131350910Y-90232273D01*
X131059277Y-89940130D01*
X132472690Y-89940130D01*
X132472690Y-92939870D01*
X132516968Y-93175187D01*
X132656040Y-93391311D01*
X132868240Y-93536301D01*
X133120130Y-93587310D01*
X136119870Y-93587310D01*
X136355187Y-93543032D01*
X136571311Y-93403960D01*
X136716301Y-93191760D01*
X136767310Y-92939870D01*
X136767310Y-91862789D01*
X137564760Y-91862789D01*
X137889090Y-92647727D01*
X138489114Y-93248800D01*
X139273485Y-93574499D01*
X140122789Y-93575240D01*
X140907727Y-93250910D01*
X141508800Y-92650886D01*
X141834499Y-91866515D01*
X141835240Y-91017211D01*
X141510910Y-90232273D01*
X141219277Y-89940130D01*
X142632690Y-89940130D01*
X142632690Y-92939870D01*
X142676968Y-93175187D01*
X142816040Y-93391311D01*
X143028240Y-93536301D01*
X143280130Y-93587310D01*
X146279870Y-93587310D01*
X146515187Y-93543032D01*
X146731311Y-93403960D01*
X146876301Y-93191760D01*
X146927310Y-92939870D01*
X146927310Y-91862789D01*
X147724760Y-91862789D01*
X148049090Y-92647727D01*
X148649114Y-93248800D01*
X149433485Y-93574499D01*
X150282789Y-93575240D01*
X151067727Y-93250910D01*
X151668800Y-92650886D01*
X151994499Y-91866515D01*
X151995240Y-91017211D01*
X151670910Y-90232273D01*
X151379277Y-89940130D01*
X152792690Y-89940130D01*
X152792690Y-92939870D01*
X152836968Y-93175187D01*
X152976040Y-93391311D01*
X153188240Y-93536301D01*
X153440130Y-93587310D01*
X156439870Y-93587310D01*
X156675187Y-93543032D01*
X156891311Y-93403960D01*
X157036301Y-93191760D01*
X157087310Y-92939870D01*
X157087310Y-90972325D01*
X199614587Y-90972325D01*
X199976916Y-91849229D01*
X200647242Y-92520726D01*
X201523513Y-92884585D01*
X202472325Y-92885413D01*
X203349229Y-92523084D01*
X204020726Y-91852758D01*
X204384585Y-90976487D01*
X204385413Y-90027675D01*
X204023084Y-89150771D01*
X203352758Y-88479274D01*
X202476487Y-88115415D01*
X201527675Y-88114587D01*
X200650771Y-88476916D01*
X199979274Y-89147242D01*
X199615415Y-90023513D01*
X199614587Y-90972325D01*
X157087310Y-90972325D01*
X157087310Y-89940130D01*
X157043032Y-89704813D01*
X156903960Y-89488689D01*
X156691760Y-89343699D01*
X156439870Y-89292690D01*
X153440130Y-89292690D01*
X153204813Y-89336968D01*
X152988689Y-89476040D01*
X152843699Y-89688240D01*
X152792690Y-89940130D01*
X151379277Y-89940130D01*
X151070886Y-89631200D01*
X150286515Y-89305501D01*
X149437211Y-89304760D01*
X148652273Y-89629090D01*
X148051200Y-90229114D01*
X147725501Y-91013485D01*
X147724760Y-91862789D01*
X146927310Y-91862789D01*
X146927310Y-89940130D01*
X146883032Y-89704813D01*
X146743960Y-89488689D01*
X146531760Y-89343699D01*
X146279870Y-89292690D01*
X143280130Y-89292690D01*
X143044813Y-89336968D01*
X142828689Y-89476040D01*
X142683699Y-89688240D01*
X142632690Y-89940130D01*
X141219277Y-89940130D01*
X140910886Y-89631200D01*
X140126515Y-89305501D01*
X139277211Y-89304760D01*
X138492273Y-89629090D01*
X137891200Y-90229114D01*
X137565501Y-91013485D01*
X137564760Y-91862789D01*
X136767310Y-91862789D01*
X136767310Y-89940130D01*
X136723032Y-89704813D01*
X136583960Y-89488689D01*
X136371760Y-89343699D01*
X136119870Y-89292690D01*
X133120130Y-89292690D01*
X132884813Y-89336968D01*
X132668689Y-89476040D01*
X132523699Y-89688240D01*
X132472690Y-89940130D01*
X131059277Y-89940130D01*
X130750886Y-89631200D01*
X129966515Y-89305501D01*
X129117211Y-89304760D01*
X128332273Y-89629090D01*
X127731200Y-90229114D01*
X127405501Y-91013485D01*
X127404760Y-91862789D01*
X126607310Y-91862789D01*
X126607310Y-89940130D01*
X126563032Y-89704813D01*
X126423960Y-89488689D01*
X126211760Y-89343699D01*
X125959870Y-89292690D01*
X122960130Y-89292690D01*
X122724813Y-89336968D01*
X122508689Y-89476040D01*
X122363699Y-89688240D01*
X122312690Y-89940130D01*
X120899277Y-89940130D01*
X120590886Y-89631200D01*
X119806515Y-89305501D01*
X118957211Y-89304760D01*
X118172273Y-89629090D01*
X117571200Y-90229114D01*
X117245501Y-91013485D01*
X117244760Y-91862789D01*
X116447310Y-91862789D01*
X116447310Y-89940130D01*
X116403032Y-89704813D01*
X116263960Y-89488689D01*
X116051760Y-89343699D01*
X115799870Y-89292690D01*
X112800130Y-89292690D01*
X112564813Y-89336968D01*
X112348689Y-89476040D01*
X112203699Y-89688240D01*
X112152690Y-89940130D01*
X110739277Y-89940130D01*
X110430886Y-89631200D01*
X109646515Y-89305501D01*
X108797211Y-89304760D01*
X108012273Y-89629090D01*
X107411200Y-90229114D01*
X107085501Y-91013485D01*
X107084760Y-91862789D01*
X106287310Y-91862789D01*
X106287310Y-89940130D01*
X106243032Y-89704813D01*
X106103960Y-89488689D01*
X105891760Y-89343699D01*
X105639870Y-89292690D01*
X102640130Y-89292690D01*
X102404813Y-89336968D01*
X102188689Y-89476040D01*
X102043699Y-89688240D01*
X101992690Y-89940130D01*
X100579277Y-89940130D01*
X100270886Y-89631200D01*
X99486515Y-89305501D01*
X98637211Y-89304760D01*
X97852273Y-89629090D01*
X97251200Y-90229114D01*
X96925501Y-91013485D01*
X96924760Y-91862789D01*
X96127310Y-91862789D01*
X96127310Y-89940130D01*
X96083032Y-89704813D01*
X95943960Y-89488689D01*
X95731760Y-89343699D01*
X95479870Y-89292690D01*
X92480130Y-89292690D01*
X92244813Y-89336968D01*
X92028689Y-89476040D01*
X91883699Y-89688240D01*
X91832690Y-89940130D01*
X90419277Y-89940130D01*
X90110886Y-89631200D01*
X89326515Y-89305501D01*
X88477211Y-89304760D01*
X87692273Y-89629090D01*
X87091200Y-90229114D01*
X86765501Y-91013485D01*
X86764760Y-91862789D01*
X85967310Y-91862789D01*
X85967310Y-89940130D01*
X85923032Y-89704813D01*
X85783960Y-89488689D01*
X85571760Y-89343699D01*
X85319870Y-89292690D01*
X82320130Y-89292690D01*
X82084813Y-89336968D01*
X81868689Y-89476040D01*
X81723699Y-89688240D01*
X81672690Y-89940130D01*
X80259277Y-89940130D01*
X79950886Y-89631200D01*
X79166515Y-89305501D01*
X78317211Y-89304760D01*
X77532273Y-89629090D01*
X76931200Y-90229114D01*
X76605501Y-91013485D01*
X76604760Y-91862789D01*
X72010677Y-91862789D01*
X72020726Y-91852758D01*
X72384585Y-90976487D01*
X72385413Y-90027675D01*
X72023084Y-89150771D01*
X71352758Y-88479274D01*
X70476487Y-88115415D01*
X69527675Y-88114587D01*
X68650771Y-88476916D01*
X67979274Y-89147242D01*
X67615415Y-90023513D01*
X67614587Y-90972325D01*
X66710000Y-90972325D01*
X66710000Y-87210000D01*
X205290000Y-87210000D01*
X205290000Y-135790000D01*
M02*
