M48
;DRILL file {KiCad (2015-09-30 BZR 6232)-product} date Fri 09 Oct 2015 07:53:03 AM EEST
;FORMAT={-:-/ absolute / metric / decimal}
FMAT,2
METRIC,TZ
T1C0.400
T2C0.800
T3C0.998
T4C1.001
T5C1.250
T6C3.500
%
G90
G05
M71
T1
X84.5Y-127.
X88.75Y-95.5
X93.75Y-127.5
X98.5Y-94.75
X104.5Y-128.
X111.5Y-97.
X113.5Y-114.75
X114.75Y-128.5
X120.Y-97.
X121.5Y-119.
X122.Y-122.25
X122.428Y-116.078
X123.698Y-107.584
X124.365Y-114.56
X124.46Y-108.458
X124.46Y-109.474
X125.25Y-95.25
X126.25Y-103.75
X126.5Y-130.
X127.25Y-102.75
X128.016Y-116.078
X128.016Y-116.84
X128.524Y-113.03
X128.75Y-95.25
X128.75Y-114.5
X128.778Y-112.268
X129.286Y-113.03
X135.Y-128.25
X135.75Y-116.75
X137.Y-99.
X138.5Y-95.
X142.75Y-105.
X144.75Y-95.5
X146.5Y-114.25
X146.75Y-101.
X147.Y-103.5
X147.25Y-128.25
X151.892Y-100.838
X152.908Y-97.79
X152.908Y-102.87
X152.908Y-105.41
X153.5Y-107.
X174.29Y-134.75
X182.Y-132.5
X183.5Y-131.5
X184.Y-127.5
X184.75Y-126.5
T2
X83.82Y-110.5
X83.82Y-114.3
X99.06Y-109.26
X99.06Y-111.76
T3
X186.8Y-116.84
X186.8Y-119.38
X186.8Y-121.92
X186.8Y-124.46
X186.8Y-127.
X186.8Y-129.54
X186.8Y-132.08
T4
X91.6Y-109.111
X91.6Y-111.651
X91.6Y-114.191
X133.35Y-102.87
X133.35Y-105.41
X133.35Y-107.95
X133.35Y-110.49
X133.35Y-113.03
X133.35Y-115.57
X138.43Y-102.87
X138.43Y-105.41
X138.43Y-107.95
X138.43Y-110.49
X138.43Y-113.03
X138.43Y-115.57
X163.5Y-96.5
X163.5Y-99.04
X163.5Y-101.58
X163.5Y-104.12
X163.5Y-106.66
X163.5Y-109.2
X163.5Y-111.74
X163.5Y-114.28
X163.5Y-116.82
X163.5Y-119.36
X163.5Y-121.9
X163.5Y-124.44
X163.5Y-126.98
X163.5Y-129.52
X163.5Y-132.06
X171.56Y-96.52
X171.56Y-99.06
X171.56Y-101.6
X171.56Y-104.14
X171.56Y-106.68
X171.56Y-109.22
X171.56Y-111.76
X171.56Y-114.3
X171.56Y-116.84
X171.56Y-119.38
X171.56Y-121.92
X171.56Y-124.46
X171.56Y-127.
X171.56Y-129.54
X171.56Y-132.08
X186.8Y-96.52
X186.8Y-99.06
X186.8Y-101.6
X186.8Y-104.14
X186.8Y-106.68
X186.8Y-109.22
X186.8Y-111.76
X186.8Y-114.3
X193.25Y-96.47
X193.25Y-99.01
X193.25Y-101.55
X193.25Y-104.09
X193.25Y-106.63
X193.25Y-109.17
X193.25Y-111.71
X193.25Y-114.25
X193.25Y-116.79
X193.25Y-119.33
X193.25Y-121.87
X193.25Y-124.41
X193.25Y-126.95
X193.25Y-129.49
X193.25Y-132.03
X200.73Y-122.
X203.27Y-122.
T5
X71.12Y-99.06
X71.12Y-104.14
X71.12Y-109.22
X71.12Y-114.3
X71.12Y-119.38
X71.12Y-124.46
X78.74Y-91.44
X78.74Y-131.507
X83.82Y-91.44
X83.82Y-131.507
X88.9Y-91.44
X88.9Y-131.507
X93.98Y-91.44
X93.98Y-131.507
X99.06Y-91.44
X99.06Y-131.58
X104.14Y-91.44
X104.14Y-131.58
X109.22Y-91.44
X109.22Y-131.58
X114.3Y-91.44
X114.3Y-131.58
X119.38Y-91.44
X119.38Y-131.58
X124.46Y-91.44
X124.46Y-131.58
X129.54Y-91.44
X129.54Y-131.58
X134.62Y-91.44
X134.62Y-131.58
X139.7Y-91.44
X139.7Y-131.58
X144.78Y-91.44
X144.78Y-131.58
X149.86Y-91.44
X149.86Y-131.58
X154.94Y-91.44
X154.94Y-131.58
X201.Y-106.92
X201.Y-112.
X201.Y-117.08
T6
X70.Y-90.5
X70.Y-132.5
X202.Y-90.5
X202.Y-132.5
T0
M30
