G04 #@! TF.FileFunction,Copper,L1,Top,Signal*
%FSLAX46Y46*%
G04 Gerber Fmt 4.6, Leading zero omitted, Abs format (unit mm)*
G04 Created by KiCad (PCBNEW (2015-09-30 BZR 6232)-product) date Fri 09 Oct 2015 07:53:00 AM EEST*
%MOMM*%
G01*
G04 APERTURE LIST*
%ADD10C,0.100000*%
%ADD11O,2.199640X1.524000*%
%ADD12O,2.197100X1.524000*%
%ADD13R,2.999740X2.999740*%
%ADD14C,2.999740*%
%ADD15O,2.499360X1.501140*%
%ADD16R,1.000760X0.899160*%
%ADD17R,2.199640X1.524000*%
%ADD18R,0.899160X1.000760*%
%ADD19R,0.300000X1.600000*%
%ADD20R,6.170000X2.400000*%
%ADD21R,1.998980X0.599440*%
%ADD22R,1.300000X1.300000*%
%ADD23C,1.300000*%
%ADD24R,1.524000X2.199640*%
%ADD25O,1.524000X2.199640*%
%ADD26C,0.600000*%
%ADD27C,1.000000*%
%ADD28C,2.000000*%
%ADD29C,0.300000*%
%ADD30C,0.500000*%
%ADD31C,0.250000*%
%ADD32C,0.254000*%
G04 APERTURE END LIST*
D10*
D11*
X171560000Y-132080000D03*
X171560000Y-129540000D03*
X171560000Y-127000000D03*
X171560000Y-124460000D03*
X171560000Y-121920000D03*
X171560000Y-119380000D03*
X171560000Y-116840000D03*
X171560000Y-114300000D03*
X171560000Y-111760000D03*
X171560000Y-109220000D03*
X171560000Y-106680000D03*
X171560000Y-104140000D03*
X171560000Y-101600000D03*
X171560000Y-99060000D03*
X171560000Y-96520000D03*
X186800000Y-96520000D03*
X186800000Y-99060000D03*
X186800000Y-101600000D03*
X186800000Y-104140000D03*
D12*
X186800000Y-106680000D03*
X186800000Y-109220000D03*
X186800000Y-111760000D03*
X186800000Y-114300000D03*
X186800000Y-116840000D03*
X186800000Y-119380000D03*
X186800000Y-121920000D03*
X186800000Y-124460000D03*
X186800000Y-127000000D03*
X186800000Y-129540000D03*
X186800000Y-132080000D03*
D13*
X71120000Y-119380000D03*
D14*
X71120000Y-124460000D03*
D13*
X71120000Y-109220000D03*
D14*
X71120000Y-114300000D03*
D15*
X91600000Y-111651040D03*
X91600000Y-114191040D03*
X91600000Y-109111040D03*
D16*
X127250000Y-114501840D03*
X127250000Y-112998160D03*
X89350000Y-113652880D03*
X89350000Y-112149200D03*
D13*
X154940000Y-91440000D03*
D14*
X149860000Y-91440000D03*
D13*
X144780000Y-91440000D03*
D14*
X139700000Y-91440000D03*
D13*
X134620000Y-91440000D03*
D14*
X129540000Y-91440000D03*
D13*
X124460000Y-91440000D03*
D14*
X119380000Y-91440000D03*
D13*
X114300000Y-91440000D03*
D14*
X109220000Y-91440000D03*
D13*
X104140000Y-91440000D03*
D14*
X99060000Y-91440000D03*
D13*
X93980000Y-91440000D03*
D14*
X88900000Y-91440000D03*
D13*
X83820000Y-91440000D03*
D14*
X78740000Y-91440000D03*
D13*
X78740000Y-131506596D03*
D14*
X83820000Y-131506596D03*
D13*
X88900000Y-131506596D03*
D14*
X93980000Y-131506596D03*
D13*
X99060000Y-131580000D03*
D14*
X104140000Y-131580000D03*
D13*
X109220000Y-131580000D03*
D14*
X114300000Y-131580000D03*
D13*
X119380000Y-131580000D03*
D14*
X124460000Y-131580000D03*
D13*
X129540000Y-131580000D03*
D14*
X134620000Y-131580000D03*
D13*
X139700000Y-131580000D03*
D14*
X144780000Y-131580000D03*
D13*
X149860000Y-131580000D03*
D14*
X154940000Y-131580000D03*
D17*
X133350000Y-102870000D03*
D11*
X133350000Y-105410000D03*
X133350000Y-107950000D03*
X133350000Y-110490000D03*
X133350000Y-113030000D03*
X133350000Y-115570000D03*
D17*
X138430000Y-102870000D03*
D11*
X138430000Y-105410000D03*
X138430000Y-107950000D03*
X138430000Y-110490000D03*
X138430000Y-113030000D03*
X138430000Y-115570000D03*
D13*
X71120000Y-99060000D03*
D14*
X71120000Y-104140000D03*
D18*
X111008160Y-93980000D03*
X112511840Y-93980000D03*
X151648160Y-93980000D03*
X153151840Y-93980000D03*
X141488160Y-93980000D03*
X142991840Y-93980000D03*
X131328160Y-93980000D03*
X132831840Y-93980000D03*
X121168160Y-93980000D03*
X122671840Y-93980000D03*
X100848160Y-93980000D03*
X102351840Y-93980000D03*
X90688160Y-93980000D03*
X92191840Y-93980000D03*
X80528160Y-93980000D03*
X82031840Y-93980000D03*
X82031840Y-128966596D03*
X80528160Y-128966596D03*
X92191840Y-129040000D03*
X90688160Y-129040000D03*
X102351840Y-129040000D03*
X100848160Y-129040000D03*
X112511840Y-129040000D03*
X111008160Y-129040000D03*
X122671840Y-129040000D03*
X121168160Y-129040000D03*
X132831840Y-129040000D03*
X131328160Y-129040000D03*
X142991840Y-129040000D03*
X141488160Y-129040000D03*
X153151840Y-129040000D03*
X151648160Y-129040000D03*
X126251840Y-102750000D03*
X124748160Y-102750000D03*
X125498160Y-116250000D03*
X127001840Y-116250000D03*
D16*
X125500000Y-114501840D03*
X125500000Y-112998160D03*
D19*
X115155000Y-114560000D03*
X115805000Y-114560000D03*
X116455000Y-114560000D03*
X117105000Y-114560000D03*
X117755000Y-114560000D03*
X118405000Y-114560000D03*
X119055000Y-114560000D03*
X119705000Y-114560000D03*
X120355000Y-114560000D03*
X121005000Y-114560000D03*
X121655000Y-114560000D03*
X122305000Y-114560000D03*
X122955000Y-114560000D03*
X123605000Y-114560000D03*
X123605000Y-108960000D03*
X122955000Y-108960000D03*
X122305000Y-108960000D03*
X121655000Y-108960000D03*
X121005000Y-108960000D03*
X120355000Y-108960000D03*
X119705000Y-108960000D03*
X119055000Y-108960000D03*
X118405000Y-108960000D03*
X117755000Y-108960000D03*
X117105000Y-108960000D03*
X116455000Y-108960000D03*
X115805000Y-108960000D03*
X115155000Y-108960000D03*
D20*
X119380000Y-111760000D03*
D21*
X176386000Y-127635000D03*
X176386000Y-128905000D03*
X176386000Y-130175000D03*
X176386000Y-131445000D03*
X181974000Y-131445000D03*
X181974000Y-130175000D03*
X181974000Y-128905000D03*
X181974000Y-127635000D03*
D16*
X93850000Y-109649200D03*
X93850000Y-111152880D03*
D18*
X182038160Y-126250000D03*
X183541840Y-126250000D03*
D22*
X83820000Y-114300000D03*
D23*
X83820000Y-110500000D03*
X99060000Y-111760000D03*
D22*
X99060000Y-109260000D03*
D24*
X203270000Y-122000000D03*
D25*
X200730000Y-122000000D03*
D16*
X204000000Y-117998160D03*
X204000000Y-119501840D03*
D13*
X201000000Y-117080000D03*
D14*
X201000000Y-112000000D03*
X201000000Y-106920000D03*
D17*
X163500000Y-96500000D03*
D11*
X163500000Y-99040000D03*
X163500000Y-101580000D03*
X163500000Y-104120000D03*
X163500000Y-106660000D03*
X163500000Y-109200000D03*
X163500000Y-111740000D03*
X163500000Y-114280000D03*
X163500000Y-116820000D03*
X163500000Y-119360000D03*
X163500000Y-121900000D03*
X163500000Y-124440000D03*
X163500000Y-126980000D03*
X163500000Y-129520000D03*
X163500000Y-132060000D03*
D17*
X193250000Y-132030000D03*
D11*
X193250000Y-129490000D03*
X193250000Y-126950000D03*
X193250000Y-124410000D03*
X193250000Y-121870000D03*
X193250000Y-119330000D03*
X193250000Y-116790000D03*
X193250000Y-114250000D03*
X193250000Y-111710000D03*
X193250000Y-109170000D03*
X193250000Y-106630000D03*
X193250000Y-104090000D03*
X193250000Y-101550000D03*
X193250000Y-99010000D03*
X193250000Y-96470000D03*
D26*
X121500000Y-119000000D03*
X174290000Y-134750000D03*
X128750000Y-114500000D03*
X113500000Y-114750000D03*
X124364806Y-114560000D03*
X122428000Y-116078000D03*
X182000000Y-132500000D03*
X183500000Y-131500000D03*
X147250000Y-128250000D03*
X135000000Y-128250000D03*
X126500000Y-130000000D03*
X114750000Y-128500000D03*
X104500000Y-128000000D03*
X93750000Y-127500000D03*
X84500000Y-127000000D03*
X98500000Y-94750000D03*
X88750000Y-95500000D03*
X111500000Y-97000000D03*
X120000000Y-97000000D03*
X125250000Y-95250000D03*
X128750000Y-95250000D03*
X138500000Y-95000000D03*
X144750000Y-95500000D03*
X146750000Y-101000000D03*
X142750000Y-105000000D03*
X146500000Y-114250000D03*
X122000000Y-122250000D03*
X126250000Y-103750000D03*
X127250000Y-102750000D03*
X184000000Y-127500000D03*
X184750000Y-126500000D03*
X128016000Y-116840000D03*
X128016000Y-116078000D03*
X128778000Y-112268000D03*
X129286000Y-113030000D03*
X128524000Y-113030000D03*
X123698000Y-107584010D03*
X124460000Y-108458000D03*
X124460000Y-109474000D03*
X147000000Y-103500000D03*
X153500000Y-107000000D03*
X152908000Y-102870000D03*
X152908000Y-105410000D03*
X137000000Y-98999994D03*
X151891994Y-100838000D03*
X152908000Y-97790000D03*
X135750000Y-116750000D03*
D27*
X193250000Y-124410000D02*
X186850000Y-124410000D01*
X186850000Y-124410000D02*
X186800000Y-124460000D01*
D28*
X174290000Y-134750000D02*
X159577479Y-134750000D01*
X159577479Y-134750000D02*
X158750000Y-133922521D01*
X158750000Y-133922521D02*
X158750000Y-129750000D01*
X158750000Y-129750000D02*
X153500000Y-124500000D01*
X153500000Y-124500000D02*
X127000000Y-124500000D01*
X127000000Y-124500000D02*
X121799999Y-119299999D01*
X121799999Y-119299999D02*
X121500000Y-119000000D01*
D27*
X128750000Y-114500000D02*
X127251840Y-114500000D01*
X127251840Y-114500000D02*
X127250000Y-114501840D01*
D28*
X99060000Y-109260000D02*
X108010000Y-109260000D01*
X108010000Y-109260000D02*
X113500000Y-114750000D01*
D27*
X133350000Y-102870000D02*
X138430000Y-102870000D01*
D29*
X123605000Y-114560000D02*
X124364806Y-114560000D01*
X124364806Y-114560000D02*
X125441840Y-114560000D01*
X122305000Y-114560000D02*
X122305000Y-115955000D01*
X122305000Y-115955000D02*
X122428000Y-116078000D01*
D28*
X91600000Y-109111040D02*
X98911040Y-109111040D01*
X98911040Y-109111040D02*
X99060000Y-109260000D01*
D27*
X91600000Y-109111040D02*
X93311840Y-109111040D01*
X93311840Y-109111040D02*
X93850000Y-109649200D01*
X186800000Y-124460000D02*
X182327780Y-124460000D01*
X182038160Y-124749620D02*
X182038160Y-126250000D01*
X182327780Y-124460000D02*
X182038160Y-124749620D01*
D30*
X181974000Y-127635000D02*
X181974000Y-126314160D01*
X181974000Y-126314160D02*
X182038160Y-126250000D01*
D27*
X125500000Y-114501840D02*
X127250000Y-114501840D01*
D29*
X125441840Y-114560000D02*
X125500000Y-114501840D01*
D30*
X181974000Y-131445000D02*
X181974000Y-132474000D01*
X181974000Y-132474000D02*
X182000000Y-132500000D01*
X181974000Y-131445000D02*
X183445000Y-131445000D01*
X183445000Y-131445000D02*
X183500000Y-131500000D01*
D27*
X193250000Y-129490000D02*
X186850000Y-129490000D01*
X186850000Y-129490000D02*
X186800000Y-129540000D01*
X171560000Y-124460000D02*
X163520000Y-124460000D01*
X163520000Y-124460000D02*
X163500000Y-124440000D01*
D29*
X126250000Y-103750000D02*
X126250000Y-102751840D01*
X126250000Y-102751840D02*
X126251840Y-102750000D01*
X126251840Y-102750000D02*
X127250000Y-102750000D01*
X184000000Y-127500000D02*
X184000000Y-126708160D01*
X184000000Y-126708160D02*
X183541840Y-126250000D01*
X183541840Y-126250000D02*
X184500000Y-126250000D01*
X184500000Y-126250000D02*
X184750000Y-126500000D01*
X127001840Y-116250000D02*
X127844000Y-116250000D01*
X127844000Y-116250000D02*
X128016000Y-116078000D01*
X128524000Y-113030000D02*
X129286000Y-113030000D01*
X124460000Y-108458000D02*
X124460000Y-108346010D01*
X124460000Y-108346010D02*
X123698000Y-107584010D01*
X123605000Y-108960000D02*
X123946000Y-108960000D01*
X123946000Y-108960000D02*
X124460000Y-109474000D01*
D28*
X79808864Y-88250000D02*
X88986606Y-88250000D01*
X88986606Y-88250000D02*
X99494759Y-88250000D01*
X88900000Y-91440000D02*
X88900000Y-89318864D01*
X88900000Y-89318864D02*
X88986606Y-89232258D01*
X88986606Y-89232258D02*
X88986606Y-88250000D01*
X99494759Y-88250000D02*
X109272408Y-88250000D01*
X99060000Y-91440000D02*
X99060000Y-89318864D01*
X99060000Y-89318864D02*
X99494759Y-88884105D01*
X99494759Y-88884105D02*
X99494759Y-88250000D01*
X109272408Y-88250000D02*
X119430704Y-88250000D01*
X109220000Y-91440000D02*
X109220000Y-89318864D01*
X109220000Y-89318864D02*
X109272408Y-89266456D01*
X109272408Y-89266456D02*
X109272408Y-88250000D01*
X119430704Y-88250000D02*
X129613656Y-88250000D01*
X119430704Y-89268160D02*
X119430704Y-88250000D01*
X119380000Y-91440000D02*
X119380000Y-89318864D01*
X119380000Y-89318864D02*
X119430704Y-89268160D01*
X129540000Y-91440000D02*
X129540000Y-88323656D01*
X129613656Y-88250000D02*
X139826195Y-88250000D01*
X129540000Y-88323656D02*
X129613656Y-88250000D01*
X139700000Y-88376195D02*
X139826195Y-88250000D01*
X139826195Y-88250000D02*
X149500000Y-88250000D01*
X139700000Y-91440000D02*
X139700000Y-88376195D01*
X78740000Y-91440000D02*
X78740000Y-89318864D01*
X78740000Y-89318864D02*
X79808864Y-88250000D01*
X149500000Y-88250000D02*
X149860000Y-88610000D01*
X149860000Y-88610000D02*
X149860000Y-91440000D01*
X76823662Y-134750000D02*
X83853442Y-134750000D01*
X83853442Y-134750000D02*
X94119377Y-134750000D01*
X83820000Y-131506596D02*
X83820000Y-133627732D01*
X83820000Y-133627732D02*
X83853442Y-133661174D01*
X83853442Y-133661174D02*
X83853442Y-134750000D01*
X93980000Y-134610623D02*
X94119377Y-134750000D01*
X94119377Y-134750000D02*
X104124944Y-134750000D01*
X93980000Y-131506596D02*
X93980000Y-134610623D01*
X104124944Y-134750000D02*
X114315845Y-134750000D01*
X104140000Y-131580000D02*
X104140000Y-133701136D01*
X104140000Y-133701136D02*
X104124944Y-133716192D01*
X104124944Y-133716192D02*
X104124944Y-134750000D01*
X114315845Y-134750000D02*
X124447348Y-134750000D01*
X114300000Y-131580000D02*
X114300000Y-133701136D01*
X114300000Y-133701136D02*
X114315845Y-133716981D01*
X114315845Y-133716981D02*
X114315845Y-134750000D01*
X124447348Y-134750000D02*
X134599949Y-134750000D01*
X124460000Y-131580000D02*
X124460000Y-134737348D01*
X124460000Y-134737348D02*
X124447348Y-134750000D01*
X134599949Y-134750000D02*
X144574233Y-134750000D01*
X134620000Y-131580000D02*
X134620000Y-133701136D01*
X134620000Y-133701136D02*
X134599949Y-133721187D01*
X134599949Y-133721187D02*
X134599949Y-134750000D01*
X144574233Y-134750000D02*
X153000000Y-134750000D01*
X144780000Y-131580000D02*
X144780000Y-133701136D01*
X144780000Y-133701136D02*
X144574233Y-133906903D01*
X144574233Y-133906903D02*
X144574233Y-134750000D01*
X71120000Y-124460000D02*
X75000000Y-128340000D01*
X75000000Y-128340000D02*
X75000000Y-132926338D01*
X75000000Y-132926338D02*
X76823662Y-134750000D01*
X153000000Y-134750000D02*
X154940000Y-132810000D01*
X154940000Y-132810000D02*
X154940000Y-131580000D01*
X67500000Y-123380000D02*
X68580000Y-124460000D01*
X68580000Y-124460000D02*
X71120000Y-124460000D01*
X78540000Y-124460000D02*
X71120000Y-124460000D01*
X78540000Y-124460000D02*
X83820000Y-119180000D01*
X69000000Y-95250000D02*
X67500000Y-96750000D01*
X67500000Y-96750000D02*
X67500000Y-123380000D01*
X72808864Y-95250000D02*
X69000000Y-95250000D01*
X76618864Y-91440000D02*
X72808864Y-95250000D01*
X83820000Y-119180000D02*
X83820000Y-114300000D01*
X78740000Y-91440000D02*
X76618864Y-91440000D01*
X83820000Y-114300000D02*
X91491040Y-114300000D01*
X91491040Y-114300000D02*
X91600000Y-114191040D01*
D27*
X89350000Y-113652880D02*
X91061840Y-113652880D01*
X91061840Y-113652880D02*
X91600000Y-114191040D01*
X82031840Y-128966596D02*
X82031840Y-129718436D01*
X82031840Y-129718436D02*
X83820000Y-131506596D01*
X92191840Y-129040000D02*
X92191840Y-129718436D01*
X92191840Y-129718436D02*
X93980000Y-131506596D01*
X102351840Y-129040000D02*
X102351840Y-129791840D01*
X102351840Y-129791840D02*
X104140000Y-131580000D01*
X112511840Y-129040000D02*
X112511840Y-129791840D01*
X112511840Y-129791840D02*
X114300000Y-131580000D01*
X122671840Y-129040000D02*
X122671840Y-129791840D01*
X122671840Y-129791840D02*
X124460000Y-131580000D01*
X132831840Y-129040000D02*
X132831840Y-129791840D01*
X132831840Y-129791840D02*
X134620000Y-131580000D01*
X142991840Y-129040000D02*
X142991840Y-129791840D01*
X142991840Y-129791840D02*
X144780000Y-131580000D01*
X153151840Y-129040000D02*
X153151840Y-129791840D01*
X153151840Y-129791840D02*
X154940000Y-131580000D01*
X151648160Y-93980000D02*
X151648160Y-93228160D01*
X151648160Y-93228160D02*
X149860000Y-91440000D01*
X141488160Y-93980000D02*
X141488160Y-93228160D01*
X141488160Y-93228160D02*
X139700000Y-91440000D01*
X131328160Y-93980000D02*
X131328160Y-93228160D01*
X131328160Y-93228160D02*
X129540000Y-91440000D01*
X121168160Y-93980000D02*
X121168160Y-93228160D01*
X121168160Y-93228160D02*
X119380000Y-91440000D01*
X111008160Y-93980000D02*
X111008160Y-93228160D01*
X111008160Y-93228160D02*
X109220000Y-91440000D01*
X100848160Y-93980000D02*
X100848160Y-93228160D01*
X100848160Y-93228160D02*
X99060000Y-91440000D01*
X90688160Y-93980000D02*
X90688160Y-93228160D01*
X90688160Y-93228160D02*
X88900000Y-91440000D01*
X80528160Y-93980000D02*
X80528160Y-93228160D01*
X80528160Y-93228160D02*
X78740000Y-91440000D01*
X163500000Y-132060000D02*
X171540000Y-132060000D01*
X171540000Y-132060000D02*
X171560000Y-132080000D01*
X176386000Y-131445000D02*
X172195000Y-131445000D01*
X172195000Y-131445000D02*
X171560000Y-132080000D01*
X171560000Y-129540000D02*
X163520000Y-129540000D01*
X163520000Y-129540000D02*
X163500000Y-129520000D01*
X176386000Y-127635000D02*
X174905000Y-127635000D01*
X174905000Y-127635000D02*
X173000000Y-129540000D01*
X173000000Y-129540000D02*
X171560000Y-129540000D01*
X163500000Y-126980000D02*
X171540000Y-126980000D01*
X171540000Y-126980000D02*
X171560000Y-127000000D01*
X163500000Y-121900000D02*
X171540000Y-121900000D01*
X171540000Y-121900000D02*
X171560000Y-121920000D01*
X138430000Y-115570000D02*
X156070000Y-115570000D01*
X156070000Y-115570000D02*
X159880000Y-119380000D01*
X159880000Y-119380000D02*
X162560000Y-119380000D01*
X162560000Y-119380000D02*
X171560000Y-119380000D01*
X133350000Y-115570000D02*
X138430000Y-115570000D01*
D29*
X133350000Y-115570000D02*
X133350000Y-116632000D01*
X133350000Y-116632000D02*
X132380000Y-117602000D01*
X121655000Y-116267002D02*
X121655000Y-115660000D01*
X132380000Y-117602000D02*
X122989998Y-117602000D01*
X122989998Y-117602000D02*
X121655000Y-116267002D01*
X121655000Y-115660000D02*
X121655000Y-114560000D01*
D27*
X171560000Y-116840000D02*
X163520000Y-116840000D01*
X163520000Y-116840000D02*
X163500000Y-116820000D01*
X163500000Y-114280000D02*
X171540000Y-114280000D01*
X171540000Y-114280000D02*
X171560000Y-114300000D01*
X171560000Y-111760000D02*
X163520000Y-111760000D01*
X163520000Y-111760000D02*
X163500000Y-111740000D01*
X163500000Y-109200000D02*
X171540000Y-109200000D01*
X171540000Y-109200000D02*
X171560000Y-109220000D01*
X162560000Y-106680000D02*
X171560000Y-106680000D01*
X147000000Y-103500000D02*
X144000000Y-100500000D01*
X144000000Y-100500000D02*
X126291878Y-100500000D01*
X126291878Y-100500000D02*
X124748160Y-102043718D01*
X124748160Y-102043718D02*
X124748160Y-102750000D01*
D29*
X124248160Y-102500000D02*
X124498160Y-102500000D01*
X124498160Y-102500000D02*
X124748160Y-102750000D01*
D27*
X162560000Y-106680000D02*
X153820000Y-106680000D01*
X153820000Y-106680000D02*
X153500000Y-107000000D01*
D29*
X120355000Y-105645000D02*
X123500000Y-102500000D01*
X123500000Y-102500000D02*
X124248160Y-102500000D01*
X120355000Y-108960000D02*
X120355000Y-105645000D01*
D27*
X161829081Y-104140000D02*
X162560000Y-104140000D01*
X160020000Y-104140000D02*
X161829081Y-104140000D01*
X161829081Y-104140000D02*
X171560000Y-104140000D01*
X138430000Y-110490000D02*
X144780000Y-110490000D01*
X144780000Y-110490000D02*
X151130000Y-104140000D01*
X151130000Y-104140000D02*
X160020000Y-104140000D01*
X133350000Y-110490000D02*
X138430000Y-110490000D01*
D29*
X122305000Y-108960000D02*
X122305000Y-107057000D01*
X122305000Y-107057000D02*
X122428000Y-106934000D01*
X122428000Y-106934000D02*
X129456180Y-106934000D01*
X129456180Y-106934000D02*
X133012180Y-110490000D01*
X133012180Y-110490000D02*
X133350000Y-110490000D01*
D27*
X152908000Y-102870000D02*
X154178000Y-101600000D01*
X154178000Y-101600000D02*
X162560000Y-101600000D01*
X162560000Y-101600000D02*
X171560000Y-101600000D01*
X138430000Y-113030000D02*
X145288000Y-113030000D01*
X145288000Y-113030000D02*
X152908000Y-105410000D01*
X133350000Y-113030000D02*
X138430000Y-113030000D01*
D29*
X125500000Y-112998160D02*
X125500000Y-112498000D01*
X125500000Y-112498000D02*
X126492000Y-111506000D01*
X126492000Y-111506000D02*
X131064000Y-111506000D01*
X131064000Y-111506000D02*
X132588000Y-113030000D01*
X132588000Y-113030000D02*
X133350000Y-113030000D01*
X122955000Y-108960000D02*
X122955000Y-111955000D01*
X122955000Y-111955000D02*
X123998160Y-112998160D01*
X123998160Y-112998160D02*
X125500000Y-112998160D01*
D27*
X162560000Y-99060000D02*
X171560000Y-99060000D01*
X162560000Y-99060000D02*
X137060006Y-99060000D01*
X137060006Y-99060000D02*
X137000000Y-98999994D01*
D29*
X121005000Y-108960000D02*
X121005000Y-106071000D01*
X121005000Y-106071000D02*
X121666000Y-105410000D01*
X121666000Y-105410000D02*
X131950180Y-105410000D01*
X131950180Y-105410000D02*
X133350000Y-105410000D01*
D27*
X171560000Y-96520000D02*
X163520000Y-96520000D01*
X163520000Y-96520000D02*
X163500000Y-96500000D01*
X176386000Y-128905000D02*
X178385000Y-128905000D01*
X178385000Y-128905000D02*
X179040000Y-128250000D01*
X179040000Y-128250000D02*
X179040000Y-99500000D01*
X179040000Y-99500000D02*
X176060000Y-96520000D01*
X176060000Y-96520000D02*
X171560000Y-96520000D01*
D30*
X176386000Y-130175000D02*
X176386000Y-128905000D01*
D27*
X186800000Y-96520000D02*
X193200000Y-96520000D01*
X193200000Y-96520000D02*
X193250000Y-96470000D01*
X152908000Y-97790000D02*
X155940000Y-94758000D01*
X155940000Y-94758000D02*
X184700180Y-94758000D01*
X184700180Y-94758000D02*
X186462180Y-96520000D01*
X186462180Y-96520000D02*
X186800000Y-96520000D01*
X144779994Y-107950000D02*
X151591995Y-101137999D01*
X138430000Y-107950000D02*
X144779994Y-107950000D01*
X151591995Y-101137999D02*
X151891994Y-100838000D01*
X133350000Y-107950000D02*
X138430000Y-107950000D01*
D29*
X121655000Y-108960000D02*
X121655000Y-106437000D01*
X121655000Y-106437000D02*
X121920000Y-106172000D01*
X121920000Y-106172000D02*
X131234180Y-106172000D01*
X131234180Y-106172000D02*
X133012180Y-107950000D01*
X133012180Y-107950000D02*
X133350000Y-107950000D01*
D27*
X186800000Y-99060000D02*
X193200000Y-99060000D01*
X193200000Y-99060000D02*
X193250000Y-99010000D01*
X186800000Y-101600000D02*
X193200000Y-101600000D01*
X193200000Y-101600000D02*
X193250000Y-101550000D01*
X186800000Y-104140000D02*
X193200000Y-104140000D01*
X193200000Y-104140000D02*
X193250000Y-104090000D01*
X186800000Y-106680000D02*
X193200000Y-106680000D01*
X193200000Y-106680000D02*
X193250000Y-106630000D01*
X186800000Y-109220000D02*
X193200000Y-109220000D01*
X193200000Y-109220000D02*
X193250000Y-109170000D01*
X186800000Y-111760000D02*
X193200000Y-111760000D01*
X193200000Y-111760000D02*
X193250000Y-111710000D01*
X186800000Y-114300000D02*
X193200000Y-114300000D01*
X193200000Y-114300000D02*
X193250000Y-114250000D01*
X186800000Y-116840000D02*
X193200000Y-116840000D01*
X193200000Y-116840000D02*
X193250000Y-116790000D01*
X193250000Y-119330000D02*
X186850000Y-119330000D01*
X186850000Y-119330000D02*
X186800000Y-119380000D01*
X186800000Y-121920000D02*
X193200000Y-121920000D01*
X193200000Y-121920000D02*
X193250000Y-121870000D01*
X186800000Y-127000000D02*
X193200000Y-127000000D01*
X193200000Y-127000000D02*
X193250000Y-126950000D01*
X186800000Y-132080000D02*
X193200000Y-132080000D01*
X193200000Y-132080000D02*
X193250000Y-132030000D01*
D29*
X119705000Y-108960000D02*
X119705000Y-105295000D01*
D31*
X153151840Y-94030800D02*
X153151840Y-93980000D01*
D29*
X119705000Y-105295000D02*
X127075011Y-97924989D01*
D31*
X127075011Y-97924989D02*
X137341730Y-97924989D01*
X137341730Y-97924989D02*
X137416741Y-98000000D01*
X137416741Y-98000000D02*
X149182640Y-98000000D01*
X149182640Y-98000000D02*
X153151840Y-94030800D01*
D27*
X153151840Y-93980000D02*
X153151840Y-93228160D01*
X153151840Y-93228160D02*
X154940000Y-91440000D01*
D29*
X142991840Y-93980000D02*
X142991840Y-95008160D01*
X142991840Y-95008160D02*
X141016320Y-96983680D01*
X141016320Y-96983680D02*
X127016320Y-96983680D01*
X127016320Y-96983680D02*
X119055000Y-104945000D01*
X119055000Y-104945000D02*
X119055000Y-108960000D01*
D27*
X142991840Y-93980000D02*
X142991840Y-93228160D01*
X142991840Y-93228160D02*
X144780000Y-91440000D01*
D29*
X118405000Y-108960000D02*
X118405000Y-104595000D01*
X118405000Y-104595000D02*
X127000000Y-96000000D01*
X127000000Y-96000000D02*
X132000000Y-96000000D01*
X132831840Y-95168160D02*
X132831840Y-93980000D01*
X132000000Y-96000000D02*
X132831840Y-95168160D01*
D27*
X132831840Y-93980000D02*
X132831840Y-93228160D01*
X132831840Y-93228160D02*
X134620000Y-91440000D01*
D29*
X117755000Y-104245000D02*
X122671840Y-99328160D01*
X117755000Y-108960000D02*
X117755000Y-104245000D01*
X122671840Y-99328160D02*
X122671840Y-93980000D01*
D27*
X122671840Y-93980000D02*
X122671840Y-93228160D01*
X122671840Y-93228160D02*
X124460000Y-91440000D01*
D29*
X117105000Y-108960000D02*
X117105000Y-104105000D01*
X117105000Y-104105000D02*
X112511840Y-99511840D01*
X112511840Y-99511840D02*
X112511840Y-93980000D01*
D27*
X112511840Y-93980000D02*
X112511840Y-93228160D01*
X112511840Y-93228160D02*
X114300000Y-91440000D01*
D29*
X116455000Y-108960000D02*
X116455000Y-104455000D01*
X105980000Y-93980000D02*
X103101420Y-93980000D01*
X116455000Y-104455000D02*
X105980000Y-93980000D01*
X103101420Y-93980000D02*
X102351840Y-93980000D01*
D27*
X102351840Y-93980000D02*
X102351840Y-93228160D01*
X102351840Y-93228160D02*
X104140000Y-91440000D01*
D29*
X115805000Y-108960000D02*
X115805000Y-104805000D01*
X107000000Y-96000000D02*
X94961420Y-96000000D01*
X92941420Y-93980000D02*
X92191840Y-93980000D01*
X115805000Y-104805000D02*
X107000000Y-96000000D01*
X94961420Y-96000000D02*
X92941420Y-93980000D01*
D27*
X92191840Y-93980000D02*
X92191840Y-93228160D01*
X92191840Y-93228160D02*
X93980000Y-91440000D01*
D29*
X115155000Y-108960000D02*
X115155000Y-105155000D01*
X115155000Y-105155000D02*
X106750000Y-96750000D01*
X106750000Y-96750000D02*
X84751040Y-96750000D01*
X84751040Y-96750000D02*
X82031840Y-94030800D01*
X82031840Y-94030800D02*
X82031840Y-93980000D01*
D27*
X82031840Y-93980000D02*
X82031840Y-93228160D01*
X82031840Y-93228160D02*
X83820000Y-91440000D01*
D29*
X115155000Y-114560000D02*
X115155000Y-121345000D01*
X115155000Y-121345000D02*
X111000000Y-125500000D01*
X111000000Y-125500000D02*
X83250000Y-125500000D01*
X83250000Y-125500000D02*
X80528160Y-128221840D01*
X80500000Y-128250000D02*
X80528160Y-128278160D01*
X80528160Y-128278160D02*
X80528160Y-128966596D01*
D27*
X80528160Y-128966596D02*
X80528160Y-129718436D01*
X80528160Y-129718436D02*
X78740000Y-131506596D01*
D29*
X115805000Y-114560000D02*
X115805000Y-121695000D01*
X115805000Y-121695000D02*
X111250000Y-126250000D01*
X111250000Y-126250000D02*
X110750000Y-126250000D01*
X110750000Y-126250000D02*
X92250000Y-126250000D01*
X92250000Y-126250000D02*
X90688160Y-127811840D01*
X90688160Y-127811840D02*
X90688160Y-129040000D01*
D27*
X90688160Y-129040000D02*
X90688160Y-129718436D01*
X90688160Y-129718436D02*
X88900000Y-131506596D01*
D29*
X111292878Y-127000000D02*
X111000000Y-127000000D01*
X116455000Y-121837878D02*
X111292878Y-127000000D01*
X116455000Y-114560000D02*
X116455000Y-121837878D01*
D31*
X111000000Y-127000000D02*
X101750000Y-127000000D01*
D29*
X101750000Y-127000000D02*
X100848160Y-127901840D01*
X100848160Y-127901840D02*
X100848160Y-129040000D01*
D27*
X100848160Y-129040000D02*
X100848160Y-129791840D01*
X100848160Y-129791840D02*
X99060000Y-131580000D01*
D29*
X111000000Y-128250000D02*
X111000000Y-129031840D01*
X111000000Y-129031840D02*
X111008160Y-129040000D01*
X111000000Y-128250000D02*
X117105000Y-122145000D01*
X117105000Y-122145000D02*
X117105000Y-114560000D01*
D27*
X111008160Y-129040000D02*
X111008160Y-129791840D01*
X111008160Y-129791840D02*
X109220000Y-131580000D01*
D29*
X117755000Y-114560000D02*
X117755000Y-122755000D01*
X117755000Y-122755000D02*
X121168160Y-126168160D01*
X121168160Y-126168160D02*
X121168160Y-129540000D01*
D27*
X121168160Y-129040000D02*
X121168160Y-129791840D01*
X121168160Y-129791840D02*
X119380000Y-131580000D01*
D29*
X118405000Y-114560000D02*
X118405000Y-122405000D01*
X118405000Y-122405000D02*
X125000000Y-129000000D01*
X125000000Y-129000000D02*
X125500000Y-129000000D01*
D31*
X125540000Y-129040000D02*
X131328160Y-129040000D01*
D27*
X131328160Y-129040000D02*
X131328160Y-129791840D01*
X131328160Y-129791840D02*
X129540000Y-131580000D01*
D29*
X124500000Y-127000000D02*
X124000000Y-127000000D01*
X124000000Y-127000000D02*
X119000000Y-122000000D01*
X119000000Y-122000000D02*
X119000000Y-114500000D01*
D31*
X141488160Y-129040000D02*
X141488160Y-127988160D01*
X141488160Y-127988160D02*
X140500000Y-127000000D01*
X140500000Y-127000000D02*
X124500000Y-127000000D01*
D27*
X141488160Y-129040000D02*
X141488160Y-129791840D01*
X141488160Y-129791840D02*
X139700000Y-131580000D01*
D29*
X119705000Y-114560000D02*
X119705000Y-121705000D01*
X124250000Y-126250000D02*
X124750000Y-126250000D01*
X119705000Y-121705000D02*
X124250000Y-126250000D01*
X124750000Y-126250000D02*
X149750000Y-126250000D01*
D31*
X149750000Y-126250000D02*
X151648160Y-128148160D01*
X151648160Y-128148160D02*
X151648160Y-129040000D01*
D27*
X151648160Y-129040000D02*
X151648160Y-129791840D01*
X151648160Y-129791840D02*
X149860000Y-131580000D01*
D29*
X121005000Y-114560000D02*
X121005000Y-116505000D01*
X134250000Y-118250000D02*
X135750000Y-116750000D01*
X121005000Y-116505000D02*
X122750000Y-118250000D01*
X122750000Y-118250000D02*
X134250000Y-118250000D01*
X125498160Y-116250000D02*
X123545000Y-116250000D01*
X123545000Y-116250000D02*
X122955000Y-115660000D01*
X122955000Y-115660000D02*
X122955000Y-114560000D01*
D30*
X181974000Y-128905000D02*
X185384410Y-128905000D01*
X185384410Y-128905000D02*
X186077400Y-128212010D01*
X186077400Y-128212010D02*
X199037990Y-128212010D01*
X199037990Y-128212010D02*
X200730000Y-126520000D01*
X200730000Y-123599820D02*
X200730000Y-122000000D01*
X181974000Y-128905000D02*
X182673770Y-128905000D01*
X200730000Y-126520000D02*
X200730000Y-123599820D01*
X201000000Y-112000000D02*
X198250000Y-114750000D01*
X198250000Y-114750000D02*
X198250000Y-119182180D01*
X198250000Y-119182180D02*
X200730000Y-121662180D01*
X200730000Y-121662180D02*
X200730000Y-122000000D01*
X203270000Y-122000000D02*
X203270000Y-120231840D01*
X203270000Y-120231840D02*
X204000000Y-119501840D01*
X204000000Y-117998160D02*
X201918160Y-117998160D01*
X201918160Y-117998160D02*
X201000000Y-117080000D01*
X181974000Y-130175000D02*
X185268430Y-130175000D01*
X185268430Y-130175000D02*
X185845440Y-130752010D01*
X185845440Y-130752010D02*
X197747990Y-130752010D01*
X197747990Y-130752010D02*
X201942010Y-126557990D01*
X181974000Y-130175000D02*
X182673770Y-130175000D01*
X201942010Y-126557990D02*
X201942010Y-120021880D01*
X201942010Y-120021880D02*
X201000000Y-119079870D01*
X201000000Y-119079870D02*
X201000000Y-117080000D01*
X201920000Y-118000000D02*
X201000000Y-117080000D01*
D32*
G36*
X205290000Y-135790000D02*
X175523709Y-135790000D01*
X175800543Y-135375687D01*
X175925000Y-134750000D01*
X175800543Y-134124313D01*
X175446120Y-133593880D01*
X174915687Y-133239457D01*
X174290000Y-133115000D01*
X172849037Y-133115000D01*
X172919635Y-133067828D01*
X173222467Y-132614609D01*
X173229351Y-132580000D01*
X176386000Y-132580000D01*
X176820346Y-132493603D01*
X176972166Y-132392160D01*
X177385490Y-132392160D01*
X177620807Y-132347882D01*
X177836931Y-132208810D01*
X177981921Y-131996610D01*
X178032930Y-131744720D01*
X178032930Y-131730750D01*
X180339510Y-131730750D01*
X180339510Y-131871029D01*
X180436183Y-132104418D01*
X180614811Y-132283047D01*
X180848200Y-132379720D01*
X181688250Y-132379720D01*
X181847000Y-132220970D01*
X181847000Y-131572000D01*
X182101000Y-131572000D01*
X182101000Y-132220970D01*
X182259750Y-132379720D01*
X183099800Y-132379720D01*
X183333189Y-132283047D01*
X183511817Y-132104418D01*
X183608490Y-131871029D01*
X183608490Y-131730750D01*
X183449740Y-131572000D01*
X182101000Y-131572000D01*
X181847000Y-131572000D01*
X180498260Y-131572000D01*
X180339510Y-131730750D01*
X178032930Y-131730750D01*
X178032930Y-131145280D01*
X177988652Y-130909963D01*
X177924626Y-130810464D01*
X177981921Y-130726610D01*
X178032930Y-130474720D01*
X178032930Y-130040000D01*
X178385000Y-130040000D01*
X178819346Y-129953603D01*
X179187566Y-129707566D01*
X179842566Y-129052566D01*
X179875414Y-129003405D01*
X180088603Y-128684346D01*
X180175000Y-128250000D01*
X180175000Y-99500000D01*
X180088603Y-99065654D01*
X179842566Y-98697434D01*
X177038132Y-95893000D01*
X184230048Y-95893000D01*
X185074434Y-96737386D01*
X185137533Y-97054609D01*
X185440365Y-97507828D01*
X185862664Y-97790000D01*
X185440365Y-98072172D01*
X185137533Y-98525391D01*
X185031193Y-99060000D01*
X185137533Y-99594609D01*
X185440365Y-100047828D01*
X185862664Y-100330000D01*
X185440365Y-100612172D01*
X185137533Y-101065391D01*
X185031193Y-101600000D01*
X185137533Y-102134609D01*
X185440365Y-102587828D01*
X185862664Y-102870000D01*
X185440365Y-103152172D01*
X185137533Y-103605391D01*
X185031193Y-104140000D01*
X185137533Y-104674609D01*
X185440365Y-105127828D01*
X185863312Y-105410433D01*
X185441660Y-105692172D01*
X185138828Y-106145391D01*
X185032488Y-106680000D01*
X185138828Y-107214609D01*
X185441660Y-107667828D01*
X185863959Y-107950000D01*
X185441660Y-108232172D01*
X185138828Y-108685391D01*
X185032488Y-109220000D01*
X185138828Y-109754609D01*
X185441660Y-110207828D01*
X185863959Y-110490000D01*
X185441660Y-110772172D01*
X185138828Y-111225391D01*
X185032488Y-111760000D01*
X185138828Y-112294609D01*
X185441660Y-112747828D01*
X185863959Y-113030000D01*
X185441660Y-113312172D01*
X185138828Y-113765391D01*
X185032488Y-114300000D01*
X185138828Y-114834609D01*
X185441660Y-115287828D01*
X185863959Y-115570000D01*
X185441660Y-115852172D01*
X185138828Y-116305391D01*
X185032488Y-116840000D01*
X185138828Y-117374609D01*
X185441660Y-117827828D01*
X185863959Y-118110000D01*
X185441660Y-118392172D01*
X185138828Y-118845391D01*
X185032488Y-119380000D01*
X185138828Y-119914609D01*
X185441660Y-120367828D01*
X185863959Y-120650000D01*
X185441660Y-120932172D01*
X185138828Y-121385391D01*
X185032488Y-121920000D01*
X185138828Y-122454609D01*
X185441660Y-122907828D01*
X185863959Y-123190000D01*
X185661918Y-123325000D01*
X182327780Y-123325000D01*
X181893435Y-123411396D01*
X181525214Y-123657433D01*
X181235594Y-123947054D01*
X180989557Y-124315274D01*
X180903160Y-124749620D01*
X180903160Y-126250000D01*
X180941140Y-126440938D01*
X180941140Y-126694119D01*
X180739193Y-126732118D01*
X180523069Y-126871190D01*
X180378079Y-127083390D01*
X180327070Y-127335280D01*
X180327070Y-127934720D01*
X180371348Y-128170037D01*
X180435374Y-128269536D01*
X180378079Y-128353390D01*
X180327070Y-128605280D01*
X180327070Y-129204720D01*
X180371348Y-129440037D01*
X180435374Y-129539536D01*
X180378079Y-129623390D01*
X180327070Y-129875280D01*
X180327070Y-130474720D01*
X180371348Y-130710037D01*
X180429830Y-130800920D01*
X180339510Y-131018971D01*
X180339510Y-131159250D01*
X180498260Y-131318000D01*
X181847000Y-131318000D01*
X181847000Y-131298000D01*
X182101000Y-131298000D01*
X182101000Y-131318000D01*
X183449740Y-131318000D01*
X183608490Y-131159250D01*
X183608490Y-131060000D01*
X184901850Y-131060000D01*
X185219648Y-131377797D01*
X185219650Y-131377800D01*
X185241192Y-131392194D01*
X185138828Y-131545391D01*
X185032488Y-132080000D01*
X185138828Y-132614609D01*
X185441660Y-133067828D01*
X185894879Y-133370660D01*
X186429488Y-133477000D01*
X187170512Y-133477000D01*
X187705121Y-133370660D01*
X187938082Y-133215000D01*
X191667789Y-133215000D01*
X191686090Y-133243441D01*
X191898290Y-133388431D01*
X192150180Y-133439440D01*
X194349820Y-133439440D01*
X194585137Y-133395162D01*
X194801261Y-133256090D01*
X194946251Y-133043890D01*
X194960743Y-132972325D01*
X199614587Y-132972325D01*
X199976916Y-133849229D01*
X200647242Y-134520726D01*
X201523513Y-134884585D01*
X202472325Y-134885413D01*
X203349229Y-134523084D01*
X204020726Y-133852758D01*
X204384585Y-132976487D01*
X204385413Y-132027675D01*
X204023084Y-131150771D01*
X203352758Y-130479274D01*
X202476487Y-130115415D01*
X201527675Y-130114587D01*
X200650771Y-130476916D01*
X199979274Y-131147242D01*
X199615415Y-132023513D01*
X199614587Y-132972325D01*
X194960743Y-132972325D01*
X194997260Y-132792000D01*
X194997260Y-131637010D01*
X197747985Y-131637010D01*
X197747990Y-131637011D01*
X198034597Y-131580000D01*
X198086665Y-131569643D01*
X198373780Y-131377800D01*
X198373781Y-131377799D01*
X202567797Y-127183782D01*
X202567800Y-127183780D01*
X202759643Y-126896665D01*
X202794140Y-126723239D01*
X202827011Y-126557990D01*
X202827010Y-126557985D01*
X202827010Y-123747260D01*
X204032000Y-123747260D01*
X204267317Y-123702982D01*
X204483441Y-123563910D01*
X204628431Y-123351710D01*
X204679440Y-123099820D01*
X204679440Y-120900180D01*
X204635162Y-120664863D01*
X204582720Y-120583367D01*
X204735697Y-120554582D01*
X204951821Y-120415510D01*
X205096811Y-120203310D01*
X205147820Y-119951420D01*
X205147820Y-119052260D01*
X205103542Y-118816943D01*
X205061401Y-118751454D01*
X205096811Y-118699630D01*
X205147820Y-118447740D01*
X205147820Y-117548580D01*
X205103542Y-117313263D01*
X204964470Y-117097139D01*
X204752270Y-116952149D01*
X204500380Y-116901140D01*
X203499620Y-116901140D01*
X203264303Y-116945418D01*
X203147310Y-117020701D01*
X203147310Y-115580130D01*
X203103032Y-115344813D01*
X202963960Y-115128689D01*
X202751760Y-114983699D01*
X202499870Y-114932690D01*
X199500130Y-114932690D01*
X199276883Y-114974697D01*
X200250991Y-114000588D01*
X200573485Y-114134499D01*
X201422789Y-114135240D01*
X202207727Y-113810910D01*
X202808800Y-113210886D01*
X203134499Y-112426515D01*
X203135240Y-111577211D01*
X202810910Y-110792273D01*
X202210886Y-110191200D01*
X201426515Y-109865501D01*
X200577211Y-109864760D01*
X199792273Y-110189090D01*
X199191200Y-110789114D01*
X198865501Y-111573485D01*
X198864760Y-112422789D01*
X198999511Y-112748910D01*
X197624210Y-114124210D01*
X197432367Y-114411325D01*
X197432367Y-114411326D01*
X197364999Y-114750000D01*
X197365000Y-114750005D01*
X197365000Y-119182175D01*
X197364999Y-119182180D01*
X197411153Y-119414207D01*
X197432367Y-119520855D01*
X197540845Y-119683205D01*
X197624210Y-119807970D01*
X199351488Y-121535247D01*
X199333000Y-121628193D01*
X199333000Y-122371807D01*
X199439340Y-122906416D01*
X199742172Y-123359635D01*
X199845000Y-123428343D01*
X199845000Y-126153421D01*
X198671410Y-127327010D01*
X194943815Y-127327010D01*
X195018807Y-126950000D01*
X194912467Y-126415391D01*
X194609635Y-125962172D01*
X194187336Y-125680000D01*
X194609635Y-125397828D01*
X194912467Y-124944609D01*
X195018807Y-124410000D01*
X194912467Y-123875391D01*
X194609635Y-123422172D01*
X194187336Y-123140000D01*
X194609635Y-122857828D01*
X194912467Y-122404609D01*
X195018807Y-121870000D01*
X194912467Y-121335391D01*
X194609635Y-120882172D01*
X194187336Y-120600000D01*
X194609635Y-120317828D01*
X194912467Y-119864609D01*
X195018807Y-119330000D01*
X194912467Y-118795391D01*
X194609635Y-118342172D01*
X194187336Y-118060000D01*
X194609635Y-117777828D01*
X194912467Y-117324609D01*
X195018807Y-116790000D01*
X194912467Y-116255391D01*
X194609635Y-115802172D01*
X194187336Y-115520000D01*
X194609635Y-115237828D01*
X194912467Y-114784609D01*
X195018807Y-114250000D01*
X194912467Y-113715391D01*
X194609635Y-113262172D01*
X194187336Y-112980000D01*
X194609635Y-112697828D01*
X194912467Y-112244609D01*
X195018807Y-111710000D01*
X194912467Y-111175391D01*
X194609635Y-110722172D01*
X194187336Y-110440000D01*
X194609635Y-110157828D01*
X194912467Y-109704609D01*
X195018807Y-109170000D01*
X194912467Y-108635391D01*
X194777820Y-108433877D01*
X199665728Y-108433877D01*
X199825495Y-108752632D01*
X200616217Y-109062595D01*
X201465366Y-109046367D01*
X202174505Y-108752632D01*
X202334272Y-108433877D01*
X201000000Y-107099605D01*
X199665728Y-108433877D01*
X194777820Y-108433877D01*
X194609635Y-108182172D01*
X194187336Y-107900000D01*
X194609635Y-107617828D01*
X194912467Y-107164609D01*
X195018807Y-106630000D01*
X195000153Y-106536217D01*
X198857405Y-106536217D01*
X198873633Y-107385366D01*
X199167368Y-108094505D01*
X199486123Y-108254272D01*
X200820395Y-106920000D01*
X201179605Y-106920000D01*
X202513877Y-108254272D01*
X202832632Y-108094505D01*
X203142595Y-107303783D01*
X203126367Y-106454634D01*
X202832632Y-105745495D01*
X202513877Y-105585728D01*
X201179605Y-106920000D01*
X200820395Y-106920000D01*
X199486123Y-105585728D01*
X199167368Y-105745495D01*
X198857405Y-106536217D01*
X195000153Y-106536217D01*
X194912467Y-106095391D01*
X194609635Y-105642172D01*
X194256364Y-105406123D01*
X199665728Y-105406123D01*
X201000000Y-106740395D01*
X202334272Y-105406123D01*
X202174505Y-105087368D01*
X201383783Y-104777405D01*
X200534634Y-104793633D01*
X199825495Y-105087368D01*
X199665728Y-105406123D01*
X194256364Y-105406123D01*
X194187336Y-105360000D01*
X194609635Y-105077828D01*
X194912467Y-104624609D01*
X195018807Y-104090000D01*
X194912467Y-103555391D01*
X194609635Y-103102172D01*
X194187336Y-102820000D01*
X194609635Y-102537828D01*
X194912467Y-102084609D01*
X195018807Y-101550000D01*
X194912467Y-101015391D01*
X194609635Y-100562172D01*
X194187336Y-100280000D01*
X194609635Y-99997828D01*
X194912467Y-99544609D01*
X195018807Y-99010000D01*
X194912467Y-98475391D01*
X194609635Y-98022172D01*
X194187336Y-97740000D01*
X194609635Y-97457828D01*
X194912467Y-97004609D01*
X195018807Y-96470000D01*
X194912467Y-95935391D01*
X194609635Y-95482172D01*
X194156416Y-95179340D01*
X193621807Y-95073000D01*
X192878193Y-95073000D01*
X192343584Y-95179340D01*
X192035793Y-95385000D01*
X187939377Y-95385000D01*
X187706416Y-95229340D01*
X187171807Y-95123000D01*
X186670312Y-95123000D01*
X185502745Y-93955433D01*
X185134526Y-93709397D01*
X184700180Y-93623000D01*
X155940000Y-93623000D01*
X155505655Y-93709396D01*
X155137434Y-93955433D01*
X152105434Y-96987434D01*
X151859397Y-97355655D01*
X151773000Y-97790000D01*
X151799853Y-97925000D01*
X150332442Y-97925000D01*
X153129622Y-95127820D01*
X153601420Y-95127820D01*
X153836737Y-95083542D01*
X154052861Y-94944470D01*
X154197851Y-94732270D01*
X154248860Y-94480380D01*
X154248860Y-94170938D01*
X154286840Y-93980000D01*
X154286840Y-93698292D01*
X154397822Y-93587310D01*
X156439870Y-93587310D01*
X156675187Y-93543032D01*
X156891311Y-93403960D01*
X157036301Y-93191760D01*
X157087310Y-92939870D01*
X157087310Y-90972325D01*
X199614587Y-90972325D01*
X199976916Y-91849229D01*
X200647242Y-92520726D01*
X201523513Y-92884585D01*
X202472325Y-92885413D01*
X203349229Y-92523084D01*
X204020726Y-91852758D01*
X204384585Y-90976487D01*
X204385413Y-90027675D01*
X204023084Y-89150771D01*
X203352758Y-88479274D01*
X202476487Y-88115415D01*
X201527675Y-88114587D01*
X200650771Y-88476916D01*
X199979274Y-89147242D01*
X199615415Y-90023513D01*
X199614587Y-90972325D01*
X157087310Y-90972325D01*
X157087310Y-89940130D01*
X157043032Y-89704813D01*
X156903960Y-89488689D01*
X156691760Y-89343699D01*
X156439870Y-89292690D01*
X153440130Y-89292690D01*
X153204813Y-89336968D01*
X152988689Y-89476040D01*
X152843699Y-89688240D01*
X152792690Y-89940130D01*
X152792690Y-91982178D01*
X152400000Y-92374868D01*
X151964322Y-91939190D01*
X151994499Y-91866515D01*
X151995240Y-91017211D01*
X151670910Y-90232273D01*
X151495000Y-90056055D01*
X151495000Y-88610005D01*
X151495001Y-88610000D01*
X151370543Y-87984312D01*
X151016120Y-87453880D01*
X150772240Y-87210000D01*
X205290000Y-87210000D01*
X205290000Y-135790000D01*
X205290000Y-135790000D01*
G37*
X205290000Y-135790000D02*
X175523709Y-135790000D01*
X175800543Y-135375687D01*
X175925000Y-134750000D01*
X175800543Y-134124313D01*
X175446120Y-133593880D01*
X174915687Y-133239457D01*
X174290000Y-133115000D01*
X172849037Y-133115000D01*
X172919635Y-133067828D01*
X173222467Y-132614609D01*
X173229351Y-132580000D01*
X176386000Y-132580000D01*
X176820346Y-132493603D01*
X176972166Y-132392160D01*
X177385490Y-132392160D01*
X177620807Y-132347882D01*
X177836931Y-132208810D01*
X177981921Y-131996610D01*
X178032930Y-131744720D01*
X178032930Y-131730750D01*
X180339510Y-131730750D01*
X180339510Y-131871029D01*
X180436183Y-132104418D01*
X180614811Y-132283047D01*
X180848200Y-132379720D01*
X181688250Y-132379720D01*
X181847000Y-132220970D01*
X181847000Y-131572000D01*
X182101000Y-131572000D01*
X182101000Y-132220970D01*
X182259750Y-132379720D01*
X183099800Y-132379720D01*
X183333189Y-132283047D01*
X183511817Y-132104418D01*
X183608490Y-131871029D01*
X183608490Y-131730750D01*
X183449740Y-131572000D01*
X182101000Y-131572000D01*
X181847000Y-131572000D01*
X180498260Y-131572000D01*
X180339510Y-131730750D01*
X178032930Y-131730750D01*
X178032930Y-131145280D01*
X177988652Y-130909963D01*
X177924626Y-130810464D01*
X177981921Y-130726610D01*
X178032930Y-130474720D01*
X178032930Y-130040000D01*
X178385000Y-130040000D01*
X178819346Y-129953603D01*
X179187566Y-129707566D01*
X179842566Y-129052566D01*
X179875414Y-129003405D01*
X180088603Y-128684346D01*
X180175000Y-128250000D01*
X180175000Y-99500000D01*
X180088603Y-99065654D01*
X179842566Y-98697434D01*
X177038132Y-95893000D01*
X184230048Y-95893000D01*
X185074434Y-96737386D01*
X185137533Y-97054609D01*
X185440365Y-97507828D01*
X185862664Y-97790000D01*
X185440365Y-98072172D01*
X185137533Y-98525391D01*
X185031193Y-99060000D01*
X185137533Y-99594609D01*
X185440365Y-100047828D01*
X185862664Y-100330000D01*
X185440365Y-100612172D01*
X185137533Y-101065391D01*
X185031193Y-101600000D01*
X185137533Y-102134609D01*
X185440365Y-102587828D01*
X185862664Y-102870000D01*
X185440365Y-103152172D01*
X185137533Y-103605391D01*
X185031193Y-104140000D01*
X185137533Y-104674609D01*
X185440365Y-105127828D01*
X185863312Y-105410433D01*
X185441660Y-105692172D01*
X185138828Y-106145391D01*
X185032488Y-106680000D01*
X185138828Y-107214609D01*
X185441660Y-107667828D01*
X185863959Y-107950000D01*
X185441660Y-108232172D01*
X185138828Y-108685391D01*
X185032488Y-109220000D01*
X185138828Y-109754609D01*
X185441660Y-110207828D01*
X185863959Y-110490000D01*
X185441660Y-110772172D01*
X185138828Y-111225391D01*
X185032488Y-111760000D01*
X185138828Y-112294609D01*
X185441660Y-112747828D01*
X185863959Y-113030000D01*
X185441660Y-113312172D01*
X185138828Y-113765391D01*
X185032488Y-114300000D01*
X185138828Y-114834609D01*
X185441660Y-115287828D01*
X185863959Y-115570000D01*
X185441660Y-115852172D01*
X185138828Y-116305391D01*
X185032488Y-116840000D01*
X185138828Y-117374609D01*
X185441660Y-117827828D01*
X185863959Y-118110000D01*
X185441660Y-118392172D01*
X185138828Y-118845391D01*
X185032488Y-119380000D01*
X185138828Y-119914609D01*
X185441660Y-120367828D01*
X185863959Y-120650000D01*
X185441660Y-120932172D01*
X185138828Y-121385391D01*
X185032488Y-121920000D01*
X185138828Y-122454609D01*
X185441660Y-122907828D01*
X185863959Y-123190000D01*
X185661918Y-123325000D01*
X182327780Y-123325000D01*
X181893435Y-123411396D01*
X181525214Y-123657433D01*
X181235594Y-123947054D01*
X180989557Y-124315274D01*
X180903160Y-124749620D01*
X180903160Y-126250000D01*
X180941140Y-126440938D01*
X180941140Y-126694119D01*
X180739193Y-126732118D01*
X180523069Y-126871190D01*
X180378079Y-127083390D01*
X180327070Y-127335280D01*
X180327070Y-127934720D01*
X180371348Y-128170037D01*
X180435374Y-128269536D01*
X180378079Y-128353390D01*
X180327070Y-128605280D01*
X180327070Y-129204720D01*
X180371348Y-129440037D01*
X180435374Y-129539536D01*
X180378079Y-129623390D01*
X180327070Y-129875280D01*
X180327070Y-130474720D01*
X180371348Y-130710037D01*
X180429830Y-130800920D01*
X180339510Y-131018971D01*
X180339510Y-131159250D01*
X180498260Y-131318000D01*
X181847000Y-131318000D01*
X181847000Y-131298000D01*
X182101000Y-131298000D01*
X182101000Y-131318000D01*
X183449740Y-131318000D01*
X183608490Y-131159250D01*
X183608490Y-131060000D01*
X184901850Y-131060000D01*
X185219648Y-131377797D01*
X185219650Y-131377800D01*
X185241192Y-131392194D01*
X185138828Y-131545391D01*
X185032488Y-132080000D01*
X185138828Y-132614609D01*
X185441660Y-133067828D01*
X185894879Y-133370660D01*
X186429488Y-133477000D01*
X187170512Y-133477000D01*
X187705121Y-133370660D01*
X187938082Y-133215000D01*
X191667789Y-133215000D01*
X191686090Y-133243441D01*
X191898290Y-133388431D01*
X192150180Y-133439440D01*
X194349820Y-133439440D01*
X194585137Y-133395162D01*
X194801261Y-133256090D01*
X194946251Y-133043890D01*
X194960743Y-132972325D01*
X199614587Y-132972325D01*
X199976916Y-133849229D01*
X200647242Y-134520726D01*
X201523513Y-134884585D01*
X202472325Y-134885413D01*
X203349229Y-134523084D01*
X204020726Y-133852758D01*
X204384585Y-132976487D01*
X204385413Y-132027675D01*
X204023084Y-131150771D01*
X203352758Y-130479274D01*
X202476487Y-130115415D01*
X201527675Y-130114587D01*
X200650771Y-130476916D01*
X199979274Y-131147242D01*
X199615415Y-132023513D01*
X199614587Y-132972325D01*
X194960743Y-132972325D01*
X194997260Y-132792000D01*
X194997260Y-131637010D01*
X197747985Y-131637010D01*
X197747990Y-131637011D01*
X198034597Y-131580000D01*
X198086665Y-131569643D01*
X198373780Y-131377800D01*
X198373781Y-131377799D01*
X202567797Y-127183782D01*
X202567800Y-127183780D01*
X202759643Y-126896665D01*
X202794140Y-126723239D01*
X202827011Y-126557990D01*
X202827010Y-126557985D01*
X202827010Y-123747260D01*
X204032000Y-123747260D01*
X204267317Y-123702982D01*
X204483441Y-123563910D01*
X204628431Y-123351710D01*
X204679440Y-123099820D01*
X204679440Y-120900180D01*
X204635162Y-120664863D01*
X204582720Y-120583367D01*
X204735697Y-120554582D01*
X204951821Y-120415510D01*
X205096811Y-120203310D01*
X205147820Y-119951420D01*
X205147820Y-119052260D01*
X205103542Y-118816943D01*
X205061401Y-118751454D01*
X205096811Y-118699630D01*
X205147820Y-118447740D01*
X205147820Y-117548580D01*
X205103542Y-117313263D01*
X204964470Y-117097139D01*
X204752270Y-116952149D01*
X204500380Y-116901140D01*
X203499620Y-116901140D01*
X203264303Y-116945418D01*
X203147310Y-117020701D01*
X203147310Y-115580130D01*
X203103032Y-115344813D01*
X202963960Y-115128689D01*
X202751760Y-114983699D01*
X202499870Y-114932690D01*
X199500130Y-114932690D01*
X199276883Y-114974697D01*
X200250991Y-114000588D01*
X200573485Y-114134499D01*
X201422789Y-114135240D01*
X202207727Y-113810910D01*
X202808800Y-113210886D01*
X203134499Y-112426515D01*
X203135240Y-111577211D01*
X202810910Y-110792273D01*
X202210886Y-110191200D01*
X201426515Y-109865501D01*
X200577211Y-109864760D01*
X199792273Y-110189090D01*
X199191200Y-110789114D01*
X198865501Y-111573485D01*
X198864760Y-112422789D01*
X198999511Y-112748910D01*
X197624210Y-114124210D01*
X197432367Y-114411325D01*
X197432367Y-114411326D01*
X197364999Y-114750000D01*
X197365000Y-114750005D01*
X197365000Y-119182175D01*
X197364999Y-119182180D01*
X197411153Y-119414207D01*
X197432367Y-119520855D01*
X197540845Y-119683205D01*
X197624210Y-119807970D01*
X199351488Y-121535247D01*
X199333000Y-121628193D01*
X199333000Y-122371807D01*
X199439340Y-122906416D01*
X199742172Y-123359635D01*
X199845000Y-123428343D01*
X199845000Y-126153421D01*
X198671410Y-127327010D01*
X194943815Y-127327010D01*
X195018807Y-126950000D01*
X194912467Y-126415391D01*
X194609635Y-125962172D01*
X194187336Y-125680000D01*
X194609635Y-125397828D01*
X194912467Y-124944609D01*
X195018807Y-124410000D01*
X194912467Y-123875391D01*
X194609635Y-123422172D01*
X194187336Y-123140000D01*
X194609635Y-122857828D01*
X194912467Y-122404609D01*
X195018807Y-121870000D01*
X194912467Y-121335391D01*
X194609635Y-120882172D01*
X194187336Y-120600000D01*
X194609635Y-120317828D01*
X194912467Y-119864609D01*
X195018807Y-119330000D01*
X194912467Y-118795391D01*
X194609635Y-118342172D01*
X194187336Y-118060000D01*
X194609635Y-117777828D01*
X194912467Y-117324609D01*
X195018807Y-116790000D01*
X194912467Y-116255391D01*
X194609635Y-115802172D01*
X194187336Y-115520000D01*
X194609635Y-115237828D01*
X194912467Y-114784609D01*
X195018807Y-114250000D01*
X194912467Y-113715391D01*
X194609635Y-113262172D01*
X194187336Y-112980000D01*
X194609635Y-112697828D01*
X194912467Y-112244609D01*
X195018807Y-111710000D01*
X194912467Y-111175391D01*
X194609635Y-110722172D01*
X194187336Y-110440000D01*
X194609635Y-110157828D01*
X194912467Y-109704609D01*
X195018807Y-109170000D01*
X194912467Y-108635391D01*
X194777820Y-108433877D01*
X199665728Y-108433877D01*
X199825495Y-108752632D01*
X200616217Y-109062595D01*
X201465366Y-109046367D01*
X202174505Y-108752632D01*
X202334272Y-108433877D01*
X201000000Y-107099605D01*
X199665728Y-108433877D01*
X194777820Y-108433877D01*
X194609635Y-108182172D01*
X194187336Y-107900000D01*
X194609635Y-107617828D01*
X194912467Y-107164609D01*
X195018807Y-106630000D01*
X195000153Y-106536217D01*
X198857405Y-106536217D01*
X198873633Y-107385366D01*
X199167368Y-108094505D01*
X199486123Y-108254272D01*
X200820395Y-106920000D01*
X201179605Y-106920000D01*
X202513877Y-108254272D01*
X202832632Y-108094505D01*
X203142595Y-107303783D01*
X203126367Y-106454634D01*
X202832632Y-105745495D01*
X202513877Y-105585728D01*
X201179605Y-106920000D01*
X200820395Y-106920000D01*
X199486123Y-105585728D01*
X199167368Y-105745495D01*
X198857405Y-106536217D01*
X195000153Y-106536217D01*
X194912467Y-106095391D01*
X194609635Y-105642172D01*
X194256364Y-105406123D01*
X199665728Y-105406123D01*
X201000000Y-106740395D01*
X202334272Y-105406123D01*
X202174505Y-105087368D01*
X201383783Y-104777405D01*
X200534634Y-104793633D01*
X199825495Y-105087368D01*
X199665728Y-105406123D01*
X194256364Y-105406123D01*
X194187336Y-105360000D01*
X194609635Y-105077828D01*
X194912467Y-104624609D01*
X195018807Y-104090000D01*
X194912467Y-103555391D01*
X194609635Y-103102172D01*
X194187336Y-102820000D01*
X194609635Y-102537828D01*
X194912467Y-102084609D01*
X195018807Y-101550000D01*
X194912467Y-101015391D01*
X194609635Y-100562172D01*
X194187336Y-100280000D01*
X194609635Y-99997828D01*
X194912467Y-99544609D01*
X195018807Y-99010000D01*
X194912467Y-98475391D01*
X194609635Y-98022172D01*
X194187336Y-97740000D01*
X194609635Y-97457828D01*
X194912467Y-97004609D01*
X195018807Y-96470000D01*
X194912467Y-95935391D01*
X194609635Y-95482172D01*
X194156416Y-95179340D01*
X193621807Y-95073000D01*
X192878193Y-95073000D01*
X192343584Y-95179340D01*
X192035793Y-95385000D01*
X187939377Y-95385000D01*
X187706416Y-95229340D01*
X187171807Y-95123000D01*
X186670312Y-95123000D01*
X185502745Y-93955433D01*
X185134526Y-93709397D01*
X184700180Y-93623000D01*
X155940000Y-93623000D01*
X155505655Y-93709396D01*
X155137434Y-93955433D01*
X152105434Y-96987434D01*
X151859397Y-97355655D01*
X151773000Y-97790000D01*
X151799853Y-97925000D01*
X150332442Y-97925000D01*
X153129622Y-95127820D01*
X153601420Y-95127820D01*
X153836737Y-95083542D01*
X154052861Y-94944470D01*
X154197851Y-94732270D01*
X154248860Y-94480380D01*
X154248860Y-94170938D01*
X154286840Y-93980000D01*
X154286840Y-93698292D01*
X154397822Y-93587310D01*
X156439870Y-93587310D01*
X156675187Y-93543032D01*
X156891311Y-93403960D01*
X157036301Y-93191760D01*
X157087310Y-92939870D01*
X157087310Y-90972325D01*
X199614587Y-90972325D01*
X199976916Y-91849229D01*
X200647242Y-92520726D01*
X201523513Y-92884585D01*
X202472325Y-92885413D01*
X203349229Y-92523084D01*
X204020726Y-91852758D01*
X204384585Y-90976487D01*
X204385413Y-90027675D01*
X204023084Y-89150771D01*
X203352758Y-88479274D01*
X202476487Y-88115415D01*
X201527675Y-88114587D01*
X200650771Y-88476916D01*
X199979274Y-89147242D01*
X199615415Y-90023513D01*
X199614587Y-90972325D01*
X157087310Y-90972325D01*
X157087310Y-89940130D01*
X157043032Y-89704813D01*
X156903960Y-89488689D01*
X156691760Y-89343699D01*
X156439870Y-89292690D01*
X153440130Y-89292690D01*
X153204813Y-89336968D01*
X152988689Y-89476040D01*
X152843699Y-89688240D01*
X152792690Y-89940130D01*
X152792690Y-91982178D01*
X152400000Y-92374868D01*
X151964322Y-91939190D01*
X151994499Y-91866515D01*
X151995240Y-91017211D01*
X151670910Y-90232273D01*
X151495000Y-90056055D01*
X151495000Y-88610005D01*
X151495001Y-88610000D01*
X151370543Y-87984312D01*
X151016120Y-87453880D01*
X150772240Y-87210000D01*
X205290000Y-87210000D01*
X205290000Y-135790000D01*
G36*
X127443699Y-129828240D02*
X127392690Y-130080130D01*
X127392690Y-133079870D01*
X127399300Y-133115000D01*
X126095000Y-133115000D01*
X126095000Y-132964383D01*
X126268800Y-132790886D01*
X126594499Y-132006515D01*
X126595240Y-131157211D01*
X126270910Y-130372273D01*
X125699636Y-129800000D01*
X127462995Y-129800000D01*
X127443699Y-129828240D01*
X127443699Y-129828240D01*
G37*
X127443699Y-129828240D02*
X127392690Y-130080130D01*
X127392690Y-133079870D01*
X127399300Y-133115000D01*
X126095000Y-133115000D01*
X126095000Y-132964383D01*
X126268800Y-132790886D01*
X126594499Y-132006515D01*
X126595240Y-131157211D01*
X126270910Y-130372273D01*
X125699636Y-129800000D01*
X127462995Y-129800000D01*
X127443699Y-129828240D01*
G36*
X150647116Y-128221918D02*
X150602149Y-128287730D01*
X150551140Y-128539620D01*
X150551140Y-128849062D01*
X150513160Y-129040000D01*
X150513160Y-129321708D01*
X150402178Y-129432690D01*
X148360130Y-129432690D01*
X148124813Y-129476968D01*
X147908689Y-129616040D01*
X147763699Y-129828240D01*
X147712690Y-130080130D01*
X147712690Y-133079870D01*
X147719300Y-133115000D01*
X146415000Y-133115000D01*
X146415000Y-132964383D01*
X146588800Y-132790886D01*
X146914499Y-132006515D01*
X146915240Y-131157211D01*
X146590910Y-130372273D01*
X145990886Y-129771200D01*
X145206515Y-129445501D01*
X144357211Y-129444760D01*
X144281270Y-129476138D01*
X144126840Y-129321708D01*
X144126840Y-129040000D01*
X144088860Y-128849062D01*
X144088860Y-128539620D01*
X144044582Y-128304303D01*
X143905510Y-128088179D01*
X143693310Y-127943189D01*
X143441420Y-127892180D01*
X142542260Y-127892180D01*
X142306943Y-127936458D01*
X142245713Y-127975858D01*
X142240489Y-127949594D01*
X142190308Y-127697320D01*
X142025561Y-127450759D01*
X141609802Y-127035000D01*
X149460198Y-127035000D01*
X150647116Y-128221918D01*
X150647116Y-128221918D01*
G37*
X150647116Y-128221918D02*
X150602149Y-128287730D01*
X150551140Y-128539620D01*
X150551140Y-128849062D01*
X150513160Y-129040000D01*
X150513160Y-129321708D01*
X150402178Y-129432690D01*
X148360130Y-129432690D01*
X148124813Y-129476968D01*
X147908689Y-129616040D01*
X147763699Y-129828240D01*
X147712690Y-130080130D01*
X147712690Y-133079870D01*
X147719300Y-133115000D01*
X146415000Y-133115000D01*
X146415000Y-132964383D01*
X146588800Y-132790886D01*
X146914499Y-132006515D01*
X146915240Y-131157211D01*
X146590910Y-130372273D01*
X145990886Y-129771200D01*
X145206515Y-129445501D01*
X144357211Y-129444760D01*
X144281270Y-129476138D01*
X144126840Y-129321708D01*
X144126840Y-129040000D01*
X144088860Y-128849062D01*
X144088860Y-128539620D01*
X144044582Y-128304303D01*
X143905510Y-128088179D01*
X143693310Y-127943189D01*
X143441420Y-127892180D01*
X142542260Y-127892180D01*
X142306943Y-127936458D01*
X142245713Y-127975858D01*
X142240489Y-127949594D01*
X142190308Y-127697320D01*
X142025561Y-127450759D01*
X141609802Y-127035000D01*
X149460198Y-127035000D01*
X150647116Y-128221918D01*
G36*
X140552063Y-128126865D02*
X140442149Y-128287730D01*
X140391140Y-128539620D01*
X140391140Y-128849062D01*
X140353160Y-129040000D01*
X140353160Y-129321708D01*
X140242178Y-129432690D01*
X138200130Y-129432690D01*
X137964813Y-129476968D01*
X137748689Y-129616040D01*
X137603699Y-129828240D01*
X137552690Y-130080130D01*
X137552690Y-133079870D01*
X137559300Y-133115000D01*
X136255000Y-133115000D01*
X136255000Y-132964383D01*
X136428800Y-132790886D01*
X136754499Y-132006515D01*
X136755240Y-131157211D01*
X136430910Y-130372273D01*
X135830886Y-129771200D01*
X135046515Y-129445501D01*
X134197211Y-129444760D01*
X134121270Y-129476138D01*
X133966840Y-129321708D01*
X133966840Y-129040000D01*
X133928860Y-128849062D01*
X133928860Y-128539620D01*
X133884582Y-128304303D01*
X133745510Y-128088179D01*
X133533310Y-127943189D01*
X133281420Y-127892180D01*
X132382260Y-127892180D01*
X132146943Y-127936458D01*
X132081454Y-127978599D01*
X132029630Y-127943189D01*
X131777740Y-127892180D01*
X130878580Y-127892180D01*
X130643263Y-127936458D01*
X130427139Y-128075530D01*
X130287431Y-128280000D01*
X125808256Y-128280000D01*
X125800406Y-128274755D01*
X125500000Y-128215000D01*
X125325158Y-128215000D01*
X124870158Y-127760000D01*
X140185198Y-127760000D01*
X140552063Y-128126865D01*
X140552063Y-128126865D01*
G37*
X140552063Y-128126865D02*
X140442149Y-128287730D01*
X140391140Y-128539620D01*
X140391140Y-128849062D01*
X140353160Y-129040000D01*
X140353160Y-129321708D01*
X140242178Y-129432690D01*
X138200130Y-129432690D01*
X137964813Y-129476968D01*
X137748689Y-129616040D01*
X137603699Y-129828240D01*
X137552690Y-130080130D01*
X137552690Y-133079870D01*
X137559300Y-133115000D01*
X136255000Y-133115000D01*
X136255000Y-132964383D01*
X136428800Y-132790886D01*
X136754499Y-132006515D01*
X136755240Y-131157211D01*
X136430910Y-130372273D01*
X135830886Y-129771200D01*
X135046515Y-129445501D01*
X134197211Y-129444760D01*
X134121270Y-129476138D01*
X133966840Y-129321708D01*
X133966840Y-129040000D01*
X133928860Y-128849062D01*
X133928860Y-128539620D01*
X133884582Y-128304303D01*
X133745510Y-128088179D01*
X133533310Y-127943189D01*
X133281420Y-127892180D01*
X132382260Y-127892180D01*
X132146943Y-127936458D01*
X132081454Y-127978599D01*
X132029630Y-127943189D01*
X131777740Y-127892180D01*
X130878580Y-127892180D01*
X130643263Y-127936458D01*
X130427139Y-128075530D01*
X130287431Y-128280000D01*
X125808256Y-128280000D01*
X125800406Y-128274755D01*
X125500000Y-128215000D01*
X125325158Y-128215000D01*
X124870158Y-127760000D01*
X140185198Y-127760000D01*
X140552063Y-128126865D01*
G36*
X177905000Y-99970132D02*
X177905000Y-126969964D01*
X177849580Y-126883839D01*
X177637380Y-126738849D01*
X177385490Y-126687840D01*
X176972166Y-126687840D01*
X176820346Y-126586397D01*
X176386000Y-126500000D01*
X174905000Y-126500000D01*
X174470654Y-126586397D01*
X174169831Y-126787401D01*
X174102434Y-126832434D01*
X172597764Y-128337104D01*
X172497336Y-128270000D01*
X172919635Y-127987828D01*
X173222467Y-127534609D01*
X173328807Y-127000000D01*
X173222467Y-126465391D01*
X172919635Y-126012172D01*
X172484394Y-125721353D01*
X172549761Y-125702059D01*
X172975450Y-125358026D01*
X173237080Y-124877277D01*
X173252040Y-124803070D01*
X173129540Y-124587000D01*
X171687000Y-124587000D01*
X171687000Y-124607000D01*
X171433000Y-124607000D01*
X171433000Y-124587000D01*
X169990460Y-124587000D01*
X169867960Y-124803070D01*
X169882920Y-124877277D01*
X170144550Y-125358026D01*
X170570239Y-125702059D01*
X170635606Y-125721353D01*
X170450555Y-125845000D01*
X164639377Y-125845000D01*
X164424394Y-125701353D01*
X164489761Y-125682059D01*
X164915450Y-125338026D01*
X165177080Y-124857277D01*
X165192040Y-124783070D01*
X165069540Y-124567000D01*
X163627000Y-124567000D01*
X163627000Y-124587000D01*
X163373000Y-124587000D01*
X163373000Y-124567000D01*
X161930460Y-124567000D01*
X161807960Y-124783070D01*
X161822920Y-124857277D01*
X162084550Y-125338026D01*
X162510239Y-125682059D01*
X162575606Y-125701353D01*
X162140365Y-125992172D01*
X161837533Y-126445391D01*
X161731193Y-126980000D01*
X161837533Y-127514609D01*
X162140365Y-127967828D01*
X162562664Y-128250000D01*
X162140365Y-128532172D01*
X161837533Y-128985391D01*
X161731193Y-129520000D01*
X161837533Y-130054609D01*
X162140365Y-130507828D01*
X162562664Y-130790000D01*
X162140365Y-131072172D01*
X161837533Y-131525391D01*
X161731193Y-132060000D01*
X161837533Y-132594609D01*
X162140365Y-133047828D01*
X162240895Y-133115000D01*
X160385000Y-133115000D01*
X160385000Y-129750000D01*
X160324284Y-129444760D01*
X160260543Y-129124312D01*
X160077459Y-128850308D01*
X159906120Y-128593880D01*
X159906117Y-128593878D01*
X154656120Y-123343880D01*
X154125688Y-122989457D01*
X153500000Y-122864999D01*
X153499995Y-122865000D01*
X127677240Y-122865000D01*
X123847240Y-119035000D01*
X134250000Y-119035000D01*
X134550407Y-118975245D01*
X134805079Y-118805079D01*
X135925005Y-117685153D01*
X135935167Y-117685162D01*
X136278943Y-117543117D01*
X136542192Y-117280327D01*
X136684838Y-116936799D01*
X136685040Y-116705000D01*
X137290623Y-116705000D01*
X137523584Y-116860660D01*
X138058193Y-116967000D01*
X138801807Y-116967000D01*
X139336416Y-116860660D01*
X139569377Y-116705000D01*
X155599868Y-116705000D01*
X159077434Y-120182566D01*
X159445655Y-120428604D01*
X159880000Y-120515000D01*
X162390555Y-120515000D01*
X162562664Y-120630000D01*
X162140365Y-120912172D01*
X161837533Y-121365391D01*
X161731193Y-121900000D01*
X161837533Y-122434609D01*
X162140365Y-122887828D01*
X162575606Y-123178647D01*
X162510239Y-123197941D01*
X162084550Y-123541974D01*
X161822920Y-124022723D01*
X161807960Y-124096930D01*
X161930460Y-124313000D01*
X163373000Y-124313000D01*
X163373000Y-124293000D01*
X163627000Y-124293000D01*
X163627000Y-124313000D01*
X165069540Y-124313000D01*
X165192040Y-124096930D01*
X165177080Y-124022723D01*
X164915450Y-123541974D01*
X164489761Y-123197941D01*
X164424394Y-123178647D01*
X164639377Y-123035000D01*
X170390691Y-123035000D01*
X170635606Y-123198647D01*
X170570239Y-123217941D01*
X170144550Y-123561974D01*
X169882920Y-124042723D01*
X169867960Y-124116930D01*
X169990460Y-124333000D01*
X171433000Y-124333000D01*
X171433000Y-124313000D01*
X171687000Y-124313000D01*
X171687000Y-124333000D01*
X173129540Y-124333000D01*
X173252040Y-124116930D01*
X173237080Y-124042723D01*
X172975450Y-123561974D01*
X172549761Y-123217941D01*
X172484394Y-123198647D01*
X172919635Y-122907828D01*
X173222467Y-122454609D01*
X173328807Y-121920000D01*
X173222467Y-121385391D01*
X172919635Y-120932172D01*
X172497336Y-120650000D01*
X172919635Y-120367828D01*
X173222467Y-119914609D01*
X173328807Y-119380000D01*
X173222467Y-118845391D01*
X172919635Y-118392172D01*
X172497336Y-118110000D01*
X172919635Y-117827828D01*
X173222467Y-117374609D01*
X173328807Y-116840000D01*
X173222467Y-116305391D01*
X172919635Y-115852172D01*
X172497336Y-115570000D01*
X172919635Y-115287828D01*
X173222467Y-114834609D01*
X173328807Y-114300000D01*
X173222467Y-113765391D01*
X172919635Y-113312172D01*
X172497336Y-113030000D01*
X172919635Y-112747828D01*
X173222467Y-112294609D01*
X173328807Y-111760000D01*
X173222467Y-111225391D01*
X172919635Y-110772172D01*
X172497336Y-110490000D01*
X172919635Y-110207828D01*
X173222467Y-109754609D01*
X173328807Y-109220000D01*
X173222467Y-108685391D01*
X172919635Y-108232172D01*
X172497336Y-107950000D01*
X172919635Y-107667828D01*
X173222467Y-107214609D01*
X173328807Y-106680000D01*
X173222467Y-106145391D01*
X172919635Y-105692172D01*
X172497336Y-105410000D01*
X172919635Y-105127828D01*
X173222467Y-104674609D01*
X173328807Y-104140000D01*
X173222467Y-103605391D01*
X172919635Y-103152172D01*
X172497336Y-102870000D01*
X172919635Y-102587828D01*
X173222467Y-102134609D01*
X173328807Y-101600000D01*
X173222467Y-101065391D01*
X172919635Y-100612172D01*
X172497336Y-100330000D01*
X172919635Y-100047828D01*
X173222467Y-99594609D01*
X173328807Y-99060000D01*
X173222467Y-98525391D01*
X172919635Y-98072172D01*
X172497336Y-97790000D01*
X172699377Y-97655000D01*
X175589868Y-97655000D01*
X177905000Y-99970132D01*
X177905000Y-99970132D01*
G37*
X177905000Y-99970132D02*
X177905000Y-126969964D01*
X177849580Y-126883839D01*
X177637380Y-126738849D01*
X177385490Y-126687840D01*
X176972166Y-126687840D01*
X176820346Y-126586397D01*
X176386000Y-126500000D01*
X174905000Y-126500000D01*
X174470654Y-126586397D01*
X174169831Y-126787401D01*
X174102434Y-126832434D01*
X172597764Y-128337104D01*
X172497336Y-128270000D01*
X172919635Y-127987828D01*
X173222467Y-127534609D01*
X173328807Y-127000000D01*
X173222467Y-126465391D01*
X172919635Y-126012172D01*
X172484394Y-125721353D01*
X172549761Y-125702059D01*
X172975450Y-125358026D01*
X173237080Y-124877277D01*
X173252040Y-124803070D01*
X173129540Y-124587000D01*
X171687000Y-124587000D01*
X171687000Y-124607000D01*
X171433000Y-124607000D01*
X171433000Y-124587000D01*
X169990460Y-124587000D01*
X169867960Y-124803070D01*
X169882920Y-124877277D01*
X170144550Y-125358026D01*
X170570239Y-125702059D01*
X170635606Y-125721353D01*
X170450555Y-125845000D01*
X164639377Y-125845000D01*
X164424394Y-125701353D01*
X164489761Y-125682059D01*
X164915450Y-125338026D01*
X165177080Y-124857277D01*
X165192040Y-124783070D01*
X165069540Y-124567000D01*
X163627000Y-124567000D01*
X163627000Y-124587000D01*
X163373000Y-124587000D01*
X163373000Y-124567000D01*
X161930460Y-124567000D01*
X161807960Y-124783070D01*
X161822920Y-124857277D01*
X162084550Y-125338026D01*
X162510239Y-125682059D01*
X162575606Y-125701353D01*
X162140365Y-125992172D01*
X161837533Y-126445391D01*
X161731193Y-126980000D01*
X161837533Y-127514609D01*
X162140365Y-127967828D01*
X162562664Y-128250000D01*
X162140365Y-128532172D01*
X161837533Y-128985391D01*
X161731193Y-129520000D01*
X161837533Y-130054609D01*
X162140365Y-130507828D01*
X162562664Y-130790000D01*
X162140365Y-131072172D01*
X161837533Y-131525391D01*
X161731193Y-132060000D01*
X161837533Y-132594609D01*
X162140365Y-133047828D01*
X162240895Y-133115000D01*
X160385000Y-133115000D01*
X160385000Y-129750000D01*
X160324284Y-129444760D01*
X160260543Y-129124312D01*
X160077459Y-128850308D01*
X159906120Y-128593880D01*
X159906117Y-128593878D01*
X154656120Y-123343880D01*
X154125688Y-122989457D01*
X153500000Y-122864999D01*
X153499995Y-122865000D01*
X127677240Y-122865000D01*
X123847240Y-119035000D01*
X134250000Y-119035000D01*
X134550407Y-118975245D01*
X134805079Y-118805079D01*
X135925005Y-117685153D01*
X135935167Y-117685162D01*
X136278943Y-117543117D01*
X136542192Y-117280327D01*
X136684838Y-116936799D01*
X136685040Y-116705000D01*
X137290623Y-116705000D01*
X137523584Y-116860660D01*
X138058193Y-116967000D01*
X138801807Y-116967000D01*
X139336416Y-116860660D01*
X139569377Y-116705000D01*
X155599868Y-116705000D01*
X159077434Y-120182566D01*
X159445655Y-120428604D01*
X159880000Y-120515000D01*
X162390555Y-120515000D01*
X162562664Y-120630000D01*
X162140365Y-120912172D01*
X161837533Y-121365391D01*
X161731193Y-121900000D01*
X161837533Y-122434609D01*
X162140365Y-122887828D01*
X162575606Y-123178647D01*
X162510239Y-123197941D01*
X162084550Y-123541974D01*
X161822920Y-124022723D01*
X161807960Y-124096930D01*
X161930460Y-124313000D01*
X163373000Y-124313000D01*
X163373000Y-124293000D01*
X163627000Y-124293000D01*
X163627000Y-124313000D01*
X165069540Y-124313000D01*
X165192040Y-124096930D01*
X165177080Y-124022723D01*
X164915450Y-123541974D01*
X164489761Y-123197941D01*
X164424394Y-123178647D01*
X164639377Y-123035000D01*
X170390691Y-123035000D01*
X170635606Y-123198647D01*
X170570239Y-123217941D01*
X170144550Y-123561974D01*
X169882920Y-124042723D01*
X169867960Y-124116930D01*
X169990460Y-124333000D01*
X171433000Y-124333000D01*
X171433000Y-124313000D01*
X171687000Y-124313000D01*
X171687000Y-124333000D01*
X173129540Y-124333000D01*
X173252040Y-124116930D01*
X173237080Y-124042723D01*
X172975450Y-123561974D01*
X172549761Y-123217941D01*
X172484394Y-123198647D01*
X172919635Y-122907828D01*
X173222467Y-122454609D01*
X173328807Y-121920000D01*
X173222467Y-121385391D01*
X172919635Y-120932172D01*
X172497336Y-120650000D01*
X172919635Y-120367828D01*
X173222467Y-119914609D01*
X173328807Y-119380000D01*
X173222467Y-118845391D01*
X172919635Y-118392172D01*
X172497336Y-118110000D01*
X172919635Y-117827828D01*
X173222467Y-117374609D01*
X173328807Y-116840000D01*
X173222467Y-116305391D01*
X172919635Y-115852172D01*
X172497336Y-115570000D01*
X172919635Y-115287828D01*
X173222467Y-114834609D01*
X173328807Y-114300000D01*
X173222467Y-113765391D01*
X172919635Y-113312172D01*
X172497336Y-113030000D01*
X172919635Y-112747828D01*
X173222467Y-112294609D01*
X173328807Y-111760000D01*
X173222467Y-111225391D01*
X172919635Y-110772172D01*
X172497336Y-110490000D01*
X172919635Y-110207828D01*
X173222467Y-109754609D01*
X173328807Y-109220000D01*
X173222467Y-108685391D01*
X172919635Y-108232172D01*
X172497336Y-107950000D01*
X172919635Y-107667828D01*
X173222467Y-107214609D01*
X173328807Y-106680000D01*
X173222467Y-106145391D01*
X172919635Y-105692172D01*
X172497336Y-105410000D01*
X172919635Y-105127828D01*
X173222467Y-104674609D01*
X173328807Y-104140000D01*
X173222467Y-103605391D01*
X172919635Y-103152172D01*
X172497336Y-102870000D01*
X172919635Y-102587828D01*
X173222467Y-102134609D01*
X173328807Y-101600000D01*
X173222467Y-101065391D01*
X172919635Y-100612172D01*
X172497336Y-100330000D01*
X172919635Y-100047828D01*
X173222467Y-99594609D01*
X173328807Y-99060000D01*
X173222467Y-98525391D01*
X172919635Y-98072172D01*
X172497336Y-97790000D01*
X172699377Y-97655000D01*
X175589868Y-97655000D01*
X177905000Y-99970132D01*
G36*
X117199921Y-123310079D02*
X120383160Y-126493318D01*
X120383160Y-128000873D01*
X120267139Y-128075530D01*
X120122149Y-128287730D01*
X120071140Y-128539620D01*
X120071140Y-128849062D01*
X120033160Y-129040000D01*
X120033160Y-129321708D01*
X119922178Y-129432690D01*
X117880130Y-129432690D01*
X117644813Y-129476968D01*
X117428689Y-129616040D01*
X117283699Y-129828240D01*
X117232690Y-130080130D01*
X117232690Y-133079870D01*
X117239300Y-133115000D01*
X115935000Y-133115000D01*
X115935000Y-132964383D01*
X116108800Y-132790886D01*
X116434499Y-132006515D01*
X116435240Y-131157211D01*
X116110910Y-130372273D01*
X115510886Y-129771200D01*
X114726515Y-129445501D01*
X113877211Y-129444760D01*
X113801270Y-129476138D01*
X113646840Y-129321708D01*
X113646840Y-129040000D01*
X113608860Y-128849062D01*
X113608860Y-128539620D01*
X113564582Y-128304303D01*
X113425510Y-128088179D01*
X113213310Y-127943189D01*
X112961420Y-127892180D01*
X112467978Y-127892180D01*
X117139903Y-123220255D01*
X117199921Y-123310079D01*
X117199921Y-123310079D01*
G37*
X117199921Y-123310079D02*
X120383160Y-126493318D01*
X120383160Y-128000873D01*
X120267139Y-128075530D01*
X120122149Y-128287730D01*
X120071140Y-128539620D01*
X120071140Y-128849062D01*
X120033160Y-129040000D01*
X120033160Y-129321708D01*
X119922178Y-129432690D01*
X117880130Y-129432690D01*
X117644813Y-129476968D01*
X117428689Y-129616040D01*
X117283699Y-129828240D01*
X117232690Y-130080130D01*
X117232690Y-133079870D01*
X117239300Y-133115000D01*
X115935000Y-133115000D01*
X115935000Y-132964383D01*
X116108800Y-132790886D01*
X116434499Y-132006515D01*
X116435240Y-131157211D01*
X116110910Y-130372273D01*
X115510886Y-129771200D01*
X114726515Y-129445501D01*
X113877211Y-129444760D01*
X113801270Y-129476138D01*
X113646840Y-129321708D01*
X113646840Y-129040000D01*
X113608860Y-128849062D01*
X113608860Y-128539620D01*
X113564582Y-128304303D01*
X113425510Y-128088179D01*
X113213310Y-127943189D01*
X112961420Y-127892180D01*
X112467978Y-127892180D01*
X117139903Y-123220255D01*
X117199921Y-123310079D01*
G36*
X90133081Y-127256761D02*
X89962915Y-127511433D01*
X89962915Y-127511434D01*
X89903160Y-127811840D01*
X89903160Y-128000873D01*
X89787139Y-128075530D01*
X89642149Y-128287730D01*
X89591140Y-128539620D01*
X89591140Y-128849062D01*
X89553160Y-129040000D01*
X89553160Y-129248304D01*
X89442178Y-129359286D01*
X87400130Y-129359286D01*
X87164813Y-129403564D01*
X86948689Y-129542636D01*
X86803699Y-129754836D01*
X86752690Y-130006726D01*
X86752690Y-133006466D01*
X86773112Y-133115000D01*
X85455000Y-133115000D01*
X85455000Y-132890979D01*
X85628800Y-132717482D01*
X85954499Y-131933111D01*
X85955240Y-131083807D01*
X85630910Y-130298869D01*
X85030886Y-129697796D01*
X84246515Y-129372097D01*
X83397211Y-129371356D01*
X83321270Y-129402734D01*
X83166840Y-129248304D01*
X83166840Y-128966596D01*
X83128860Y-128775658D01*
X83128860Y-128466216D01*
X83084582Y-128230899D01*
X82945510Y-128014775D01*
X82733310Y-127869785D01*
X82481420Y-127818776D01*
X82041382Y-127818776D01*
X83575158Y-126285000D01*
X91104842Y-126285000D01*
X90133081Y-127256761D01*
X90133081Y-127256761D01*
G37*
X90133081Y-127256761D02*
X89962915Y-127511433D01*
X89962915Y-127511434D01*
X89903160Y-127811840D01*
X89903160Y-128000873D01*
X89787139Y-128075530D01*
X89642149Y-128287730D01*
X89591140Y-128539620D01*
X89591140Y-128849062D01*
X89553160Y-129040000D01*
X89553160Y-129248304D01*
X89442178Y-129359286D01*
X87400130Y-129359286D01*
X87164813Y-129403564D01*
X86948689Y-129542636D01*
X86803699Y-129754836D01*
X86752690Y-130006726D01*
X86752690Y-133006466D01*
X86773112Y-133115000D01*
X85455000Y-133115000D01*
X85455000Y-132890979D01*
X85628800Y-132717482D01*
X85954499Y-131933111D01*
X85955240Y-131083807D01*
X85630910Y-130298869D01*
X85030886Y-129697796D01*
X84246515Y-129372097D01*
X83397211Y-129371356D01*
X83321270Y-129402734D01*
X83166840Y-129248304D01*
X83166840Y-128966596D01*
X83128860Y-128775658D01*
X83128860Y-128466216D01*
X83084582Y-128230899D01*
X82945510Y-128014775D01*
X82733310Y-127869785D01*
X82481420Y-127818776D01*
X82041382Y-127818776D01*
X83575158Y-126285000D01*
X91104842Y-126285000D01*
X90133081Y-127256761D01*
G36*
X100293081Y-127346761D02*
X100122915Y-127601433D01*
X100072199Y-127856397D01*
X100063160Y-127901840D01*
X100063160Y-128000873D01*
X99947139Y-128075530D01*
X99802149Y-128287730D01*
X99751140Y-128539620D01*
X99751140Y-128849062D01*
X99713160Y-129040000D01*
X99713160Y-129321708D01*
X99602178Y-129432690D01*
X97560130Y-129432690D01*
X97324813Y-129476968D01*
X97108689Y-129616040D01*
X96963699Y-129828240D01*
X96912690Y-130080130D01*
X96912690Y-133079870D01*
X96919300Y-133115000D01*
X95615000Y-133115000D01*
X95615000Y-132890979D01*
X95788800Y-132717482D01*
X96114499Y-131933111D01*
X96115240Y-131083807D01*
X95790910Y-130298869D01*
X95190886Y-129697796D01*
X94406515Y-129372097D01*
X93557211Y-129371356D01*
X93481270Y-129402734D01*
X93326840Y-129248304D01*
X93326840Y-129040000D01*
X93288860Y-128849062D01*
X93288860Y-128539620D01*
X93244582Y-128304303D01*
X93105510Y-128088179D01*
X92893310Y-127943189D01*
X92641420Y-127892180D01*
X91742260Y-127892180D01*
X91712350Y-127897808D01*
X92575158Y-127035000D01*
X100604842Y-127035000D01*
X100293081Y-127346761D01*
X100293081Y-127346761D01*
G37*
X100293081Y-127346761D02*
X100122915Y-127601433D01*
X100072199Y-127856397D01*
X100063160Y-127901840D01*
X100063160Y-128000873D01*
X99947139Y-128075530D01*
X99802149Y-128287730D01*
X99751140Y-128539620D01*
X99751140Y-128849062D01*
X99713160Y-129040000D01*
X99713160Y-129321708D01*
X99602178Y-129432690D01*
X97560130Y-129432690D01*
X97324813Y-129476968D01*
X97108689Y-129616040D01*
X96963699Y-129828240D01*
X96912690Y-130080130D01*
X96912690Y-133079870D01*
X96919300Y-133115000D01*
X95615000Y-133115000D01*
X95615000Y-132890979D01*
X95788800Y-132717482D01*
X96114499Y-131933111D01*
X96115240Y-131083807D01*
X95790910Y-130298869D01*
X95190886Y-129697796D01*
X94406515Y-129372097D01*
X93557211Y-129371356D01*
X93481270Y-129402734D01*
X93326840Y-129248304D01*
X93326840Y-129040000D01*
X93288860Y-128849062D01*
X93288860Y-128539620D01*
X93244582Y-128304303D01*
X93105510Y-128088179D01*
X92893310Y-127943189D01*
X92641420Y-127892180D01*
X91742260Y-127892180D01*
X91712350Y-127897808D01*
X92575158Y-127035000D01*
X100604842Y-127035000D01*
X100293081Y-127346761D01*
G36*
X110274755Y-127949593D02*
X110270631Y-127970326D01*
X110107139Y-128075530D01*
X109962149Y-128287730D01*
X109911140Y-128539620D01*
X109911140Y-128849062D01*
X109873160Y-129040000D01*
X109873160Y-129321708D01*
X109762178Y-129432690D01*
X107720130Y-129432690D01*
X107484813Y-129476968D01*
X107268689Y-129616040D01*
X107123699Y-129828240D01*
X107072690Y-130080130D01*
X107072690Y-133079870D01*
X107079300Y-133115000D01*
X105775000Y-133115000D01*
X105775000Y-132964383D01*
X105948800Y-132790886D01*
X106274499Y-132006515D01*
X106275240Y-131157211D01*
X105950910Y-130372273D01*
X105350886Y-129771200D01*
X104566515Y-129445501D01*
X103717211Y-129444760D01*
X103641270Y-129476138D01*
X103486840Y-129321708D01*
X103486840Y-129040000D01*
X103448860Y-128849062D01*
X103448860Y-128539620D01*
X103404582Y-128304303D01*
X103265510Y-128088179D01*
X103053310Y-127943189D01*
X102801420Y-127892180D01*
X101967978Y-127892180D01*
X102100158Y-127760000D01*
X110401437Y-127760000D01*
X110274755Y-127949593D01*
X110274755Y-127949593D01*
G37*
X110274755Y-127949593D02*
X110270631Y-127970326D01*
X110107139Y-128075530D01*
X109962149Y-128287730D01*
X109911140Y-128539620D01*
X109911140Y-128849062D01*
X109873160Y-129040000D01*
X109873160Y-129321708D01*
X109762178Y-129432690D01*
X107720130Y-129432690D01*
X107484813Y-129476968D01*
X107268689Y-129616040D01*
X107123699Y-129828240D01*
X107072690Y-130080130D01*
X107072690Y-133079870D01*
X107079300Y-133115000D01*
X105775000Y-133115000D01*
X105775000Y-132964383D01*
X105948800Y-132790886D01*
X106274499Y-132006515D01*
X106275240Y-131157211D01*
X105950910Y-130372273D01*
X105350886Y-129771200D01*
X104566515Y-129445501D01*
X103717211Y-129444760D01*
X103641270Y-129476138D01*
X103486840Y-129321708D01*
X103486840Y-129040000D01*
X103448860Y-128849062D01*
X103448860Y-128539620D01*
X103404582Y-128304303D01*
X103265510Y-128088179D01*
X103053310Y-127943189D01*
X102801420Y-127892180D01*
X101967978Y-127892180D01*
X102100158Y-127760000D01*
X110401437Y-127760000D01*
X110274755Y-127949593D01*
G36*
X191557960Y-129146930D02*
X191680460Y-129363000D01*
X193123000Y-129363000D01*
X193123000Y-129343000D01*
X193377000Y-129343000D01*
X193377000Y-129363000D01*
X194819540Y-129363000D01*
X194942040Y-129146930D01*
X194931976Y-129097010D01*
X198151410Y-129097010D01*
X197381410Y-129867010D01*
X194935198Y-129867010D01*
X194942040Y-129833070D01*
X194819540Y-129617000D01*
X193377000Y-129617000D01*
X193377000Y-129637000D01*
X193123000Y-129637000D01*
X193123000Y-129617000D01*
X191680460Y-129617000D01*
X191557960Y-129833070D01*
X191564802Y-129867010D01*
X188481665Y-129867010D01*
X188368270Y-129667000D01*
X186927000Y-129667000D01*
X186927000Y-129687000D01*
X186673000Y-129687000D01*
X186673000Y-129667000D01*
X186653000Y-129667000D01*
X186653000Y-129413000D01*
X186673000Y-129413000D01*
X186673000Y-129393000D01*
X186927000Y-129393000D01*
X186927000Y-129413000D01*
X188368270Y-129413000D01*
X188490770Y-129196930D01*
X188475810Y-129122723D01*
X188461817Y-129097010D01*
X191568024Y-129097010D01*
X191557960Y-129146930D01*
X191557960Y-129146930D01*
G37*
X191557960Y-129146930D02*
X191680460Y-129363000D01*
X193123000Y-129363000D01*
X193123000Y-129343000D01*
X193377000Y-129343000D01*
X193377000Y-129363000D01*
X194819540Y-129363000D01*
X194942040Y-129146930D01*
X194931976Y-129097010D01*
X198151410Y-129097010D01*
X197381410Y-129867010D01*
X194935198Y-129867010D01*
X194942040Y-129833070D01*
X194819540Y-129617000D01*
X193377000Y-129617000D01*
X193377000Y-129637000D01*
X193123000Y-129637000D01*
X193123000Y-129617000D01*
X191680460Y-129617000D01*
X191557960Y-129833070D01*
X191564802Y-129867010D01*
X188481665Y-129867010D01*
X188368270Y-129667000D01*
X186927000Y-129667000D01*
X186927000Y-129687000D01*
X186673000Y-129687000D01*
X186673000Y-129667000D01*
X186653000Y-129667000D01*
X186653000Y-129413000D01*
X186673000Y-129413000D01*
X186673000Y-129393000D01*
X186927000Y-129393000D01*
X186927000Y-129413000D01*
X188368270Y-129413000D01*
X188490770Y-129196930D01*
X188475810Y-129122723D01*
X188461817Y-129097010D01*
X191568024Y-129097010D01*
X191557960Y-129146930D01*
G36*
X98340590Y-110860984D02*
X99060000Y-111580395D01*
X99074142Y-111566252D01*
X99253748Y-111745858D01*
X99239605Y-111760000D01*
X99959016Y-112479410D01*
X100189611Y-112423729D01*
X100357622Y-111940922D01*
X100328083Y-111430572D01*
X100189611Y-111096271D01*
X99959018Y-111040590D01*
X100074478Y-110925130D01*
X100044348Y-110895000D01*
X107332760Y-110895000D01*
X112343880Y-115906119D01*
X112874312Y-116260542D01*
X113500000Y-116385000D01*
X114125687Y-116260542D01*
X114370000Y-116097297D01*
X114370000Y-121019842D01*
X110674842Y-124715000D01*
X83250000Y-124715000D01*
X82949593Y-124774755D01*
X82694921Y-124944921D01*
X79973081Y-127666761D01*
X79961802Y-127683642D01*
X79944921Y-127694921D01*
X79824519Y-127875115D01*
X79627139Y-128002126D01*
X79482149Y-128214326D01*
X79431140Y-128466216D01*
X79431140Y-128775658D01*
X79393160Y-128966596D01*
X79393160Y-129248304D01*
X79282178Y-129359286D01*
X77240130Y-129359286D01*
X77004813Y-129403564D01*
X76788689Y-129542636D01*
X76643699Y-129754836D01*
X76635000Y-129797793D01*
X76635000Y-128340005D01*
X76635001Y-128340000D01*
X76510543Y-127714313D01*
X76457548Y-127635000D01*
X76156120Y-127183880D01*
X76156117Y-127183878D01*
X75067239Y-126095000D01*
X78539995Y-126095000D01*
X78540000Y-126095001D01*
X79165688Y-125970543D01*
X79696120Y-125616120D01*
X84976117Y-120336122D01*
X84976120Y-120336120D01*
X85330543Y-119805687D01*
X85338766Y-119764346D01*
X85455001Y-119180000D01*
X85455000Y-119179995D01*
X85455000Y-115935000D01*
X91491035Y-115935000D01*
X91491040Y-115935001D01*
X92116728Y-115810543D01*
X92607053Y-115482919D01*
X92666268Y-115471140D01*
X93115779Y-115170786D01*
X93416133Y-114721275D01*
X93521603Y-114191040D01*
X93416133Y-113660805D01*
X93115779Y-113211294D01*
X92666268Y-112910940D01*
X92656968Y-112909090D01*
X92746677Y-112882539D01*
X93022832Y-112659016D01*
X98340590Y-112659016D01*
X98396271Y-112889611D01*
X98879078Y-113057622D01*
X99389428Y-113028083D01*
X99723729Y-112889611D01*
X99779410Y-112659016D01*
X99060000Y-111939605D01*
X98340590Y-112659016D01*
X93022832Y-112659016D01*
X93168658Y-112540984D01*
X93333547Y-112237460D01*
X93564250Y-112237460D01*
X93723000Y-112078710D01*
X93723000Y-111279880D01*
X93977000Y-111279880D01*
X93977000Y-112078710D01*
X94135750Y-112237460D01*
X94476690Y-112237460D01*
X94710079Y-112140787D01*
X94888707Y-111962158D01*
X94985380Y-111728769D01*
X94985380Y-111579078D01*
X97762378Y-111579078D01*
X97791917Y-112089428D01*
X97930389Y-112423729D01*
X98160984Y-112479410D01*
X98880395Y-111760000D01*
X98160984Y-111040590D01*
X97930389Y-111096271D01*
X97762378Y-111579078D01*
X94985380Y-111579078D01*
X94985380Y-111438630D01*
X94826630Y-111279880D01*
X93977000Y-111279880D01*
X93723000Y-111279880D01*
X93703000Y-111279880D01*
X93703000Y-111025880D01*
X93723000Y-111025880D01*
X93723000Y-111005880D01*
X93977000Y-111005880D01*
X93977000Y-111025880D01*
X94826630Y-111025880D01*
X94985380Y-110867130D01*
X94985380Y-110746040D01*
X98368345Y-110746040D01*
X98340590Y-110860984D01*
X98340590Y-110860984D01*
G37*
X98340590Y-110860984D02*
X99060000Y-111580395D01*
X99074142Y-111566252D01*
X99253748Y-111745858D01*
X99239605Y-111760000D01*
X99959016Y-112479410D01*
X100189611Y-112423729D01*
X100357622Y-111940922D01*
X100328083Y-111430572D01*
X100189611Y-111096271D01*
X99959018Y-111040590D01*
X100074478Y-110925130D01*
X100044348Y-110895000D01*
X107332760Y-110895000D01*
X112343880Y-115906119D01*
X112874312Y-116260542D01*
X113500000Y-116385000D01*
X114125687Y-116260542D01*
X114370000Y-116097297D01*
X114370000Y-121019842D01*
X110674842Y-124715000D01*
X83250000Y-124715000D01*
X82949593Y-124774755D01*
X82694921Y-124944921D01*
X79973081Y-127666761D01*
X79961802Y-127683642D01*
X79944921Y-127694921D01*
X79824519Y-127875115D01*
X79627139Y-128002126D01*
X79482149Y-128214326D01*
X79431140Y-128466216D01*
X79431140Y-128775658D01*
X79393160Y-128966596D01*
X79393160Y-129248304D01*
X79282178Y-129359286D01*
X77240130Y-129359286D01*
X77004813Y-129403564D01*
X76788689Y-129542636D01*
X76643699Y-129754836D01*
X76635000Y-129797793D01*
X76635000Y-128340005D01*
X76635001Y-128340000D01*
X76510543Y-127714313D01*
X76457548Y-127635000D01*
X76156120Y-127183880D01*
X76156117Y-127183878D01*
X75067239Y-126095000D01*
X78539995Y-126095000D01*
X78540000Y-126095001D01*
X79165688Y-125970543D01*
X79696120Y-125616120D01*
X84976117Y-120336122D01*
X84976120Y-120336120D01*
X85330543Y-119805687D01*
X85338766Y-119764346D01*
X85455001Y-119180000D01*
X85455000Y-119179995D01*
X85455000Y-115935000D01*
X91491035Y-115935000D01*
X91491040Y-115935001D01*
X92116728Y-115810543D01*
X92607053Y-115482919D01*
X92666268Y-115471140D01*
X93115779Y-115170786D01*
X93416133Y-114721275D01*
X93521603Y-114191040D01*
X93416133Y-113660805D01*
X93115779Y-113211294D01*
X92666268Y-112910940D01*
X92656968Y-112909090D01*
X92746677Y-112882539D01*
X93022832Y-112659016D01*
X98340590Y-112659016D01*
X98396271Y-112889611D01*
X98879078Y-113057622D01*
X99389428Y-113028083D01*
X99723729Y-112889611D01*
X99779410Y-112659016D01*
X99060000Y-111939605D01*
X98340590Y-112659016D01*
X93022832Y-112659016D01*
X93168658Y-112540984D01*
X93333547Y-112237460D01*
X93564250Y-112237460D01*
X93723000Y-112078710D01*
X93723000Y-111279880D01*
X93977000Y-111279880D01*
X93977000Y-112078710D01*
X94135750Y-112237460D01*
X94476690Y-112237460D01*
X94710079Y-112140787D01*
X94888707Y-111962158D01*
X94985380Y-111728769D01*
X94985380Y-111579078D01*
X97762378Y-111579078D01*
X97791917Y-112089428D01*
X97930389Y-112423729D01*
X98160984Y-112479410D01*
X98880395Y-111760000D01*
X98160984Y-111040590D01*
X97930389Y-111096271D01*
X97762378Y-111579078D01*
X94985380Y-111579078D01*
X94985380Y-111438630D01*
X94826630Y-111279880D01*
X93977000Y-111279880D01*
X93723000Y-111279880D01*
X93703000Y-111279880D01*
X93703000Y-111025880D01*
X93723000Y-111025880D01*
X93723000Y-111005880D01*
X93977000Y-111005880D01*
X93977000Y-111025880D01*
X94826630Y-111025880D01*
X94985380Y-110867130D01*
X94985380Y-110746040D01*
X98368345Y-110746040D01*
X98340590Y-110860984D01*
G36*
X185863959Y-125730000D02*
X185441660Y-126012172D01*
X185138828Y-126465391D01*
X185032488Y-127000000D01*
X185138828Y-127534609D01*
X185284784Y-127753047D01*
X185017830Y-128020000D01*
X183603660Y-128020000D01*
X183620930Y-127934720D01*
X183620930Y-127385380D01*
X183668842Y-127385380D01*
X183668842Y-127226632D01*
X183827590Y-127385380D01*
X184117729Y-127385380D01*
X184351118Y-127288707D01*
X184529747Y-127110079D01*
X184626420Y-126876690D01*
X184626420Y-126535750D01*
X184467670Y-126377000D01*
X183668840Y-126377000D01*
X183668840Y-126397000D01*
X183414840Y-126397000D01*
X183414840Y-126377000D01*
X183394840Y-126377000D01*
X183394840Y-126123000D01*
X183414840Y-126123000D01*
X183414840Y-126103000D01*
X183668840Y-126103000D01*
X183668840Y-126123000D01*
X184467670Y-126123000D01*
X184626420Y-125964250D01*
X184626420Y-125623310D01*
X184614694Y-125595000D01*
X185661918Y-125595000D01*
X185863959Y-125730000D01*
X185863959Y-125730000D01*
G37*
X185863959Y-125730000D02*
X185441660Y-126012172D01*
X185138828Y-126465391D01*
X185032488Y-127000000D01*
X185138828Y-127534609D01*
X185284784Y-127753047D01*
X185017830Y-128020000D01*
X183603660Y-128020000D01*
X183620930Y-127934720D01*
X183620930Y-127385380D01*
X183668842Y-127385380D01*
X183668842Y-127226632D01*
X183827590Y-127385380D01*
X184117729Y-127385380D01*
X184351118Y-127288707D01*
X184529747Y-127110079D01*
X184626420Y-126876690D01*
X184626420Y-126535750D01*
X184467670Y-126377000D01*
X183668840Y-126377000D01*
X183668840Y-126397000D01*
X183414840Y-126397000D01*
X183414840Y-126377000D01*
X183394840Y-126377000D01*
X183394840Y-126123000D01*
X183414840Y-126123000D01*
X183414840Y-126103000D01*
X183668840Y-126103000D01*
X183668840Y-126123000D01*
X184467670Y-126123000D01*
X184626420Y-125964250D01*
X184626420Y-125623310D01*
X184614694Y-125595000D01*
X185661918Y-125595000D01*
X185863959Y-125730000D01*
G36*
X120643877Y-120456116D02*
X120643879Y-120456119D01*
X125652760Y-125465000D01*
X124575158Y-125465000D01*
X120490000Y-121379842D01*
X120490000Y-120302240D01*
X120643877Y-120456116D01*
X120643877Y-120456116D01*
G37*
X120643877Y-120456116D02*
X120643879Y-120456119D01*
X125652760Y-125465000D01*
X124575158Y-125465000D01*
X120490000Y-121379842D01*
X120490000Y-120302240D01*
X120643877Y-120456116D01*
G36*
X77529114Y-93248800D02*
X78313485Y-93574499D01*
X79162789Y-93575240D01*
X79238730Y-93543862D01*
X79393160Y-93698292D01*
X79393160Y-93980000D01*
X79431140Y-94170938D01*
X79431140Y-94480380D01*
X79475418Y-94715697D01*
X79614490Y-94931821D01*
X79826690Y-95076811D01*
X80078580Y-95127820D01*
X80977740Y-95127820D01*
X81213057Y-95083542D01*
X81278546Y-95041401D01*
X81330370Y-95076811D01*
X81582260Y-95127820D01*
X82018702Y-95127820D01*
X84195959Y-97305076D01*
X84195961Y-97305079D01*
X84431708Y-97462599D01*
X84450634Y-97475245D01*
X84751040Y-97535001D01*
X84751045Y-97535000D01*
X106424842Y-97535000D01*
X114370000Y-105480158D01*
X114370000Y-108098569D01*
X114357560Y-108160000D01*
X114357560Y-109760000D01*
X114401838Y-109995317D01*
X114540910Y-110211441D01*
X114753110Y-110356431D01*
X115005000Y-110407440D01*
X115305000Y-110407440D01*
X115486424Y-110373303D01*
X115655000Y-110407440D01*
X115670873Y-110407440D01*
X115660000Y-110433690D01*
X115660000Y-111474250D01*
X115818750Y-111633000D01*
X119253000Y-111633000D01*
X119253000Y-111613000D01*
X119507000Y-111613000D01*
X119507000Y-111633000D01*
X119527000Y-111633000D01*
X119527000Y-111887000D01*
X119507000Y-111887000D01*
X119507000Y-111907000D01*
X119253000Y-111907000D01*
X119253000Y-111887000D01*
X115818750Y-111887000D01*
X115660000Y-112045750D01*
X115660000Y-113086310D01*
X115670873Y-113112560D01*
X115655000Y-113112560D01*
X115473576Y-113146697D01*
X115305000Y-113112560D01*
X115005000Y-113112560D01*
X114769683Y-113156838D01*
X114553559Y-113295910D01*
X114474238Y-113411999D01*
X109166120Y-108103880D01*
X108635688Y-107749457D01*
X108010000Y-107624999D01*
X108009995Y-107625000D01*
X99573399Y-107625000D01*
X99536728Y-107600497D01*
X98911040Y-107476039D01*
X98911035Y-107476040D01*
X91600000Y-107476040D01*
X90974313Y-107600497D01*
X90669994Y-107803836D01*
X90533732Y-107830940D01*
X90084221Y-108131294D01*
X89783867Y-108580805D01*
X89678397Y-109111040D01*
X89783867Y-109641275D01*
X90084221Y-110090786D01*
X90533732Y-110391140D01*
X90543032Y-110392990D01*
X90453323Y-110419541D01*
X90031342Y-110761096D01*
X89866453Y-111064620D01*
X89635750Y-111064620D01*
X89477000Y-111223370D01*
X89477000Y-112022200D01*
X89497000Y-112022200D01*
X89497000Y-112276200D01*
X89477000Y-112276200D01*
X89477000Y-112296200D01*
X89223000Y-112296200D01*
X89223000Y-112276200D01*
X88373370Y-112276200D01*
X88214620Y-112434950D01*
X88214620Y-112665000D01*
X83820000Y-112665000D01*
X83194313Y-112789457D01*
X82663880Y-113143880D01*
X82309457Y-113674313D01*
X82185000Y-114300000D01*
X82185000Y-118502761D01*
X77862760Y-122825000D01*
X72504383Y-122825000D01*
X72330886Y-122651200D01*
X71546515Y-122325501D01*
X70697211Y-122324760D01*
X69912273Y-122649090D01*
X69736055Y-122825000D01*
X69257239Y-122825000D01*
X69135000Y-122702760D01*
X69135000Y-121292765D01*
X69260431Y-121418197D01*
X69493820Y-121514870D01*
X70834250Y-121514870D01*
X70993000Y-121356120D01*
X70993000Y-119507000D01*
X71247000Y-119507000D01*
X71247000Y-121356120D01*
X71405750Y-121514870D01*
X72746180Y-121514870D01*
X72979569Y-121418197D01*
X73158197Y-121239568D01*
X73254870Y-121006179D01*
X73254870Y-119665750D01*
X73096120Y-119507000D01*
X71247000Y-119507000D01*
X70993000Y-119507000D01*
X70973000Y-119507000D01*
X70973000Y-119253000D01*
X70993000Y-119253000D01*
X70993000Y-117403880D01*
X71247000Y-117403880D01*
X71247000Y-119253000D01*
X73096120Y-119253000D01*
X73254870Y-119094250D01*
X73254870Y-117753821D01*
X73158197Y-117520432D01*
X72979569Y-117341803D01*
X72746180Y-117245130D01*
X71405750Y-117245130D01*
X71247000Y-117403880D01*
X70993000Y-117403880D01*
X70834250Y-117245130D01*
X69493820Y-117245130D01*
X69260431Y-117341803D01*
X69135000Y-117467235D01*
X69135000Y-115813877D01*
X69785728Y-115813877D01*
X69945495Y-116132632D01*
X70736217Y-116442595D01*
X71585366Y-116426367D01*
X72294505Y-116132632D01*
X72454272Y-115813877D01*
X71120000Y-114479605D01*
X69785728Y-115813877D01*
X69135000Y-115813877D01*
X69135000Y-115106656D01*
X69287368Y-115474505D01*
X69606123Y-115634272D01*
X70940395Y-114300000D01*
X71299605Y-114300000D01*
X72633877Y-115634272D01*
X72952632Y-115474505D01*
X73262595Y-114683783D01*
X73246367Y-113834634D01*
X72952632Y-113125495D01*
X72633877Y-112965728D01*
X71299605Y-114300000D01*
X70940395Y-114300000D01*
X69606123Y-112965728D01*
X69287368Y-113125495D01*
X69135000Y-113514189D01*
X69135000Y-112786123D01*
X69785728Y-112786123D01*
X71120000Y-114120395D01*
X72454272Y-112786123D01*
X72294505Y-112467368D01*
X71503783Y-112157405D01*
X70654634Y-112173633D01*
X69945495Y-112467368D01*
X69785728Y-112786123D01*
X69135000Y-112786123D01*
X69135000Y-111399016D01*
X83100590Y-111399016D01*
X83156271Y-111629611D01*
X83639078Y-111797622D01*
X84149428Y-111768083D01*
X84483729Y-111629611D01*
X84497323Y-111573311D01*
X88214620Y-111573311D01*
X88214620Y-111863450D01*
X88373370Y-112022200D01*
X89223000Y-112022200D01*
X89223000Y-111223370D01*
X89064250Y-111064620D01*
X88723310Y-111064620D01*
X88489921Y-111161293D01*
X88311293Y-111339922D01*
X88214620Y-111573311D01*
X84497323Y-111573311D01*
X84539410Y-111399016D01*
X83820000Y-110679605D01*
X83100590Y-111399016D01*
X69135000Y-111399016D01*
X69135000Y-111132765D01*
X69260431Y-111258197D01*
X69493820Y-111354870D01*
X70834250Y-111354870D01*
X70993000Y-111196120D01*
X70993000Y-109347000D01*
X71247000Y-109347000D01*
X71247000Y-111196120D01*
X71405750Y-111354870D01*
X72746180Y-111354870D01*
X72979569Y-111258197D01*
X73158197Y-111079568D01*
X73254870Y-110846179D01*
X73254870Y-110319078D01*
X82522378Y-110319078D01*
X82551917Y-110829428D01*
X82690389Y-111163729D01*
X82920984Y-111219410D01*
X83640395Y-110500000D01*
X83999605Y-110500000D01*
X84719016Y-111219410D01*
X84949611Y-111163729D01*
X85117622Y-110680922D01*
X85088083Y-110170572D01*
X84949611Y-109836271D01*
X84719016Y-109780590D01*
X83999605Y-110500000D01*
X83640395Y-110500000D01*
X82920984Y-109780590D01*
X82690389Y-109836271D01*
X82522378Y-110319078D01*
X73254870Y-110319078D01*
X73254870Y-109600984D01*
X83100590Y-109600984D01*
X83820000Y-110320395D01*
X84539410Y-109600984D01*
X84483729Y-109370389D01*
X84000922Y-109202378D01*
X83490572Y-109231917D01*
X83156271Y-109370389D01*
X83100590Y-109600984D01*
X73254870Y-109600984D01*
X73254870Y-109505750D01*
X73096120Y-109347000D01*
X71247000Y-109347000D01*
X70993000Y-109347000D01*
X70973000Y-109347000D01*
X70973000Y-109093000D01*
X70993000Y-109093000D01*
X70993000Y-107243880D01*
X71247000Y-107243880D01*
X71247000Y-109093000D01*
X73096120Y-109093000D01*
X73254870Y-108934250D01*
X73254870Y-107593821D01*
X73158197Y-107360432D01*
X72979569Y-107181803D01*
X72746180Y-107085130D01*
X71405750Y-107085130D01*
X71247000Y-107243880D01*
X70993000Y-107243880D01*
X70834250Y-107085130D01*
X69493820Y-107085130D01*
X69260431Y-107181803D01*
X69135000Y-107307235D01*
X69135000Y-105653877D01*
X69785728Y-105653877D01*
X69945495Y-105972632D01*
X70736217Y-106282595D01*
X71585366Y-106266367D01*
X72294505Y-105972632D01*
X72454272Y-105653877D01*
X71120000Y-104319605D01*
X69785728Y-105653877D01*
X69135000Y-105653877D01*
X69135000Y-104946656D01*
X69287368Y-105314505D01*
X69606123Y-105474272D01*
X70940395Y-104140000D01*
X71299605Y-104140000D01*
X72633877Y-105474272D01*
X72952632Y-105314505D01*
X73262595Y-104523783D01*
X73246367Y-103674634D01*
X72952632Y-102965495D01*
X72633877Y-102805728D01*
X71299605Y-104140000D01*
X70940395Y-104140000D01*
X69606123Y-102805728D01*
X69287368Y-102965495D01*
X69135000Y-103354189D01*
X69135000Y-102626123D01*
X69785728Y-102626123D01*
X71120000Y-103960395D01*
X72454272Y-102626123D01*
X72294505Y-102307368D01*
X71503783Y-101997405D01*
X70654634Y-102013633D01*
X69945495Y-102307368D01*
X69785728Y-102626123D01*
X69135000Y-102626123D01*
X69135000Y-100972765D01*
X69260431Y-101098197D01*
X69493820Y-101194870D01*
X70834250Y-101194870D01*
X70993000Y-101036120D01*
X70993000Y-99187000D01*
X71247000Y-99187000D01*
X71247000Y-101036120D01*
X71405750Y-101194870D01*
X72746180Y-101194870D01*
X72979569Y-101098197D01*
X73158197Y-100919568D01*
X73254870Y-100686179D01*
X73254870Y-99345750D01*
X73096120Y-99187000D01*
X71247000Y-99187000D01*
X70993000Y-99187000D01*
X70973000Y-99187000D01*
X70973000Y-98933000D01*
X70993000Y-98933000D01*
X70993000Y-97083880D01*
X71247000Y-97083880D01*
X71247000Y-98933000D01*
X73096120Y-98933000D01*
X73254870Y-98774250D01*
X73254870Y-97433821D01*
X73158197Y-97200432D01*
X72979569Y-97021803D01*
X72746180Y-96925130D01*
X71405750Y-96925130D01*
X71247000Y-97083880D01*
X70993000Y-97083880D01*
X70834250Y-96925130D01*
X69637109Y-96925130D01*
X69677239Y-96885000D01*
X72808859Y-96885000D01*
X72808864Y-96885001D01*
X73434552Y-96760543D01*
X73964984Y-96406120D01*
X77296103Y-93075000D01*
X77355617Y-93075000D01*
X77529114Y-93248800D01*
X77529114Y-93248800D01*
G37*
X77529114Y-93248800D02*
X78313485Y-93574499D01*
X79162789Y-93575240D01*
X79238730Y-93543862D01*
X79393160Y-93698292D01*
X79393160Y-93980000D01*
X79431140Y-94170938D01*
X79431140Y-94480380D01*
X79475418Y-94715697D01*
X79614490Y-94931821D01*
X79826690Y-95076811D01*
X80078580Y-95127820D01*
X80977740Y-95127820D01*
X81213057Y-95083542D01*
X81278546Y-95041401D01*
X81330370Y-95076811D01*
X81582260Y-95127820D01*
X82018702Y-95127820D01*
X84195959Y-97305076D01*
X84195961Y-97305079D01*
X84431708Y-97462599D01*
X84450634Y-97475245D01*
X84751040Y-97535001D01*
X84751045Y-97535000D01*
X106424842Y-97535000D01*
X114370000Y-105480158D01*
X114370000Y-108098569D01*
X114357560Y-108160000D01*
X114357560Y-109760000D01*
X114401838Y-109995317D01*
X114540910Y-110211441D01*
X114753110Y-110356431D01*
X115005000Y-110407440D01*
X115305000Y-110407440D01*
X115486424Y-110373303D01*
X115655000Y-110407440D01*
X115670873Y-110407440D01*
X115660000Y-110433690D01*
X115660000Y-111474250D01*
X115818750Y-111633000D01*
X119253000Y-111633000D01*
X119253000Y-111613000D01*
X119507000Y-111613000D01*
X119507000Y-111633000D01*
X119527000Y-111633000D01*
X119527000Y-111887000D01*
X119507000Y-111887000D01*
X119507000Y-111907000D01*
X119253000Y-111907000D01*
X119253000Y-111887000D01*
X115818750Y-111887000D01*
X115660000Y-112045750D01*
X115660000Y-113086310D01*
X115670873Y-113112560D01*
X115655000Y-113112560D01*
X115473576Y-113146697D01*
X115305000Y-113112560D01*
X115005000Y-113112560D01*
X114769683Y-113156838D01*
X114553559Y-113295910D01*
X114474238Y-113411999D01*
X109166120Y-108103880D01*
X108635688Y-107749457D01*
X108010000Y-107624999D01*
X108009995Y-107625000D01*
X99573399Y-107625000D01*
X99536728Y-107600497D01*
X98911040Y-107476039D01*
X98911035Y-107476040D01*
X91600000Y-107476040D01*
X90974313Y-107600497D01*
X90669994Y-107803836D01*
X90533732Y-107830940D01*
X90084221Y-108131294D01*
X89783867Y-108580805D01*
X89678397Y-109111040D01*
X89783867Y-109641275D01*
X90084221Y-110090786D01*
X90533732Y-110391140D01*
X90543032Y-110392990D01*
X90453323Y-110419541D01*
X90031342Y-110761096D01*
X89866453Y-111064620D01*
X89635750Y-111064620D01*
X89477000Y-111223370D01*
X89477000Y-112022200D01*
X89497000Y-112022200D01*
X89497000Y-112276200D01*
X89477000Y-112276200D01*
X89477000Y-112296200D01*
X89223000Y-112296200D01*
X89223000Y-112276200D01*
X88373370Y-112276200D01*
X88214620Y-112434950D01*
X88214620Y-112665000D01*
X83820000Y-112665000D01*
X83194313Y-112789457D01*
X82663880Y-113143880D01*
X82309457Y-113674313D01*
X82185000Y-114300000D01*
X82185000Y-118502761D01*
X77862760Y-122825000D01*
X72504383Y-122825000D01*
X72330886Y-122651200D01*
X71546515Y-122325501D01*
X70697211Y-122324760D01*
X69912273Y-122649090D01*
X69736055Y-122825000D01*
X69257239Y-122825000D01*
X69135000Y-122702760D01*
X69135000Y-121292765D01*
X69260431Y-121418197D01*
X69493820Y-121514870D01*
X70834250Y-121514870D01*
X70993000Y-121356120D01*
X70993000Y-119507000D01*
X71247000Y-119507000D01*
X71247000Y-121356120D01*
X71405750Y-121514870D01*
X72746180Y-121514870D01*
X72979569Y-121418197D01*
X73158197Y-121239568D01*
X73254870Y-121006179D01*
X73254870Y-119665750D01*
X73096120Y-119507000D01*
X71247000Y-119507000D01*
X70993000Y-119507000D01*
X70973000Y-119507000D01*
X70973000Y-119253000D01*
X70993000Y-119253000D01*
X70993000Y-117403880D01*
X71247000Y-117403880D01*
X71247000Y-119253000D01*
X73096120Y-119253000D01*
X73254870Y-119094250D01*
X73254870Y-117753821D01*
X73158197Y-117520432D01*
X72979569Y-117341803D01*
X72746180Y-117245130D01*
X71405750Y-117245130D01*
X71247000Y-117403880D01*
X70993000Y-117403880D01*
X70834250Y-117245130D01*
X69493820Y-117245130D01*
X69260431Y-117341803D01*
X69135000Y-117467235D01*
X69135000Y-115813877D01*
X69785728Y-115813877D01*
X69945495Y-116132632D01*
X70736217Y-116442595D01*
X71585366Y-116426367D01*
X72294505Y-116132632D01*
X72454272Y-115813877D01*
X71120000Y-114479605D01*
X69785728Y-115813877D01*
X69135000Y-115813877D01*
X69135000Y-115106656D01*
X69287368Y-115474505D01*
X69606123Y-115634272D01*
X70940395Y-114300000D01*
X71299605Y-114300000D01*
X72633877Y-115634272D01*
X72952632Y-115474505D01*
X73262595Y-114683783D01*
X73246367Y-113834634D01*
X72952632Y-113125495D01*
X72633877Y-112965728D01*
X71299605Y-114300000D01*
X70940395Y-114300000D01*
X69606123Y-112965728D01*
X69287368Y-113125495D01*
X69135000Y-113514189D01*
X69135000Y-112786123D01*
X69785728Y-112786123D01*
X71120000Y-114120395D01*
X72454272Y-112786123D01*
X72294505Y-112467368D01*
X71503783Y-112157405D01*
X70654634Y-112173633D01*
X69945495Y-112467368D01*
X69785728Y-112786123D01*
X69135000Y-112786123D01*
X69135000Y-111399016D01*
X83100590Y-111399016D01*
X83156271Y-111629611D01*
X83639078Y-111797622D01*
X84149428Y-111768083D01*
X84483729Y-111629611D01*
X84497323Y-111573311D01*
X88214620Y-111573311D01*
X88214620Y-111863450D01*
X88373370Y-112022200D01*
X89223000Y-112022200D01*
X89223000Y-111223370D01*
X89064250Y-111064620D01*
X88723310Y-111064620D01*
X88489921Y-111161293D01*
X88311293Y-111339922D01*
X88214620Y-111573311D01*
X84497323Y-111573311D01*
X84539410Y-111399016D01*
X83820000Y-110679605D01*
X83100590Y-111399016D01*
X69135000Y-111399016D01*
X69135000Y-111132765D01*
X69260431Y-111258197D01*
X69493820Y-111354870D01*
X70834250Y-111354870D01*
X70993000Y-111196120D01*
X70993000Y-109347000D01*
X71247000Y-109347000D01*
X71247000Y-111196120D01*
X71405750Y-111354870D01*
X72746180Y-111354870D01*
X72979569Y-111258197D01*
X73158197Y-111079568D01*
X73254870Y-110846179D01*
X73254870Y-110319078D01*
X82522378Y-110319078D01*
X82551917Y-110829428D01*
X82690389Y-111163729D01*
X82920984Y-111219410D01*
X83640395Y-110500000D01*
X83999605Y-110500000D01*
X84719016Y-111219410D01*
X84949611Y-111163729D01*
X85117622Y-110680922D01*
X85088083Y-110170572D01*
X84949611Y-109836271D01*
X84719016Y-109780590D01*
X83999605Y-110500000D01*
X83640395Y-110500000D01*
X82920984Y-109780590D01*
X82690389Y-109836271D01*
X82522378Y-110319078D01*
X73254870Y-110319078D01*
X73254870Y-109600984D01*
X83100590Y-109600984D01*
X83820000Y-110320395D01*
X84539410Y-109600984D01*
X84483729Y-109370389D01*
X84000922Y-109202378D01*
X83490572Y-109231917D01*
X83156271Y-109370389D01*
X83100590Y-109600984D01*
X73254870Y-109600984D01*
X73254870Y-109505750D01*
X73096120Y-109347000D01*
X71247000Y-109347000D01*
X70993000Y-109347000D01*
X70973000Y-109347000D01*
X70973000Y-109093000D01*
X70993000Y-109093000D01*
X70993000Y-107243880D01*
X71247000Y-107243880D01*
X71247000Y-109093000D01*
X73096120Y-109093000D01*
X73254870Y-108934250D01*
X73254870Y-107593821D01*
X73158197Y-107360432D01*
X72979569Y-107181803D01*
X72746180Y-107085130D01*
X71405750Y-107085130D01*
X71247000Y-107243880D01*
X70993000Y-107243880D01*
X70834250Y-107085130D01*
X69493820Y-107085130D01*
X69260431Y-107181803D01*
X69135000Y-107307235D01*
X69135000Y-105653877D01*
X69785728Y-105653877D01*
X69945495Y-105972632D01*
X70736217Y-106282595D01*
X71585366Y-106266367D01*
X72294505Y-105972632D01*
X72454272Y-105653877D01*
X71120000Y-104319605D01*
X69785728Y-105653877D01*
X69135000Y-105653877D01*
X69135000Y-104946656D01*
X69287368Y-105314505D01*
X69606123Y-105474272D01*
X70940395Y-104140000D01*
X71299605Y-104140000D01*
X72633877Y-105474272D01*
X72952632Y-105314505D01*
X73262595Y-104523783D01*
X73246367Y-103674634D01*
X72952632Y-102965495D01*
X72633877Y-102805728D01*
X71299605Y-104140000D01*
X70940395Y-104140000D01*
X69606123Y-102805728D01*
X69287368Y-102965495D01*
X69135000Y-103354189D01*
X69135000Y-102626123D01*
X69785728Y-102626123D01*
X71120000Y-103960395D01*
X72454272Y-102626123D01*
X72294505Y-102307368D01*
X71503783Y-101997405D01*
X70654634Y-102013633D01*
X69945495Y-102307368D01*
X69785728Y-102626123D01*
X69135000Y-102626123D01*
X69135000Y-100972765D01*
X69260431Y-101098197D01*
X69493820Y-101194870D01*
X70834250Y-101194870D01*
X70993000Y-101036120D01*
X70993000Y-99187000D01*
X71247000Y-99187000D01*
X71247000Y-101036120D01*
X71405750Y-101194870D01*
X72746180Y-101194870D01*
X72979569Y-101098197D01*
X73158197Y-100919568D01*
X73254870Y-100686179D01*
X73254870Y-99345750D01*
X73096120Y-99187000D01*
X71247000Y-99187000D01*
X70993000Y-99187000D01*
X70973000Y-99187000D01*
X70973000Y-98933000D01*
X70993000Y-98933000D01*
X70993000Y-97083880D01*
X71247000Y-97083880D01*
X71247000Y-98933000D01*
X73096120Y-98933000D01*
X73254870Y-98774250D01*
X73254870Y-97433821D01*
X73158197Y-97200432D01*
X72979569Y-97021803D01*
X72746180Y-96925130D01*
X71405750Y-96925130D01*
X71247000Y-97083880D01*
X70993000Y-97083880D01*
X70834250Y-96925130D01*
X69637109Y-96925130D01*
X69677239Y-96885000D01*
X72808859Y-96885000D01*
X72808864Y-96885001D01*
X73434552Y-96760543D01*
X73964984Y-96406120D01*
X77296103Y-93075000D01*
X77355617Y-93075000D01*
X77529114Y-93248800D01*
G36*
X152697434Y-107802566D02*
X153065655Y-108048603D01*
X153500000Y-108135000D01*
X153934345Y-108048603D01*
X154283957Y-107815000D01*
X162390555Y-107815000D01*
X162562664Y-107930000D01*
X162140365Y-108212172D01*
X161837533Y-108665391D01*
X161731193Y-109200000D01*
X161837533Y-109734609D01*
X162140365Y-110187828D01*
X162562664Y-110470000D01*
X162140365Y-110752172D01*
X161837533Y-111205391D01*
X161731193Y-111740000D01*
X161837533Y-112274609D01*
X162140365Y-112727828D01*
X162562664Y-113010000D01*
X162140365Y-113292172D01*
X161837533Y-113745391D01*
X161731193Y-114280000D01*
X161837533Y-114814609D01*
X162140365Y-115267828D01*
X162562664Y-115550000D01*
X162140365Y-115832172D01*
X161837533Y-116285391D01*
X161731193Y-116820000D01*
X161837533Y-117354609D01*
X162140365Y-117807828D01*
X162562664Y-118090000D01*
X162330691Y-118245000D01*
X160350132Y-118245000D01*
X156872566Y-114767434D01*
X156846474Y-114750000D01*
X156504346Y-114521397D01*
X156070000Y-114435000D01*
X139569377Y-114435000D01*
X139367336Y-114300000D01*
X139569377Y-114165000D01*
X145288000Y-114165000D01*
X145722346Y-114078603D01*
X146090566Y-113832566D01*
X152466373Y-107456759D01*
X152697434Y-107802566D01*
X152697434Y-107802566D01*
G37*
X152697434Y-107802566D02*
X153065655Y-108048603D01*
X153500000Y-108135000D01*
X153934345Y-108048603D01*
X154283957Y-107815000D01*
X162390555Y-107815000D01*
X162562664Y-107930000D01*
X162140365Y-108212172D01*
X161837533Y-108665391D01*
X161731193Y-109200000D01*
X161837533Y-109734609D01*
X162140365Y-110187828D01*
X162562664Y-110470000D01*
X162140365Y-110752172D01*
X161837533Y-111205391D01*
X161731193Y-111740000D01*
X161837533Y-112274609D01*
X162140365Y-112727828D01*
X162562664Y-113010000D01*
X162140365Y-113292172D01*
X161837533Y-113745391D01*
X161731193Y-114280000D01*
X161837533Y-114814609D01*
X162140365Y-115267828D01*
X162562664Y-115550000D01*
X162140365Y-115832172D01*
X161837533Y-116285391D01*
X161731193Y-116820000D01*
X161837533Y-117354609D01*
X162140365Y-117807828D01*
X162562664Y-118090000D01*
X162330691Y-118245000D01*
X160350132Y-118245000D01*
X156872566Y-114767434D01*
X156846474Y-114750000D01*
X156504346Y-114521397D01*
X156070000Y-114435000D01*
X139569377Y-114435000D01*
X139367336Y-114300000D01*
X139569377Y-114165000D01*
X145288000Y-114165000D01*
X145722346Y-114078603D01*
X146090566Y-113832566D01*
X152466373Y-107456759D01*
X152697434Y-107802566D01*
G36*
X131606855Y-113159012D02*
X131687533Y-113564609D01*
X131990365Y-114017828D01*
X132412664Y-114300000D01*
X131990365Y-114582172D01*
X131687533Y-115035391D01*
X131581193Y-115570000D01*
X131687533Y-116104609D01*
X131990365Y-116557828D01*
X132184378Y-116687464D01*
X132054842Y-116817000D01*
X128086420Y-116817000D01*
X128086420Y-116535750D01*
X127927670Y-116377000D01*
X127128840Y-116377000D01*
X127128840Y-116397000D01*
X126874840Y-116397000D01*
X126874840Y-116377000D01*
X126854840Y-116377000D01*
X126854840Y-116123000D01*
X126874840Y-116123000D01*
X126874840Y-116103000D01*
X127128840Y-116103000D01*
X127128840Y-116123000D01*
X127927670Y-116123000D01*
X128086420Y-115964250D01*
X128086420Y-115635000D01*
X128750000Y-115635000D01*
X129184346Y-115548603D01*
X129552566Y-115302566D01*
X129798603Y-114934346D01*
X129885000Y-114500000D01*
X129798603Y-114065654D01*
X129552566Y-113697434D01*
X129184346Y-113451397D01*
X128750000Y-113365000D01*
X128385380Y-113365000D01*
X128385380Y-113283910D01*
X128226630Y-113125160D01*
X127377000Y-113125160D01*
X127377000Y-113145160D01*
X127123000Y-113145160D01*
X127123000Y-113125160D01*
X127103000Y-113125160D01*
X127103000Y-112871160D01*
X127123000Y-112871160D01*
X127123000Y-112851160D01*
X127377000Y-112851160D01*
X127377000Y-112871160D01*
X128226630Y-112871160D01*
X128385380Y-112712410D01*
X128385380Y-112422271D01*
X128331006Y-112291000D01*
X130738842Y-112291000D01*
X131606855Y-113159012D01*
X131606855Y-113159012D01*
G37*
X131606855Y-113159012D02*
X131687533Y-113564609D01*
X131990365Y-114017828D01*
X132412664Y-114300000D01*
X131990365Y-114582172D01*
X131687533Y-115035391D01*
X131581193Y-115570000D01*
X131687533Y-116104609D01*
X131990365Y-116557828D01*
X132184378Y-116687464D01*
X132054842Y-116817000D01*
X128086420Y-116817000D01*
X128086420Y-116535750D01*
X127927670Y-116377000D01*
X127128840Y-116377000D01*
X127128840Y-116397000D01*
X126874840Y-116397000D01*
X126874840Y-116377000D01*
X126854840Y-116377000D01*
X126854840Y-116123000D01*
X126874840Y-116123000D01*
X126874840Y-116103000D01*
X127128840Y-116103000D01*
X127128840Y-116123000D01*
X127927670Y-116123000D01*
X128086420Y-115964250D01*
X128086420Y-115635000D01*
X128750000Y-115635000D01*
X129184346Y-115548603D01*
X129552566Y-115302566D01*
X129798603Y-114934346D01*
X129885000Y-114500000D01*
X129798603Y-114065654D01*
X129552566Y-113697434D01*
X129184346Y-113451397D01*
X128750000Y-113365000D01*
X128385380Y-113365000D01*
X128385380Y-113283910D01*
X128226630Y-113125160D01*
X127377000Y-113125160D01*
X127377000Y-113145160D01*
X127123000Y-113145160D01*
X127123000Y-113125160D01*
X127103000Y-113125160D01*
X127103000Y-112871160D01*
X127123000Y-112871160D01*
X127123000Y-112851160D01*
X127377000Y-112851160D01*
X127377000Y-112871160D01*
X128226630Y-112871160D01*
X128385380Y-112712410D01*
X128385380Y-112422271D01*
X128331006Y-112291000D01*
X130738842Y-112291000D01*
X131606855Y-113159012D01*
G36*
X131634422Y-110222400D02*
X131581193Y-110490000D01*
X131686233Y-111018075D01*
X131619079Y-110950921D01*
X131364407Y-110780755D01*
X131064000Y-110721000D01*
X126492000Y-110721000D01*
X126191594Y-110780755D01*
X125936921Y-110950921D01*
X124983708Y-111904134D01*
X124764303Y-111945418D01*
X124548179Y-112084490D01*
X124460263Y-112213160D01*
X124323318Y-112213160D01*
X123740000Y-111629842D01*
X123740000Y-110296250D01*
X123838750Y-110395000D01*
X123881309Y-110395000D01*
X124114698Y-110298327D01*
X124293327Y-110119699D01*
X124390000Y-109886310D01*
X124390000Y-109245750D01*
X124231250Y-109087000D01*
X123752440Y-109087000D01*
X123752440Y-108833000D01*
X124231250Y-108833000D01*
X124390000Y-108674250D01*
X124390000Y-108033690D01*
X124293327Y-107800301D01*
X124212026Y-107719000D01*
X129131022Y-107719000D01*
X131634422Y-110222400D01*
X131634422Y-110222400D01*
G37*
X131634422Y-110222400D02*
X131581193Y-110490000D01*
X131686233Y-111018075D01*
X131619079Y-110950921D01*
X131364407Y-110780755D01*
X131064000Y-110721000D01*
X126492000Y-110721000D01*
X126191594Y-110780755D01*
X125936921Y-110950921D01*
X124983708Y-111904134D01*
X124764303Y-111945418D01*
X124548179Y-112084490D01*
X124460263Y-112213160D01*
X124323318Y-112213160D01*
X123740000Y-111629842D01*
X123740000Y-110296250D01*
X123838750Y-110395000D01*
X123881309Y-110395000D01*
X124114698Y-110298327D01*
X124293327Y-110119699D01*
X124390000Y-109886310D01*
X124390000Y-109245750D01*
X124231250Y-109087000D01*
X123752440Y-109087000D01*
X123752440Y-108833000D01*
X124231250Y-108833000D01*
X124390000Y-108674250D01*
X124390000Y-108033690D01*
X124293327Y-107800301D01*
X124212026Y-107719000D01*
X129131022Y-107719000D01*
X131634422Y-110222400D01*
G36*
X91727000Y-111524040D02*
X91747000Y-111524040D01*
X91747000Y-111778040D01*
X91727000Y-111778040D01*
X91727000Y-111798040D01*
X91473000Y-111798040D01*
X91473000Y-111778040D01*
X91453000Y-111778040D01*
X91453000Y-111524040D01*
X91473000Y-111524040D01*
X91473000Y-111504040D01*
X91727000Y-111504040D01*
X91727000Y-111524040D01*
X91727000Y-111524040D01*
G37*
X91727000Y-111524040D02*
X91747000Y-111524040D01*
X91747000Y-111778040D01*
X91727000Y-111778040D01*
X91727000Y-111798040D01*
X91473000Y-111798040D01*
X91473000Y-111778040D01*
X91453000Y-111778040D01*
X91453000Y-111524040D01*
X91473000Y-111524040D01*
X91473000Y-111504040D01*
X91727000Y-111504040D01*
X91727000Y-111524040D01*
G36*
X146197434Y-104302566D02*
X146565655Y-104548604D01*
X146574499Y-104550363D01*
X144309862Y-106815000D01*
X139569377Y-106815000D01*
X139367336Y-106680000D01*
X139789635Y-106397828D01*
X140092467Y-105944609D01*
X140198807Y-105410000D01*
X140092467Y-104875391D01*
X139789635Y-104422172D01*
X139565870Y-104272657D01*
X139765137Y-104235162D01*
X139981261Y-104096090D01*
X140126251Y-103883890D01*
X140177260Y-103632000D01*
X140177260Y-102108000D01*
X140132982Y-101872683D01*
X139993910Y-101656559D01*
X139962357Y-101635000D01*
X143529868Y-101635000D01*
X146197434Y-104302566D01*
X146197434Y-104302566D01*
G37*
X146197434Y-104302566D02*
X146565655Y-104548604D01*
X146574499Y-104550363D01*
X144309862Y-106815000D01*
X139569377Y-106815000D01*
X139367336Y-106680000D01*
X139789635Y-106397828D01*
X140092467Y-105944609D01*
X140198807Y-105410000D01*
X140092467Y-104875391D01*
X139789635Y-104422172D01*
X139565870Y-104272657D01*
X139765137Y-104235162D01*
X139981261Y-104096090D01*
X140126251Y-103883890D01*
X140177260Y-103632000D01*
X140177260Y-102108000D01*
X140132982Y-101872683D01*
X139993910Y-101656559D01*
X139962357Y-101635000D01*
X143529868Y-101635000D01*
X146197434Y-104302566D01*
G36*
X131798739Y-101643910D02*
X131653749Y-101856110D01*
X131602740Y-102108000D01*
X131602740Y-103632000D01*
X131647018Y-103867317D01*
X131786090Y-104083441D01*
X131998290Y-104228431D01*
X132214724Y-104272260D01*
X131990365Y-104422172D01*
X131854839Y-104625000D01*
X122485158Y-104625000D01*
X123684181Y-103425977D01*
X123695418Y-103485697D01*
X123834490Y-103701821D01*
X124046690Y-103846811D01*
X124298580Y-103897820D01*
X125197740Y-103897820D01*
X125433057Y-103853542D01*
X125498078Y-103811702D01*
X125675951Y-103885380D01*
X125966090Y-103885380D01*
X126124840Y-103726630D01*
X126124840Y-102877000D01*
X126378840Y-102877000D01*
X126378840Y-103726630D01*
X126537590Y-103885380D01*
X126827729Y-103885380D01*
X127061118Y-103788707D01*
X127239747Y-103610079D01*
X127336420Y-103376690D01*
X127336420Y-103035750D01*
X127177670Y-102877000D01*
X126378840Y-102877000D01*
X126124840Y-102877000D01*
X126104840Y-102877000D01*
X126104840Y-102623000D01*
X126124840Y-102623000D01*
X126124840Y-102603000D01*
X126378840Y-102603000D01*
X126378840Y-102623000D01*
X127177670Y-102623000D01*
X127336420Y-102464250D01*
X127336420Y-102123310D01*
X127239747Y-101889921D01*
X127061118Y-101711293D01*
X126876931Y-101635000D01*
X131812586Y-101635000D01*
X131798739Y-101643910D01*
X131798739Y-101643910D01*
G37*
X131798739Y-101643910D02*
X131653749Y-101856110D01*
X131602740Y-102108000D01*
X131602740Y-103632000D01*
X131647018Y-103867317D01*
X131786090Y-104083441D01*
X131998290Y-104228431D01*
X132214724Y-104272260D01*
X131990365Y-104422172D01*
X131854839Y-104625000D01*
X122485158Y-104625000D01*
X123684181Y-103425977D01*
X123695418Y-103485697D01*
X123834490Y-103701821D01*
X124046690Y-103846811D01*
X124298580Y-103897820D01*
X125197740Y-103897820D01*
X125433057Y-103853542D01*
X125498078Y-103811702D01*
X125675951Y-103885380D01*
X125966090Y-103885380D01*
X126124840Y-103726630D01*
X126124840Y-102877000D01*
X126378840Y-102877000D01*
X126378840Y-103726630D01*
X126537590Y-103885380D01*
X126827729Y-103885380D01*
X127061118Y-103788707D01*
X127239747Y-103610079D01*
X127336420Y-103376690D01*
X127336420Y-103035750D01*
X127177670Y-102877000D01*
X126378840Y-102877000D01*
X126124840Y-102877000D01*
X126104840Y-102877000D01*
X126104840Y-102623000D01*
X126124840Y-102623000D01*
X126124840Y-102603000D01*
X126378840Y-102603000D01*
X126378840Y-102623000D01*
X127177670Y-102623000D01*
X127336420Y-102464250D01*
X127336420Y-102123310D01*
X127239747Y-101889921D01*
X127061118Y-101711293D01*
X126876931Y-101635000D01*
X131812586Y-101635000D01*
X131798739Y-101643910D01*
G36*
X117745000Y-90055617D02*
X117571200Y-90229114D01*
X117245501Y-91013485D01*
X117244760Y-91862789D01*
X117569090Y-92647727D01*
X118169114Y-93248800D01*
X118953485Y-93574499D01*
X119802789Y-93575240D01*
X119878730Y-93543862D01*
X120033160Y-93698292D01*
X120033160Y-93980000D01*
X120071140Y-94170938D01*
X120071140Y-94480380D01*
X120115418Y-94715697D01*
X120254490Y-94931821D01*
X120466690Y-95076811D01*
X120718580Y-95127820D01*
X121617740Y-95127820D01*
X121853057Y-95083542D01*
X121886840Y-95061803D01*
X121886840Y-99003002D01*
X117500000Y-103389842D01*
X113296840Y-99186682D01*
X113296840Y-95019127D01*
X113412861Y-94944470D01*
X113557851Y-94732270D01*
X113608860Y-94480380D01*
X113608860Y-94170938D01*
X113646840Y-93980000D01*
X113646840Y-93698292D01*
X113757822Y-93587310D01*
X115799870Y-93587310D01*
X116035187Y-93543032D01*
X116251311Y-93403960D01*
X116396301Y-93191760D01*
X116447310Y-92939870D01*
X116447310Y-89940130D01*
X116436937Y-89885000D01*
X117745000Y-89885000D01*
X117745000Y-90055617D01*
X117745000Y-90055617D01*
G37*
X117745000Y-90055617D02*
X117571200Y-90229114D01*
X117245501Y-91013485D01*
X117244760Y-91862789D01*
X117569090Y-92647727D01*
X118169114Y-93248800D01*
X118953485Y-93574499D01*
X119802789Y-93575240D01*
X119878730Y-93543862D01*
X120033160Y-93698292D01*
X120033160Y-93980000D01*
X120071140Y-94170938D01*
X120071140Y-94480380D01*
X120115418Y-94715697D01*
X120254490Y-94931821D01*
X120466690Y-95076811D01*
X120718580Y-95127820D01*
X121617740Y-95127820D01*
X121853057Y-95083542D01*
X121886840Y-95061803D01*
X121886840Y-99003002D01*
X117500000Y-103389842D01*
X113296840Y-99186682D01*
X113296840Y-95019127D01*
X113412861Y-94944470D01*
X113557851Y-94732270D01*
X113608860Y-94480380D01*
X113608860Y-94170938D01*
X113646840Y-93980000D01*
X113646840Y-93698292D01*
X113757822Y-93587310D01*
X115799870Y-93587310D01*
X116035187Y-93543032D01*
X116251311Y-93403960D01*
X116396301Y-93191760D01*
X116447310Y-92939870D01*
X116447310Y-89940130D01*
X116436937Y-89885000D01*
X117745000Y-89885000D01*
X117745000Y-90055617D01*
G36*
X148050363Y-103074499D02*
X148048604Y-103065655D01*
X147802566Y-102697434D01*
X145300132Y-100195000D01*
X150929862Y-100195000D01*
X148050363Y-103074499D01*
X148050363Y-103074499D01*
G37*
X148050363Y-103074499D02*
X148048604Y-103065655D01*
X147802566Y-102697434D01*
X145300132Y-100195000D01*
X150929862Y-100195000D01*
X148050363Y-103074499D01*
G36*
X107585000Y-90055617D02*
X107411200Y-90229114D01*
X107085501Y-91013485D01*
X107084760Y-91862789D01*
X107409090Y-92647727D01*
X108009114Y-93248800D01*
X108793485Y-93574499D01*
X109642789Y-93575240D01*
X109718730Y-93543862D01*
X109873160Y-93698292D01*
X109873160Y-93980000D01*
X109911140Y-94170938D01*
X109911140Y-94480380D01*
X109955418Y-94715697D01*
X110094490Y-94931821D01*
X110306690Y-95076811D01*
X110558580Y-95127820D01*
X111457740Y-95127820D01*
X111693057Y-95083542D01*
X111726840Y-95061803D01*
X111726840Y-98616682D01*
X106535079Y-93424921D01*
X106280407Y-93254755D01*
X106203686Y-93239494D01*
X106236301Y-93191760D01*
X106287310Y-92939870D01*
X106287310Y-89940130D01*
X106276937Y-89885000D01*
X107585000Y-89885000D01*
X107585000Y-90055617D01*
X107585000Y-90055617D01*
G37*
X107585000Y-90055617D02*
X107411200Y-90229114D01*
X107085501Y-91013485D01*
X107084760Y-91862789D01*
X107409090Y-92647727D01*
X108009114Y-93248800D01*
X108793485Y-93574499D01*
X109642789Y-93575240D01*
X109718730Y-93543862D01*
X109873160Y-93698292D01*
X109873160Y-93980000D01*
X109911140Y-94170938D01*
X109911140Y-94480380D01*
X109955418Y-94715697D01*
X110094490Y-94931821D01*
X110306690Y-95076811D01*
X110558580Y-95127820D01*
X111457740Y-95127820D01*
X111693057Y-95083542D01*
X111726840Y-95061803D01*
X111726840Y-98616682D01*
X106535079Y-93424921D01*
X106280407Y-93254755D01*
X106203686Y-93239494D01*
X106236301Y-93191760D01*
X106287310Y-92939870D01*
X106287310Y-89940130D01*
X106276937Y-89885000D01*
X107585000Y-89885000D01*
X107585000Y-90055617D01*
G36*
X127905000Y-90055617D02*
X127731200Y-90229114D01*
X127405501Y-91013485D01*
X127404760Y-91862789D01*
X127729090Y-92647727D01*
X128329114Y-93248800D01*
X129113485Y-93574499D01*
X129962789Y-93575240D01*
X130038730Y-93543862D01*
X130193160Y-93698292D01*
X130193160Y-93980000D01*
X130231140Y-94170938D01*
X130231140Y-94480380D01*
X130275418Y-94715697D01*
X130414490Y-94931821D01*
X130626690Y-95076811D01*
X130878580Y-95127820D01*
X131762022Y-95127820D01*
X131674842Y-95215000D01*
X127000005Y-95215000D01*
X127000000Y-95214999D01*
X126699594Y-95274755D01*
X126444921Y-95444921D01*
X123456840Y-98433002D01*
X123456840Y-95019127D01*
X123572861Y-94944470D01*
X123717851Y-94732270D01*
X123768860Y-94480380D01*
X123768860Y-94170938D01*
X123806840Y-93980000D01*
X123806840Y-93698292D01*
X123917822Y-93587310D01*
X125959870Y-93587310D01*
X126195187Y-93543032D01*
X126411311Y-93403960D01*
X126556301Y-93191760D01*
X126607310Y-92939870D01*
X126607310Y-89940130D01*
X126596937Y-89885000D01*
X127905000Y-89885000D01*
X127905000Y-90055617D01*
X127905000Y-90055617D01*
G37*
X127905000Y-90055617D02*
X127731200Y-90229114D01*
X127405501Y-91013485D01*
X127404760Y-91862789D01*
X127729090Y-92647727D01*
X128329114Y-93248800D01*
X129113485Y-93574499D01*
X129962789Y-93575240D01*
X130038730Y-93543862D01*
X130193160Y-93698292D01*
X130193160Y-93980000D01*
X130231140Y-94170938D01*
X130231140Y-94480380D01*
X130275418Y-94715697D01*
X130414490Y-94931821D01*
X130626690Y-95076811D01*
X130878580Y-95127820D01*
X131762022Y-95127820D01*
X131674842Y-95215000D01*
X127000005Y-95215000D01*
X127000000Y-95214999D01*
X126699594Y-95274755D01*
X126444921Y-95444921D01*
X123456840Y-98433002D01*
X123456840Y-95019127D01*
X123572861Y-94944470D01*
X123717851Y-94732270D01*
X123768860Y-94480380D01*
X123768860Y-94170938D01*
X123806840Y-93980000D01*
X123806840Y-93698292D01*
X123917822Y-93587310D01*
X125959870Y-93587310D01*
X126195187Y-93543032D01*
X126411311Y-93403960D01*
X126556301Y-93191760D01*
X126607310Y-92939870D01*
X126607310Y-89940130D01*
X126596937Y-89885000D01*
X127905000Y-89885000D01*
X127905000Y-90055617D01*
G36*
X148225000Y-90055617D02*
X148051200Y-90229114D01*
X147725501Y-91013485D01*
X147724760Y-91862789D01*
X148049090Y-92647727D01*
X148649114Y-93248800D01*
X149433485Y-93574499D01*
X150282789Y-93575240D01*
X150358730Y-93543862D01*
X150513160Y-93698292D01*
X150513160Y-93980000D01*
X150551140Y-94170938D01*
X150551140Y-94480380D01*
X150595418Y-94715697D01*
X150734490Y-94931821D01*
X150946690Y-95076811D01*
X151016824Y-95091014D01*
X148867838Y-97240000D01*
X141870158Y-97240000D01*
X143546919Y-95563239D01*
X143717085Y-95308567D01*
X143774338Y-95020737D01*
X143892861Y-94944470D01*
X144037851Y-94732270D01*
X144088860Y-94480380D01*
X144088860Y-94170938D01*
X144126840Y-93980000D01*
X144126840Y-93698292D01*
X144237822Y-93587310D01*
X146279870Y-93587310D01*
X146515187Y-93543032D01*
X146731311Y-93403960D01*
X146876301Y-93191760D01*
X146927310Y-92939870D01*
X146927310Y-89940130D01*
X146916937Y-89885000D01*
X148225000Y-89885000D01*
X148225000Y-90055617D01*
X148225000Y-90055617D01*
G37*
X148225000Y-90055617D02*
X148051200Y-90229114D01*
X147725501Y-91013485D01*
X147724760Y-91862789D01*
X148049090Y-92647727D01*
X148649114Y-93248800D01*
X149433485Y-93574499D01*
X150282789Y-93575240D01*
X150358730Y-93543862D01*
X150513160Y-93698292D01*
X150513160Y-93980000D01*
X150551140Y-94170938D01*
X150551140Y-94480380D01*
X150595418Y-94715697D01*
X150734490Y-94931821D01*
X150946690Y-95076811D01*
X151016824Y-95091014D01*
X148867838Y-97240000D01*
X141870158Y-97240000D01*
X143546919Y-95563239D01*
X143717085Y-95308567D01*
X143774338Y-95020737D01*
X143892861Y-94944470D01*
X144037851Y-94732270D01*
X144088860Y-94480380D01*
X144088860Y-94170938D01*
X144126840Y-93980000D01*
X144126840Y-93698292D01*
X144237822Y-93587310D01*
X146279870Y-93587310D01*
X146515187Y-93543032D01*
X146731311Y-93403960D01*
X146876301Y-93191760D01*
X146927310Y-92939870D01*
X146927310Y-89940130D01*
X146916937Y-89885000D01*
X148225000Y-89885000D01*
X148225000Y-90055617D01*
G36*
X138065000Y-90055617D02*
X137891200Y-90229114D01*
X137565501Y-91013485D01*
X137564760Y-91862789D01*
X137889090Y-92647727D01*
X138489114Y-93248800D01*
X139273485Y-93574499D01*
X140122789Y-93575240D01*
X140198730Y-93543862D01*
X140353160Y-93698292D01*
X140353160Y-93980000D01*
X140391140Y-94170938D01*
X140391140Y-94480380D01*
X140435418Y-94715697D01*
X140574490Y-94931821D01*
X140786690Y-95076811D01*
X141038580Y-95127820D01*
X141762022Y-95127820D01*
X140691162Y-96198680D01*
X132911478Y-96198680D01*
X133386919Y-95723239D01*
X133534289Y-95502683D01*
X133557085Y-95468566D01*
X133616840Y-95168160D01*
X133616840Y-95019127D01*
X133732861Y-94944470D01*
X133877851Y-94732270D01*
X133928860Y-94480380D01*
X133928860Y-94170938D01*
X133966840Y-93980000D01*
X133966840Y-93698292D01*
X134077822Y-93587310D01*
X136119870Y-93587310D01*
X136355187Y-93543032D01*
X136571311Y-93403960D01*
X136716301Y-93191760D01*
X136767310Y-92939870D01*
X136767310Y-89940130D01*
X136756937Y-89885000D01*
X138065000Y-89885000D01*
X138065000Y-90055617D01*
X138065000Y-90055617D01*
G37*
X138065000Y-90055617D02*
X137891200Y-90229114D01*
X137565501Y-91013485D01*
X137564760Y-91862789D01*
X137889090Y-92647727D01*
X138489114Y-93248800D01*
X139273485Y-93574499D01*
X140122789Y-93575240D01*
X140198730Y-93543862D01*
X140353160Y-93698292D01*
X140353160Y-93980000D01*
X140391140Y-94170938D01*
X140391140Y-94480380D01*
X140435418Y-94715697D01*
X140574490Y-94931821D01*
X140786690Y-95076811D01*
X141038580Y-95127820D01*
X141762022Y-95127820D01*
X140691162Y-96198680D01*
X132911478Y-96198680D01*
X133386919Y-95723239D01*
X133534289Y-95502683D01*
X133557085Y-95468566D01*
X133616840Y-95168160D01*
X133616840Y-95019127D01*
X133732861Y-94944470D01*
X133877851Y-94732270D01*
X133928860Y-94480380D01*
X133928860Y-94170938D01*
X133966840Y-93980000D01*
X133966840Y-93698292D01*
X134077822Y-93587310D01*
X136119870Y-93587310D01*
X136355187Y-93543032D01*
X136571311Y-93403960D01*
X136716301Y-93191760D01*
X136767310Y-92939870D01*
X136767310Y-89940130D01*
X136756937Y-89885000D01*
X138065000Y-89885000D01*
X138065000Y-90055617D01*
G36*
X87265000Y-90055617D02*
X87091200Y-90229114D01*
X86765501Y-91013485D01*
X86764760Y-91862789D01*
X87089090Y-92647727D01*
X87689114Y-93248800D01*
X88473485Y-93574499D01*
X89322789Y-93575240D01*
X89398730Y-93543862D01*
X89553160Y-93698292D01*
X89553160Y-93980000D01*
X89591140Y-94170938D01*
X89591140Y-94480380D01*
X89635418Y-94715697D01*
X89774490Y-94931821D01*
X89986690Y-95076811D01*
X90238580Y-95127820D01*
X91137740Y-95127820D01*
X91373057Y-95083542D01*
X91438546Y-95041401D01*
X91490370Y-95076811D01*
X91742260Y-95127820D01*
X92641420Y-95127820D01*
X92876737Y-95083542D01*
X92912069Y-95060807D01*
X93816262Y-95965000D01*
X85076197Y-95965000D01*
X83154290Y-94043092D01*
X83166840Y-93980000D01*
X83166840Y-93698292D01*
X83277822Y-93587310D01*
X85319870Y-93587310D01*
X85555187Y-93543032D01*
X85771311Y-93403960D01*
X85916301Y-93191760D01*
X85967310Y-92939870D01*
X85967310Y-89940130D01*
X85956937Y-89885000D01*
X87265000Y-89885000D01*
X87265000Y-90055617D01*
X87265000Y-90055617D01*
G37*
X87265000Y-90055617D02*
X87091200Y-90229114D01*
X86765501Y-91013485D01*
X86764760Y-91862789D01*
X87089090Y-92647727D01*
X87689114Y-93248800D01*
X88473485Y-93574499D01*
X89322789Y-93575240D01*
X89398730Y-93543862D01*
X89553160Y-93698292D01*
X89553160Y-93980000D01*
X89591140Y-94170938D01*
X89591140Y-94480380D01*
X89635418Y-94715697D01*
X89774490Y-94931821D01*
X89986690Y-95076811D01*
X90238580Y-95127820D01*
X91137740Y-95127820D01*
X91373057Y-95083542D01*
X91438546Y-95041401D01*
X91490370Y-95076811D01*
X91742260Y-95127820D01*
X92641420Y-95127820D01*
X92876737Y-95083542D01*
X92912069Y-95060807D01*
X93816262Y-95965000D01*
X85076197Y-95965000D01*
X83154290Y-94043092D01*
X83166840Y-93980000D01*
X83166840Y-93698292D01*
X83277822Y-93587310D01*
X85319870Y-93587310D01*
X85555187Y-93543032D01*
X85771311Y-93403960D01*
X85916301Y-93191760D01*
X85967310Y-92939870D01*
X85967310Y-89940130D01*
X85956937Y-89885000D01*
X87265000Y-89885000D01*
X87265000Y-90055617D01*
G36*
X97425000Y-90055617D02*
X97251200Y-90229114D01*
X96925501Y-91013485D01*
X96924760Y-91862789D01*
X97249090Y-92647727D01*
X97849114Y-93248800D01*
X98633485Y-93574499D01*
X99482789Y-93575240D01*
X99558730Y-93543862D01*
X99713160Y-93698292D01*
X99713160Y-93980000D01*
X99751140Y-94170938D01*
X99751140Y-94480380D01*
X99795418Y-94715697D01*
X99934490Y-94931821D01*
X100146690Y-95076811D01*
X100398580Y-95127820D01*
X101297740Y-95127820D01*
X101533057Y-95083542D01*
X101598546Y-95041401D01*
X101650370Y-95076811D01*
X101902260Y-95127820D01*
X102801420Y-95127820D01*
X103036737Y-95083542D01*
X103252861Y-94944470D01*
X103375488Y-94765000D01*
X105654842Y-94765000D01*
X106104842Y-95215000D01*
X95286578Y-95215000D01*
X93658888Y-93587310D01*
X95479870Y-93587310D01*
X95715187Y-93543032D01*
X95931311Y-93403960D01*
X96076301Y-93191760D01*
X96127310Y-92939870D01*
X96127310Y-89940130D01*
X96116937Y-89885000D01*
X97425000Y-89885000D01*
X97425000Y-90055617D01*
X97425000Y-90055617D01*
G37*
X97425000Y-90055617D02*
X97251200Y-90229114D01*
X96925501Y-91013485D01*
X96924760Y-91862789D01*
X97249090Y-92647727D01*
X97849114Y-93248800D01*
X98633485Y-93574499D01*
X99482789Y-93575240D01*
X99558730Y-93543862D01*
X99713160Y-93698292D01*
X99713160Y-93980000D01*
X99751140Y-94170938D01*
X99751140Y-94480380D01*
X99795418Y-94715697D01*
X99934490Y-94931821D01*
X100146690Y-95076811D01*
X100398580Y-95127820D01*
X101297740Y-95127820D01*
X101533057Y-95083542D01*
X101598546Y-95041401D01*
X101650370Y-95076811D01*
X101902260Y-95127820D01*
X102801420Y-95127820D01*
X103036737Y-95083542D01*
X103252861Y-94944470D01*
X103375488Y-94765000D01*
X105654842Y-94765000D01*
X106104842Y-95215000D01*
X95286578Y-95215000D01*
X93658888Y-93587310D01*
X95479870Y-93587310D01*
X95715187Y-93543032D01*
X95931311Y-93403960D01*
X96076301Y-93191760D01*
X96127310Y-92939870D01*
X96127310Y-89940130D01*
X96116937Y-89885000D01*
X97425000Y-89885000D01*
X97425000Y-90055617D01*
M02*
