G04 #@! TF.FileFunction,Legend,Top*
%FSLAX46Y46*%
G04 Gerber Fmt 4.6, Leading zero omitted, Abs format (unit mm)*
G04 Created by KiCad (PCBNEW (2015-09-30 BZR 6232)-product) date Fri 09 Oct 2015 07:53:00 AM EEST*
%MOMM*%
G01*
G04 APERTURE LIST*
%ADD10C,0.100000*%
%ADD11C,0.127000*%
%ADD12C,0.304800*%
%ADD13C,0.150000*%
%ADD14O,2.599640X1.924000*%
%ADD15O,2.597100X1.924000*%
%ADD16R,3.399740X3.399740*%
%ADD17C,3.399740*%
%ADD18O,2.899360X1.901140*%
%ADD19R,1.400760X1.299160*%
%ADD20R,2.599640X1.924000*%
%ADD21R,1.299160X1.400760*%
%ADD22R,0.700000X2.000000*%
%ADD23R,6.570000X2.800000*%
%ADD24R,2.398980X0.999440*%
%ADD25R,1.700000X1.700000*%
%ADD26C,1.700000*%
%ADD27R,1.924000X2.599640*%
%ADD28O,1.924000X2.599640*%
G04 APERTURE END LIST*
D10*
D11*
X126843600Y-114308800D02*
X127656400Y-114308800D01*
X127631000Y-113191200D02*
X126843600Y-113191200D01*
X127656400Y-112937200D02*
X127656400Y-114562800D01*
X127656400Y-114562800D02*
X126843600Y-114562800D01*
X126843600Y-114562800D02*
X126843600Y-112937200D01*
X126843600Y-112937200D02*
X127656400Y-112937200D01*
X88943600Y-113459840D02*
X89756400Y-113459840D01*
X89731000Y-112342240D02*
X88943600Y-112342240D01*
X89756400Y-112088240D02*
X89756400Y-113713840D01*
X89756400Y-113713840D02*
X88943600Y-113713840D01*
X88943600Y-113713840D02*
X88943600Y-112088240D01*
X88943600Y-112088240D02*
X89756400Y-112088240D01*
D12*
X134620000Y-104140000D02*
X132080000Y-104140000D01*
X132080000Y-101600000D02*
X134620000Y-101600000D01*
X134620000Y-101600000D02*
X134620000Y-116840000D01*
X134620000Y-116840000D02*
X132080000Y-116840000D01*
X132080000Y-116840000D02*
X132080000Y-101600000D01*
X139700000Y-104140000D02*
X137160000Y-104140000D01*
X137160000Y-101600000D02*
X139700000Y-101600000D01*
X139700000Y-101600000D02*
X139700000Y-116840000D01*
X139700000Y-116840000D02*
X137160000Y-116840000D01*
X137160000Y-116840000D02*
X137160000Y-101600000D01*
D11*
X111201200Y-93573600D02*
X111201200Y-94386400D01*
X112318800Y-94361000D02*
X112318800Y-93573600D01*
X112572800Y-94386400D02*
X110947200Y-94386400D01*
X110947200Y-94386400D02*
X110947200Y-93573600D01*
X110947200Y-93573600D02*
X112572800Y-93573600D01*
X112572800Y-93573600D02*
X112572800Y-94386400D01*
X151841200Y-93573600D02*
X151841200Y-94386400D01*
X152958800Y-94361000D02*
X152958800Y-93573600D01*
X153212800Y-94386400D02*
X151587200Y-94386400D01*
X151587200Y-94386400D02*
X151587200Y-93573600D01*
X151587200Y-93573600D02*
X153212800Y-93573600D01*
X153212800Y-93573600D02*
X153212800Y-94386400D01*
X141681200Y-93573600D02*
X141681200Y-94386400D01*
X142798800Y-94361000D02*
X142798800Y-93573600D01*
X143052800Y-94386400D02*
X141427200Y-94386400D01*
X141427200Y-94386400D02*
X141427200Y-93573600D01*
X141427200Y-93573600D02*
X143052800Y-93573600D01*
X143052800Y-93573600D02*
X143052800Y-94386400D01*
X131521200Y-93573600D02*
X131521200Y-94386400D01*
X132638800Y-94361000D02*
X132638800Y-93573600D01*
X132892800Y-94386400D02*
X131267200Y-94386400D01*
X131267200Y-94386400D02*
X131267200Y-93573600D01*
X131267200Y-93573600D02*
X132892800Y-93573600D01*
X132892800Y-93573600D02*
X132892800Y-94386400D01*
X121361200Y-93573600D02*
X121361200Y-94386400D01*
X122478800Y-94361000D02*
X122478800Y-93573600D01*
X122732800Y-94386400D02*
X121107200Y-94386400D01*
X121107200Y-94386400D02*
X121107200Y-93573600D01*
X121107200Y-93573600D02*
X122732800Y-93573600D01*
X122732800Y-93573600D02*
X122732800Y-94386400D01*
X101041200Y-93573600D02*
X101041200Y-94386400D01*
X102158800Y-94361000D02*
X102158800Y-93573600D01*
X102412800Y-94386400D02*
X100787200Y-94386400D01*
X100787200Y-94386400D02*
X100787200Y-93573600D01*
X100787200Y-93573600D02*
X102412800Y-93573600D01*
X102412800Y-93573600D02*
X102412800Y-94386400D01*
X90881200Y-93573600D02*
X90881200Y-94386400D01*
X91998800Y-94361000D02*
X91998800Y-93573600D01*
X92252800Y-94386400D02*
X90627200Y-94386400D01*
X90627200Y-94386400D02*
X90627200Y-93573600D01*
X90627200Y-93573600D02*
X92252800Y-93573600D01*
X92252800Y-93573600D02*
X92252800Y-94386400D01*
X80721200Y-93573600D02*
X80721200Y-94386400D01*
X81838800Y-94361000D02*
X81838800Y-93573600D01*
X82092800Y-94386400D02*
X80467200Y-94386400D01*
X80467200Y-94386400D02*
X80467200Y-93573600D01*
X80467200Y-93573600D02*
X82092800Y-93573600D01*
X82092800Y-93573600D02*
X82092800Y-94386400D01*
X81838800Y-129372996D02*
X81838800Y-128560196D01*
X80721200Y-128585596D02*
X80721200Y-129372996D01*
X80467200Y-128560196D02*
X82092800Y-128560196D01*
X82092800Y-128560196D02*
X82092800Y-129372996D01*
X82092800Y-129372996D02*
X80467200Y-129372996D01*
X80467200Y-129372996D02*
X80467200Y-128560196D01*
X91998800Y-129446400D02*
X91998800Y-128633600D01*
X90881200Y-128659000D02*
X90881200Y-129446400D01*
X90627200Y-128633600D02*
X92252800Y-128633600D01*
X92252800Y-128633600D02*
X92252800Y-129446400D01*
X92252800Y-129446400D02*
X90627200Y-129446400D01*
X90627200Y-129446400D02*
X90627200Y-128633600D01*
X102158800Y-129446400D02*
X102158800Y-128633600D01*
X101041200Y-128659000D02*
X101041200Y-129446400D01*
X100787200Y-128633600D02*
X102412800Y-128633600D01*
X102412800Y-128633600D02*
X102412800Y-129446400D01*
X102412800Y-129446400D02*
X100787200Y-129446400D01*
X100787200Y-129446400D02*
X100787200Y-128633600D01*
X112318800Y-129446400D02*
X112318800Y-128633600D01*
X111201200Y-128659000D02*
X111201200Y-129446400D01*
X110947200Y-128633600D02*
X112572800Y-128633600D01*
X112572800Y-128633600D02*
X112572800Y-129446400D01*
X112572800Y-129446400D02*
X110947200Y-129446400D01*
X110947200Y-129446400D02*
X110947200Y-128633600D01*
X122478800Y-129446400D02*
X122478800Y-128633600D01*
X121361200Y-128659000D02*
X121361200Y-129446400D01*
X121107200Y-128633600D02*
X122732800Y-128633600D01*
X122732800Y-128633600D02*
X122732800Y-129446400D01*
X122732800Y-129446400D02*
X121107200Y-129446400D01*
X121107200Y-129446400D02*
X121107200Y-128633600D01*
X132638800Y-129446400D02*
X132638800Y-128633600D01*
X131521200Y-128659000D02*
X131521200Y-129446400D01*
X131267200Y-128633600D02*
X132892800Y-128633600D01*
X132892800Y-128633600D02*
X132892800Y-129446400D01*
X132892800Y-129446400D02*
X131267200Y-129446400D01*
X131267200Y-129446400D02*
X131267200Y-128633600D01*
X142798800Y-129446400D02*
X142798800Y-128633600D01*
X141681200Y-128659000D02*
X141681200Y-129446400D01*
X141427200Y-128633600D02*
X143052800Y-128633600D01*
X143052800Y-128633600D02*
X143052800Y-129446400D01*
X143052800Y-129446400D02*
X141427200Y-129446400D01*
X141427200Y-129446400D02*
X141427200Y-128633600D01*
X152958800Y-129446400D02*
X152958800Y-128633600D01*
X151841200Y-128659000D02*
X151841200Y-129446400D01*
X151587200Y-128633600D02*
X153212800Y-128633600D01*
X153212800Y-128633600D02*
X153212800Y-129446400D01*
X153212800Y-129446400D02*
X151587200Y-129446400D01*
X151587200Y-129446400D02*
X151587200Y-128633600D01*
X126058800Y-103156400D02*
X126058800Y-102343600D01*
X124941200Y-102369000D02*
X124941200Y-103156400D01*
X124687200Y-102343600D02*
X126312800Y-102343600D01*
X126312800Y-102343600D02*
X126312800Y-103156400D01*
X126312800Y-103156400D02*
X124687200Y-103156400D01*
X124687200Y-103156400D02*
X124687200Y-102343600D01*
X125691200Y-115843600D02*
X125691200Y-116656400D01*
X126808800Y-116631000D02*
X126808800Y-115843600D01*
X127062800Y-116656400D02*
X125437200Y-116656400D01*
X125437200Y-116656400D02*
X125437200Y-115843600D01*
X125437200Y-115843600D02*
X127062800Y-115843600D01*
X127062800Y-115843600D02*
X127062800Y-116656400D01*
X125093600Y-114308800D02*
X125906400Y-114308800D01*
X125881000Y-113191200D02*
X125093600Y-113191200D01*
X125906400Y-112937200D02*
X125906400Y-114562800D01*
X125906400Y-114562800D02*
X125093600Y-114562800D01*
X125093600Y-114562800D02*
X125093600Y-112937200D01*
X125093600Y-112937200D02*
X125906400Y-112937200D01*
D13*
X125280000Y-108960000D02*
G75*
G03X125280000Y-108960000I-400000J0D01*
G01*
X123880000Y-110510000D02*
G75*
G03X123880000Y-110510000I-500000J0D01*
G01*
X114380000Y-114010000D02*
X124380000Y-114010000D01*
X124380000Y-114010000D02*
X124380000Y-109510000D01*
X124380000Y-109510000D02*
X114380000Y-109510000D01*
X114380000Y-109510000D02*
X114380000Y-114010000D01*
D11*
X181161200Y-127127000D02*
X177198800Y-127127000D01*
X177198800Y-127127000D02*
X177198800Y-131953000D01*
X177198800Y-131953000D02*
X181161200Y-131953000D01*
X181161200Y-131953000D02*
X181161200Y-127127000D01*
X181161200Y-127635000D02*
X182253400Y-127635000D01*
X181161200Y-128905000D02*
X182253400Y-128905000D01*
X181161200Y-130175000D02*
X182253400Y-130175000D01*
X182253400Y-131445000D02*
X181161200Y-131445000D01*
X177198800Y-131445000D02*
X176106600Y-131445000D01*
X176106600Y-130175000D02*
X177198800Y-130175000D01*
X176106600Y-128905000D02*
X177198800Y-128905000D01*
X176106600Y-127635000D02*
X177198800Y-127635000D01*
X178407867Y-127863600D02*
G75*
G03X178407867Y-127863600I-472467J0D01*
G01*
X94256400Y-109842240D02*
X93443600Y-109842240D01*
X93469000Y-110959840D02*
X94256400Y-110959840D01*
X93443600Y-111213840D02*
X93443600Y-109588240D01*
X93443600Y-109588240D02*
X94256400Y-109588240D01*
X94256400Y-109588240D02*
X94256400Y-111213840D01*
X94256400Y-111213840D02*
X93443600Y-111213840D01*
X182231200Y-125843600D02*
X182231200Y-126656400D01*
X183348800Y-126631000D02*
X183348800Y-125843600D01*
X183602800Y-126656400D02*
X181977200Y-126656400D01*
X181977200Y-126656400D02*
X181977200Y-125843600D01*
X181977200Y-125843600D02*
X183602800Y-125843600D01*
X183602800Y-125843600D02*
X183602800Y-126656400D01*
X204406400Y-118191200D02*
X203593600Y-118191200D01*
X203619000Y-119308800D02*
X204406400Y-119308800D01*
X203593600Y-119562800D02*
X203593600Y-117937200D01*
X203593600Y-117937200D02*
X204406400Y-117937200D01*
X204406400Y-117937200D02*
X204406400Y-119562800D01*
X204406400Y-119562800D02*
X203593600Y-119562800D01*
D12*
X162230000Y-133330000D02*
X162230000Y-95230000D01*
X164770000Y-95230000D02*
X164770000Y-133330000D01*
X164770000Y-133330000D02*
X162230000Y-133330000D01*
X164770000Y-97770000D02*
X162230000Y-97770000D01*
X162230000Y-95230000D02*
X164770000Y-95230000D01*
X194520000Y-95200000D02*
X194520000Y-133300000D01*
X191980000Y-133300000D02*
X191980000Y-95200000D01*
X191980000Y-95200000D02*
X194520000Y-95200000D01*
X191980000Y-130760000D02*
X194520000Y-130760000D01*
X194520000Y-133300000D02*
X191980000Y-133300000D01*
D13*
X127857143Y-111666666D02*
X127904762Y-111714285D01*
X127952381Y-111857142D01*
X127952381Y-111952380D01*
X127904762Y-112095238D01*
X127809524Y-112190476D01*
X127714286Y-112238095D01*
X127523810Y-112285714D01*
X127380952Y-112285714D01*
X127190476Y-112238095D01*
X127095238Y-112190476D01*
X127000000Y-112095238D01*
X126952381Y-111952380D01*
X126952381Y-111857142D01*
X127000000Y-111714285D01*
X127047619Y-111666666D01*
X126952381Y-111333333D02*
X126952381Y-110714285D01*
X127333333Y-111047619D01*
X127333333Y-110904761D01*
X127380952Y-110809523D01*
X127428571Y-110761904D01*
X127523810Y-110714285D01*
X127761905Y-110714285D01*
X127857143Y-110761904D01*
X127904762Y-110809523D01*
X127952381Y-110904761D01*
X127952381Y-111190476D01*
X127904762Y-111285714D01*
X127857143Y-111333333D01*
X89607143Y-110366666D02*
X89654762Y-110414285D01*
X89702381Y-110557142D01*
X89702381Y-110652380D01*
X89654762Y-110795238D01*
X89559524Y-110890476D01*
X89464286Y-110938095D01*
X89273810Y-110985714D01*
X89130952Y-110985714D01*
X88940476Y-110938095D01*
X88845238Y-110890476D01*
X88750000Y-110795238D01*
X88702381Y-110652380D01*
X88702381Y-110557142D01*
X88750000Y-110414285D01*
X88797619Y-110366666D01*
X89035714Y-109509523D02*
X89702381Y-109509523D01*
X88654762Y-109747619D02*
X89369048Y-109985714D01*
X89369048Y-109366666D01*
X135961381Y-110434286D02*
X134961381Y-110434286D01*
X134961381Y-110053333D01*
X135009000Y-109958095D01*
X135056619Y-109910476D01*
X135151857Y-109862857D01*
X135294714Y-109862857D01*
X135389952Y-109910476D01*
X135437571Y-109958095D01*
X135485190Y-110053333D01*
X135485190Y-110434286D01*
X135961381Y-108910476D02*
X135961381Y-109481905D01*
X135961381Y-109196191D02*
X134961381Y-109196191D01*
X135104238Y-109291429D01*
X135199476Y-109386667D01*
X135247095Y-109481905D01*
X134961381Y-108577143D02*
X134961381Y-107910476D01*
X135961381Y-108339048D01*
X141041381Y-110434286D02*
X140041381Y-110434286D01*
X140041381Y-110053333D01*
X140089000Y-109958095D01*
X140136619Y-109910476D01*
X140231857Y-109862857D01*
X140374714Y-109862857D01*
X140469952Y-109910476D01*
X140517571Y-109958095D01*
X140565190Y-110053333D01*
X140565190Y-110434286D01*
X141041381Y-108910476D02*
X141041381Y-109481905D01*
X141041381Y-109196191D02*
X140041381Y-109196191D01*
X140184238Y-109291429D01*
X140279476Y-109386667D01*
X140327095Y-109481905D01*
X140469952Y-108339048D02*
X140422333Y-108434286D01*
X140374714Y-108481905D01*
X140279476Y-108529524D01*
X140231857Y-108529524D01*
X140136619Y-108481905D01*
X140089000Y-108434286D01*
X140041381Y-108339048D01*
X140041381Y-108148571D01*
X140089000Y-108053333D01*
X140136619Y-108005714D01*
X140231857Y-107958095D01*
X140279476Y-107958095D01*
X140374714Y-108005714D01*
X140422333Y-108053333D01*
X140469952Y-108148571D01*
X140469952Y-108339048D01*
X140517571Y-108434286D01*
X140565190Y-108481905D01*
X140660429Y-108529524D01*
X140850905Y-108529524D01*
X140946143Y-108481905D01*
X140993762Y-108434286D01*
X141041381Y-108339048D01*
X141041381Y-108148571D01*
X140993762Y-108053333D01*
X140946143Y-108005714D01*
X140850905Y-107958095D01*
X140660429Y-107958095D01*
X140565190Y-108005714D01*
X140517571Y-108053333D01*
X140469952Y-108148571D01*
X111593334Y-96041981D02*
X111260000Y-95565790D01*
X111021905Y-96041981D02*
X111021905Y-95041981D01*
X111402858Y-95041981D01*
X111498096Y-95089600D01*
X111545715Y-95137219D01*
X111593334Y-95232457D01*
X111593334Y-95375314D01*
X111545715Y-95470552D01*
X111498096Y-95518171D01*
X111402858Y-95565790D01*
X111021905Y-95565790D01*
X112545715Y-96041981D02*
X111974286Y-96041981D01*
X112260000Y-96041981D02*
X112260000Y-95041981D01*
X112164762Y-95184838D01*
X112069524Y-95280076D01*
X111974286Y-95327695D01*
X152233334Y-96041981D02*
X151900000Y-95565790D01*
X151661905Y-96041981D02*
X151661905Y-95041981D01*
X152042858Y-95041981D01*
X152138096Y-95089600D01*
X152185715Y-95137219D01*
X152233334Y-95232457D01*
X152233334Y-95375314D01*
X152185715Y-95470552D01*
X152138096Y-95518171D01*
X152042858Y-95565790D01*
X151661905Y-95565790D01*
X152614286Y-95137219D02*
X152661905Y-95089600D01*
X152757143Y-95041981D01*
X152995239Y-95041981D01*
X153090477Y-95089600D01*
X153138096Y-95137219D01*
X153185715Y-95232457D01*
X153185715Y-95327695D01*
X153138096Y-95470552D01*
X152566667Y-96041981D01*
X153185715Y-96041981D01*
X142073334Y-96041981D02*
X141740000Y-95565790D01*
X141501905Y-96041981D02*
X141501905Y-95041981D01*
X141882858Y-95041981D01*
X141978096Y-95089600D01*
X142025715Y-95137219D01*
X142073334Y-95232457D01*
X142073334Y-95375314D01*
X142025715Y-95470552D01*
X141978096Y-95518171D01*
X141882858Y-95565790D01*
X141501905Y-95565790D01*
X142406667Y-95041981D02*
X143025715Y-95041981D01*
X142692381Y-95422933D01*
X142835239Y-95422933D01*
X142930477Y-95470552D01*
X142978096Y-95518171D01*
X143025715Y-95613410D01*
X143025715Y-95851505D01*
X142978096Y-95946743D01*
X142930477Y-95994362D01*
X142835239Y-96041981D01*
X142549524Y-96041981D01*
X142454286Y-95994362D01*
X142406667Y-95946743D01*
X131913334Y-96041981D02*
X131580000Y-95565790D01*
X131341905Y-96041981D02*
X131341905Y-95041981D01*
X131722858Y-95041981D01*
X131818096Y-95089600D01*
X131865715Y-95137219D01*
X131913334Y-95232457D01*
X131913334Y-95375314D01*
X131865715Y-95470552D01*
X131818096Y-95518171D01*
X131722858Y-95565790D01*
X131341905Y-95565790D01*
X132770477Y-95375314D02*
X132770477Y-96041981D01*
X132532381Y-94994362D02*
X132294286Y-95708648D01*
X132913334Y-95708648D01*
X121753334Y-96041981D02*
X121420000Y-95565790D01*
X121181905Y-96041981D02*
X121181905Y-95041981D01*
X121562858Y-95041981D01*
X121658096Y-95089600D01*
X121705715Y-95137219D01*
X121753334Y-95232457D01*
X121753334Y-95375314D01*
X121705715Y-95470552D01*
X121658096Y-95518171D01*
X121562858Y-95565790D01*
X121181905Y-95565790D01*
X122658096Y-95041981D02*
X122181905Y-95041981D01*
X122134286Y-95518171D01*
X122181905Y-95470552D01*
X122277143Y-95422933D01*
X122515239Y-95422933D01*
X122610477Y-95470552D01*
X122658096Y-95518171D01*
X122705715Y-95613410D01*
X122705715Y-95851505D01*
X122658096Y-95946743D01*
X122610477Y-95994362D01*
X122515239Y-96041981D01*
X122277143Y-96041981D01*
X122181905Y-95994362D01*
X122134286Y-95946743D01*
X101433334Y-96041981D02*
X101100000Y-95565790D01*
X100861905Y-96041981D02*
X100861905Y-95041981D01*
X101242858Y-95041981D01*
X101338096Y-95089600D01*
X101385715Y-95137219D01*
X101433334Y-95232457D01*
X101433334Y-95375314D01*
X101385715Y-95470552D01*
X101338096Y-95518171D01*
X101242858Y-95565790D01*
X100861905Y-95565790D01*
X102290477Y-95041981D02*
X102100000Y-95041981D01*
X102004762Y-95089600D01*
X101957143Y-95137219D01*
X101861905Y-95280076D01*
X101814286Y-95470552D01*
X101814286Y-95851505D01*
X101861905Y-95946743D01*
X101909524Y-95994362D01*
X102004762Y-96041981D01*
X102195239Y-96041981D01*
X102290477Y-95994362D01*
X102338096Y-95946743D01*
X102385715Y-95851505D01*
X102385715Y-95613410D01*
X102338096Y-95518171D01*
X102290477Y-95470552D01*
X102195239Y-95422933D01*
X102004762Y-95422933D01*
X101909524Y-95470552D01*
X101861905Y-95518171D01*
X101814286Y-95613410D01*
X91273334Y-95952381D02*
X90940000Y-95476190D01*
X90701905Y-95952381D02*
X90701905Y-94952381D01*
X91082858Y-94952381D01*
X91178096Y-95000000D01*
X91225715Y-95047619D01*
X91273334Y-95142857D01*
X91273334Y-95285714D01*
X91225715Y-95380952D01*
X91178096Y-95428571D01*
X91082858Y-95476190D01*
X90701905Y-95476190D01*
X91606667Y-94952381D02*
X92273334Y-94952381D01*
X91844762Y-95952381D01*
X81083334Y-95952381D02*
X80750000Y-95476190D01*
X80511905Y-95952381D02*
X80511905Y-94952381D01*
X80892858Y-94952381D01*
X80988096Y-95000000D01*
X81035715Y-95047619D01*
X81083334Y-95142857D01*
X81083334Y-95285714D01*
X81035715Y-95380952D01*
X80988096Y-95428571D01*
X80892858Y-95476190D01*
X80511905Y-95476190D01*
X81654762Y-95380952D02*
X81559524Y-95333333D01*
X81511905Y-95285714D01*
X81464286Y-95190476D01*
X81464286Y-95142857D01*
X81511905Y-95047619D01*
X81559524Y-95000000D01*
X81654762Y-94952381D01*
X81845239Y-94952381D01*
X81940477Y-95000000D01*
X81988096Y-95047619D01*
X82035715Y-95142857D01*
X82035715Y-95190476D01*
X81988096Y-95285714D01*
X81940477Y-95333333D01*
X81845239Y-95380952D01*
X81654762Y-95380952D01*
X81559524Y-95428571D01*
X81511905Y-95476190D01*
X81464286Y-95571429D01*
X81464286Y-95761905D01*
X81511905Y-95857143D01*
X81559524Y-95904762D01*
X81654762Y-95952381D01*
X81845239Y-95952381D01*
X81940477Y-95904762D01*
X81988096Y-95857143D01*
X82035715Y-95761905D01*
X82035715Y-95571429D01*
X81988096Y-95476190D01*
X81940477Y-95428571D01*
X81845239Y-95380952D01*
X81113334Y-127809377D02*
X80780000Y-127333186D01*
X80541905Y-127809377D02*
X80541905Y-126809377D01*
X80922858Y-126809377D01*
X81018096Y-126856996D01*
X81065715Y-126904615D01*
X81113334Y-126999853D01*
X81113334Y-127142710D01*
X81065715Y-127237948D01*
X81018096Y-127285567D01*
X80922858Y-127333186D01*
X80541905Y-127333186D01*
X81589524Y-127809377D02*
X81780000Y-127809377D01*
X81875239Y-127761758D01*
X81922858Y-127714139D01*
X82018096Y-127571282D01*
X82065715Y-127380806D01*
X82065715Y-126999853D01*
X82018096Y-126904615D01*
X81970477Y-126856996D01*
X81875239Y-126809377D01*
X81684762Y-126809377D01*
X81589524Y-126856996D01*
X81541905Y-126904615D01*
X81494286Y-126999853D01*
X81494286Y-127237948D01*
X81541905Y-127333186D01*
X81589524Y-127380806D01*
X81684762Y-127428425D01*
X81875239Y-127428425D01*
X81970477Y-127380806D01*
X82018096Y-127333186D01*
X82065715Y-127237948D01*
X90797143Y-127882781D02*
X90463809Y-127406590D01*
X90225714Y-127882781D02*
X90225714Y-126882781D01*
X90606667Y-126882781D01*
X90701905Y-126930400D01*
X90749524Y-126978019D01*
X90797143Y-127073257D01*
X90797143Y-127216114D01*
X90749524Y-127311352D01*
X90701905Y-127358971D01*
X90606667Y-127406590D01*
X90225714Y-127406590D01*
X91749524Y-127882781D02*
X91178095Y-127882781D01*
X91463809Y-127882781D02*
X91463809Y-126882781D01*
X91368571Y-127025638D01*
X91273333Y-127120876D01*
X91178095Y-127168495D01*
X92368571Y-126882781D02*
X92463810Y-126882781D01*
X92559048Y-126930400D01*
X92606667Y-126978019D01*
X92654286Y-127073257D01*
X92701905Y-127263733D01*
X92701905Y-127501829D01*
X92654286Y-127692305D01*
X92606667Y-127787543D01*
X92559048Y-127835162D01*
X92463810Y-127882781D01*
X92368571Y-127882781D01*
X92273333Y-127835162D01*
X92225714Y-127787543D01*
X92178095Y-127692305D01*
X92130476Y-127501829D01*
X92130476Y-127263733D01*
X92178095Y-127073257D01*
X92225714Y-126978019D01*
X92273333Y-126930400D01*
X92368571Y-126882781D01*
X100957143Y-127882781D02*
X100623809Y-127406590D01*
X100385714Y-127882781D02*
X100385714Y-126882781D01*
X100766667Y-126882781D01*
X100861905Y-126930400D01*
X100909524Y-126978019D01*
X100957143Y-127073257D01*
X100957143Y-127216114D01*
X100909524Y-127311352D01*
X100861905Y-127358971D01*
X100766667Y-127406590D01*
X100385714Y-127406590D01*
X101909524Y-127882781D02*
X101338095Y-127882781D01*
X101623809Y-127882781D02*
X101623809Y-126882781D01*
X101528571Y-127025638D01*
X101433333Y-127120876D01*
X101338095Y-127168495D01*
X102861905Y-127882781D02*
X102290476Y-127882781D01*
X102576190Y-127882781D02*
X102576190Y-126882781D01*
X102480952Y-127025638D01*
X102385714Y-127120876D01*
X102290476Y-127168495D01*
X111117143Y-127882781D02*
X110783809Y-127406590D01*
X110545714Y-127882781D02*
X110545714Y-126882781D01*
X110926667Y-126882781D01*
X111021905Y-126930400D01*
X111069524Y-126978019D01*
X111117143Y-127073257D01*
X111117143Y-127216114D01*
X111069524Y-127311352D01*
X111021905Y-127358971D01*
X110926667Y-127406590D01*
X110545714Y-127406590D01*
X112069524Y-127882781D02*
X111498095Y-127882781D01*
X111783809Y-127882781D02*
X111783809Y-126882781D01*
X111688571Y-127025638D01*
X111593333Y-127120876D01*
X111498095Y-127168495D01*
X112450476Y-126978019D02*
X112498095Y-126930400D01*
X112593333Y-126882781D01*
X112831429Y-126882781D01*
X112926667Y-126930400D01*
X112974286Y-126978019D01*
X113021905Y-127073257D01*
X113021905Y-127168495D01*
X112974286Y-127311352D01*
X112402857Y-127882781D01*
X113021905Y-127882781D01*
X121277143Y-127882781D02*
X120943809Y-127406590D01*
X120705714Y-127882781D02*
X120705714Y-126882781D01*
X121086667Y-126882781D01*
X121181905Y-126930400D01*
X121229524Y-126978019D01*
X121277143Y-127073257D01*
X121277143Y-127216114D01*
X121229524Y-127311352D01*
X121181905Y-127358971D01*
X121086667Y-127406590D01*
X120705714Y-127406590D01*
X122229524Y-127882781D02*
X121658095Y-127882781D01*
X121943809Y-127882781D02*
X121943809Y-126882781D01*
X121848571Y-127025638D01*
X121753333Y-127120876D01*
X121658095Y-127168495D01*
X122562857Y-126882781D02*
X123181905Y-126882781D01*
X122848571Y-127263733D01*
X122991429Y-127263733D01*
X123086667Y-127311352D01*
X123134286Y-127358971D01*
X123181905Y-127454210D01*
X123181905Y-127692305D01*
X123134286Y-127787543D01*
X123086667Y-127835162D01*
X122991429Y-127882781D01*
X122705714Y-127882781D01*
X122610476Y-127835162D01*
X122562857Y-127787543D01*
X131437143Y-127882781D02*
X131103809Y-127406590D01*
X130865714Y-127882781D02*
X130865714Y-126882781D01*
X131246667Y-126882781D01*
X131341905Y-126930400D01*
X131389524Y-126978019D01*
X131437143Y-127073257D01*
X131437143Y-127216114D01*
X131389524Y-127311352D01*
X131341905Y-127358971D01*
X131246667Y-127406590D01*
X130865714Y-127406590D01*
X132389524Y-127882781D02*
X131818095Y-127882781D01*
X132103809Y-127882781D02*
X132103809Y-126882781D01*
X132008571Y-127025638D01*
X131913333Y-127120876D01*
X131818095Y-127168495D01*
X133246667Y-127216114D02*
X133246667Y-127882781D01*
X133008571Y-126835162D02*
X132770476Y-127549448D01*
X133389524Y-127549448D01*
X141597143Y-127882781D02*
X141263809Y-127406590D01*
X141025714Y-127882781D02*
X141025714Y-126882781D01*
X141406667Y-126882781D01*
X141501905Y-126930400D01*
X141549524Y-126978019D01*
X141597143Y-127073257D01*
X141597143Y-127216114D01*
X141549524Y-127311352D01*
X141501905Y-127358971D01*
X141406667Y-127406590D01*
X141025714Y-127406590D01*
X142549524Y-127882781D02*
X141978095Y-127882781D01*
X142263809Y-127882781D02*
X142263809Y-126882781D01*
X142168571Y-127025638D01*
X142073333Y-127120876D01*
X141978095Y-127168495D01*
X143454286Y-126882781D02*
X142978095Y-126882781D01*
X142930476Y-127358971D01*
X142978095Y-127311352D01*
X143073333Y-127263733D01*
X143311429Y-127263733D01*
X143406667Y-127311352D01*
X143454286Y-127358971D01*
X143501905Y-127454210D01*
X143501905Y-127692305D01*
X143454286Y-127787543D01*
X143406667Y-127835162D01*
X143311429Y-127882781D01*
X143073333Y-127882781D01*
X142978095Y-127835162D01*
X142930476Y-127787543D01*
X151757143Y-127882781D02*
X151423809Y-127406590D01*
X151185714Y-127882781D02*
X151185714Y-126882781D01*
X151566667Y-126882781D01*
X151661905Y-126930400D01*
X151709524Y-126978019D01*
X151757143Y-127073257D01*
X151757143Y-127216114D01*
X151709524Y-127311352D01*
X151661905Y-127358971D01*
X151566667Y-127406590D01*
X151185714Y-127406590D01*
X152709524Y-127882781D02*
X152138095Y-127882781D01*
X152423809Y-127882781D02*
X152423809Y-126882781D01*
X152328571Y-127025638D01*
X152233333Y-127120876D01*
X152138095Y-127168495D01*
X153566667Y-126882781D02*
X153376190Y-126882781D01*
X153280952Y-126930400D01*
X153233333Y-126978019D01*
X153138095Y-127120876D01*
X153090476Y-127311352D01*
X153090476Y-127692305D01*
X153138095Y-127787543D01*
X153185714Y-127835162D01*
X153280952Y-127882781D01*
X153471429Y-127882781D01*
X153566667Y-127835162D01*
X153614286Y-127787543D01*
X153661905Y-127692305D01*
X153661905Y-127454210D01*
X153614286Y-127358971D01*
X153566667Y-127311352D01*
X153471429Y-127263733D01*
X153280952Y-127263733D01*
X153185714Y-127311352D01*
X153138095Y-127358971D01*
X153090476Y-127454210D01*
X124857143Y-101952381D02*
X124523809Y-101476190D01*
X124285714Y-101952381D02*
X124285714Y-100952381D01*
X124666667Y-100952381D01*
X124761905Y-101000000D01*
X124809524Y-101047619D01*
X124857143Y-101142857D01*
X124857143Y-101285714D01*
X124809524Y-101380952D01*
X124761905Y-101428571D01*
X124666667Y-101476190D01*
X124285714Y-101476190D01*
X125809524Y-101952381D02*
X125238095Y-101952381D01*
X125523809Y-101952381D02*
X125523809Y-100952381D01*
X125428571Y-101095238D01*
X125333333Y-101190476D01*
X125238095Y-101238095D01*
X126142857Y-100952381D02*
X126809524Y-100952381D01*
X126380952Y-101952381D01*
X125607143Y-118202381D02*
X125273809Y-117726190D01*
X125035714Y-118202381D02*
X125035714Y-117202381D01*
X125416667Y-117202381D01*
X125511905Y-117250000D01*
X125559524Y-117297619D01*
X125607143Y-117392857D01*
X125607143Y-117535714D01*
X125559524Y-117630952D01*
X125511905Y-117678571D01*
X125416667Y-117726190D01*
X125035714Y-117726190D01*
X126559524Y-118202381D02*
X125988095Y-118202381D01*
X126273809Y-118202381D02*
X126273809Y-117202381D01*
X126178571Y-117345238D01*
X126083333Y-117440476D01*
X125988095Y-117488095D01*
X127130952Y-117630952D02*
X127035714Y-117583333D01*
X126988095Y-117535714D01*
X126940476Y-117440476D01*
X126940476Y-117392857D01*
X126988095Y-117297619D01*
X127035714Y-117250000D01*
X127130952Y-117202381D01*
X127321429Y-117202381D01*
X127416667Y-117250000D01*
X127464286Y-117297619D01*
X127511905Y-117392857D01*
X127511905Y-117440476D01*
X127464286Y-117535714D01*
X127416667Y-117583333D01*
X127321429Y-117630952D01*
X127130952Y-117630952D01*
X127035714Y-117678571D01*
X126988095Y-117726190D01*
X126940476Y-117821429D01*
X126940476Y-118011905D01*
X126988095Y-118107143D01*
X127035714Y-118154762D01*
X127130952Y-118202381D01*
X127321429Y-118202381D01*
X127416667Y-118154762D01*
X127464286Y-118107143D01*
X127511905Y-118011905D01*
X127511905Y-117821429D01*
X127464286Y-117726190D01*
X127416667Y-117678571D01*
X127321429Y-117630952D01*
X125952381Y-111642857D02*
X125476190Y-111976191D01*
X125952381Y-112214286D02*
X124952381Y-112214286D01*
X124952381Y-111833333D01*
X125000000Y-111738095D01*
X125047619Y-111690476D01*
X125142857Y-111642857D01*
X125285714Y-111642857D01*
X125380952Y-111690476D01*
X125428571Y-111738095D01*
X125476190Y-111833333D01*
X125476190Y-112214286D01*
X125952381Y-110690476D02*
X125952381Y-111261905D01*
X125952381Y-110976191D02*
X124952381Y-110976191D01*
X125095238Y-111071429D01*
X125190476Y-111166667D01*
X125238095Y-111261905D01*
X125952381Y-110214286D02*
X125952381Y-110023810D01*
X125904762Y-109928571D01*
X125857143Y-109880952D01*
X125714286Y-109785714D01*
X125523810Y-109738095D01*
X125142857Y-109738095D01*
X125047619Y-109785714D01*
X125000000Y-109833333D01*
X124952381Y-109928571D01*
X124952381Y-110119048D01*
X125000000Y-110214286D01*
X125047619Y-110261905D01*
X125142857Y-110309524D01*
X125380952Y-110309524D01*
X125476190Y-110261905D01*
X125523810Y-110214286D01*
X125571429Y-110119048D01*
X125571429Y-109928571D01*
X125523810Y-109833333D01*
X125476190Y-109785714D01*
X125380952Y-109738095D01*
X112952381Y-113166667D02*
X112952381Y-112595238D01*
X113952381Y-112880953D02*
X112952381Y-112880953D01*
X113952381Y-111785714D02*
X113952381Y-112261905D01*
X112952381Y-112261905D01*
X113857143Y-110880952D02*
X113904762Y-110928571D01*
X113952381Y-111071428D01*
X113952381Y-111166666D01*
X113904762Y-111309524D01*
X113809524Y-111404762D01*
X113714286Y-111452381D01*
X113523810Y-111500000D01*
X113380952Y-111500000D01*
X113190476Y-111452381D01*
X113095238Y-111404762D01*
X113000000Y-111309524D01*
X112952381Y-111166666D01*
X112952381Y-111071428D01*
X113000000Y-110928571D01*
X113047619Y-110880952D01*
X113952381Y-109928571D02*
X113952381Y-110500000D01*
X113952381Y-110214286D02*
X112952381Y-110214286D01*
X113095238Y-110309524D01*
X113190476Y-110404762D01*
X113238095Y-110500000D01*
X178738095Y-132452381D02*
X178738095Y-133261905D01*
X178785714Y-133357143D01*
X178833333Y-133404762D01*
X178928571Y-133452381D01*
X179119048Y-133452381D01*
X179214286Y-133404762D01*
X179261905Y-133357143D01*
X179309524Y-133261905D01*
X179309524Y-132452381D01*
X180309524Y-133452381D02*
X179738095Y-133452381D01*
X180023809Y-133452381D02*
X180023809Y-132452381D01*
X179928571Y-132595238D01*
X179833333Y-132690476D01*
X179738095Y-132738095D01*
X94357143Y-107566666D02*
X94404762Y-107614285D01*
X94452381Y-107757142D01*
X94452381Y-107852380D01*
X94404762Y-107995238D01*
X94309524Y-108090476D01*
X94214286Y-108138095D01*
X94023810Y-108185714D01*
X93880952Y-108185714D01*
X93690476Y-108138095D01*
X93595238Y-108090476D01*
X93500000Y-107995238D01*
X93452381Y-107852380D01*
X93452381Y-107757142D01*
X93500000Y-107614285D01*
X93547619Y-107566666D01*
X93452381Y-106661904D02*
X93452381Y-107138095D01*
X93928571Y-107185714D01*
X93880952Y-107138095D01*
X93833333Y-107042857D01*
X93833333Y-106804761D01*
X93880952Y-106709523D01*
X93928571Y-106661904D01*
X94023810Y-106614285D01*
X94261905Y-106614285D01*
X94357143Y-106661904D01*
X94404762Y-106709523D01*
X94452381Y-106804761D01*
X94452381Y-107042857D01*
X94404762Y-107138095D01*
X94357143Y-107185714D01*
X182623334Y-125357143D02*
X182575715Y-125404762D01*
X182432858Y-125452381D01*
X182337620Y-125452381D01*
X182194762Y-125404762D01*
X182099524Y-125309524D01*
X182051905Y-125214286D01*
X182004286Y-125023810D01*
X182004286Y-124880952D01*
X182051905Y-124690476D01*
X182099524Y-124595238D01*
X182194762Y-124500000D01*
X182337620Y-124452381D01*
X182432858Y-124452381D01*
X182575715Y-124500000D01*
X182623334Y-124547619D01*
X183480477Y-124452381D02*
X183290000Y-124452381D01*
X183194762Y-124500000D01*
X183147143Y-124547619D01*
X183051905Y-124690476D01*
X183004286Y-124880952D01*
X183004286Y-125261905D01*
X183051905Y-125357143D01*
X183099524Y-125404762D01*
X183194762Y-125452381D01*
X183385239Y-125452381D01*
X183480477Y-125404762D01*
X183528096Y-125357143D01*
X183575715Y-125261905D01*
X183575715Y-125023810D01*
X183528096Y-124928571D01*
X183480477Y-124880952D01*
X183385239Y-124833333D01*
X183194762Y-124833333D01*
X183099524Y-124880952D01*
X183051905Y-124928571D01*
X183004286Y-125023810D01*
X204452381Y-116642857D02*
X203976190Y-116976191D01*
X204452381Y-117214286D02*
X203452381Y-117214286D01*
X203452381Y-116833333D01*
X203500000Y-116738095D01*
X203547619Y-116690476D01*
X203642857Y-116642857D01*
X203785714Y-116642857D01*
X203880952Y-116690476D01*
X203928571Y-116738095D01*
X203976190Y-116833333D01*
X203976190Y-117214286D01*
X203547619Y-116261905D02*
X203500000Y-116214286D01*
X203452381Y-116119048D01*
X203452381Y-115880952D01*
X203500000Y-115785714D01*
X203547619Y-115738095D01*
X203642857Y-115690476D01*
X203738095Y-115690476D01*
X203880952Y-115738095D01*
X204452381Y-116309524D01*
X204452381Y-115690476D01*
X203452381Y-115071429D02*
X203452381Y-114976190D01*
X203500000Y-114880952D01*
X203547619Y-114833333D01*
X203642857Y-114785714D01*
X203833333Y-114738095D01*
X204071429Y-114738095D01*
X204261905Y-114785714D01*
X204357143Y-114833333D01*
X204404762Y-114880952D01*
X204452381Y-114976190D01*
X204452381Y-115071429D01*
X204404762Y-115166667D01*
X204357143Y-115214286D01*
X204261905Y-115261905D01*
X204071429Y-115309524D01*
X203833333Y-115309524D01*
X203642857Y-115261905D01*
X203547619Y-115214286D01*
X203500000Y-115166667D01*
X203452381Y-115071429D01*
X166111381Y-115494286D02*
X165111381Y-115494286D01*
X165111381Y-115113333D01*
X165159000Y-115018095D01*
X165206619Y-114970476D01*
X165301857Y-114922857D01*
X165444714Y-114922857D01*
X165539952Y-114970476D01*
X165587571Y-115018095D01*
X165635190Y-115113333D01*
X165635190Y-115494286D01*
X165206619Y-114541905D02*
X165159000Y-114494286D01*
X165111381Y-114399048D01*
X165111381Y-114160952D01*
X165159000Y-114065714D01*
X165206619Y-114018095D01*
X165301857Y-113970476D01*
X165397095Y-113970476D01*
X165539952Y-114018095D01*
X166111381Y-114589524D01*
X166111381Y-113970476D01*
X165111381Y-113351429D02*
X165111381Y-113256190D01*
X165159000Y-113160952D01*
X165206619Y-113113333D01*
X165301857Y-113065714D01*
X165492333Y-113018095D01*
X165730429Y-113018095D01*
X165920905Y-113065714D01*
X166016143Y-113113333D01*
X166063762Y-113160952D01*
X166111381Y-113256190D01*
X166111381Y-113351429D01*
X166063762Y-113446667D01*
X166016143Y-113494286D01*
X165920905Y-113541905D01*
X165730429Y-113589524D01*
X165492333Y-113589524D01*
X165301857Y-113541905D01*
X165206619Y-113494286D01*
X165159000Y-113446667D01*
X165111381Y-113351429D01*
X191543381Y-115464286D02*
X190543381Y-115464286D01*
X190543381Y-115083333D01*
X190591000Y-114988095D01*
X190638619Y-114940476D01*
X190733857Y-114892857D01*
X190876714Y-114892857D01*
X190971952Y-114940476D01*
X191019571Y-114988095D01*
X191067190Y-115083333D01*
X191067190Y-115464286D01*
X190638619Y-114511905D02*
X190591000Y-114464286D01*
X190543381Y-114369048D01*
X190543381Y-114130952D01*
X190591000Y-114035714D01*
X190638619Y-113988095D01*
X190733857Y-113940476D01*
X190829095Y-113940476D01*
X190971952Y-113988095D01*
X191543381Y-114559524D01*
X191543381Y-113940476D01*
X191543381Y-112988095D02*
X191543381Y-113559524D01*
X191543381Y-113273810D02*
X190543381Y-113273810D01*
X190686238Y-113369048D01*
X190781476Y-113464286D01*
X190829095Y-113559524D01*
%LPC*%
D14*
X171560000Y-132080000D03*
X171560000Y-129540000D03*
X171560000Y-127000000D03*
X171560000Y-124460000D03*
X171560000Y-121920000D03*
X171560000Y-119380000D03*
X171560000Y-116840000D03*
X171560000Y-114300000D03*
X171560000Y-111760000D03*
X171560000Y-109220000D03*
X171560000Y-106680000D03*
X171560000Y-104140000D03*
X171560000Y-101600000D03*
X171560000Y-99060000D03*
X171560000Y-96520000D03*
X186800000Y-96520000D03*
X186800000Y-99060000D03*
X186800000Y-101600000D03*
X186800000Y-104140000D03*
D15*
X186800000Y-106680000D03*
X186800000Y-109220000D03*
X186800000Y-111760000D03*
X186800000Y-114300000D03*
X186800000Y-116840000D03*
X186800000Y-119380000D03*
X186800000Y-121920000D03*
X186800000Y-124460000D03*
X186800000Y-127000000D03*
X186800000Y-129540000D03*
X186800000Y-132080000D03*
D16*
X71120000Y-119380000D03*
D17*
X71120000Y-124460000D03*
D16*
X71120000Y-109220000D03*
D17*
X71120000Y-114300000D03*
D18*
X91600000Y-111651040D03*
X91600000Y-114191040D03*
X91600000Y-109111040D03*
D19*
X127250000Y-114501840D03*
X127250000Y-112998160D03*
X89350000Y-113652880D03*
X89350000Y-112149200D03*
D16*
X154940000Y-91440000D03*
D17*
X149860000Y-91440000D03*
D16*
X144780000Y-91440000D03*
D17*
X139700000Y-91440000D03*
D16*
X134620000Y-91440000D03*
D17*
X129540000Y-91440000D03*
D16*
X124460000Y-91440000D03*
D17*
X119380000Y-91440000D03*
D16*
X114300000Y-91440000D03*
D17*
X109220000Y-91440000D03*
D16*
X104140000Y-91440000D03*
D17*
X99060000Y-91440000D03*
D16*
X93980000Y-91440000D03*
D17*
X88900000Y-91440000D03*
D16*
X83820000Y-91440000D03*
D17*
X78740000Y-91440000D03*
D16*
X78740000Y-131506596D03*
D17*
X83820000Y-131506596D03*
D16*
X88900000Y-131506596D03*
D17*
X93980000Y-131506596D03*
D16*
X99060000Y-131580000D03*
D17*
X104140000Y-131580000D03*
D16*
X109220000Y-131580000D03*
D17*
X114300000Y-131580000D03*
D16*
X119380000Y-131580000D03*
D17*
X124460000Y-131580000D03*
D16*
X129540000Y-131580000D03*
D17*
X134620000Y-131580000D03*
D16*
X139700000Y-131580000D03*
D17*
X144780000Y-131580000D03*
D16*
X149860000Y-131580000D03*
D17*
X154940000Y-131580000D03*
D20*
X133350000Y-102870000D03*
D14*
X133350000Y-105410000D03*
X133350000Y-107950000D03*
X133350000Y-110490000D03*
X133350000Y-113030000D03*
X133350000Y-115570000D03*
D20*
X138430000Y-102870000D03*
D14*
X138430000Y-105410000D03*
X138430000Y-107950000D03*
X138430000Y-110490000D03*
X138430000Y-113030000D03*
X138430000Y-115570000D03*
D16*
X71120000Y-99060000D03*
D17*
X71120000Y-104140000D03*
D21*
X111008160Y-93980000D03*
X112511840Y-93980000D03*
X151648160Y-93980000D03*
X153151840Y-93980000D03*
X141488160Y-93980000D03*
X142991840Y-93980000D03*
X131328160Y-93980000D03*
X132831840Y-93980000D03*
X121168160Y-93980000D03*
X122671840Y-93980000D03*
X100848160Y-93980000D03*
X102351840Y-93980000D03*
X90688160Y-93980000D03*
X92191840Y-93980000D03*
X80528160Y-93980000D03*
X82031840Y-93980000D03*
X82031840Y-128966596D03*
X80528160Y-128966596D03*
X92191840Y-129040000D03*
X90688160Y-129040000D03*
X102351840Y-129040000D03*
X100848160Y-129040000D03*
X112511840Y-129040000D03*
X111008160Y-129040000D03*
X122671840Y-129040000D03*
X121168160Y-129040000D03*
X132831840Y-129040000D03*
X131328160Y-129040000D03*
X142991840Y-129040000D03*
X141488160Y-129040000D03*
X153151840Y-129040000D03*
X151648160Y-129040000D03*
X126251840Y-102750000D03*
X124748160Y-102750000D03*
X125498160Y-116250000D03*
X127001840Y-116250000D03*
D19*
X125500000Y-114501840D03*
X125500000Y-112998160D03*
D22*
X115155000Y-114560000D03*
X115805000Y-114560000D03*
X116455000Y-114560000D03*
X117105000Y-114560000D03*
X117755000Y-114560000D03*
X118405000Y-114560000D03*
X119055000Y-114560000D03*
X119705000Y-114560000D03*
X120355000Y-114560000D03*
X121005000Y-114560000D03*
X121655000Y-114560000D03*
X122305000Y-114560000D03*
X122955000Y-114560000D03*
X123605000Y-114560000D03*
X123605000Y-108960000D03*
X122955000Y-108960000D03*
X122305000Y-108960000D03*
X121655000Y-108960000D03*
X121005000Y-108960000D03*
X120355000Y-108960000D03*
X119705000Y-108960000D03*
X119055000Y-108960000D03*
X118405000Y-108960000D03*
X117755000Y-108960000D03*
X117105000Y-108960000D03*
X116455000Y-108960000D03*
X115805000Y-108960000D03*
X115155000Y-108960000D03*
D23*
X119380000Y-111760000D03*
D24*
X176386000Y-127635000D03*
X176386000Y-128905000D03*
X176386000Y-130175000D03*
X176386000Y-131445000D03*
X181974000Y-131445000D03*
X181974000Y-130175000D03*
X181974000Y-128905000D03*
X181974000Y-127635000D03*
D19*
X93850000Y-109649200D03*
X93850000Y-111152880D03*
D21*
X182038160Y-126250000D03*
X183541840Y-126250000D03*
D25*
X83820000Y-114300000D03*
D26*
X83820000Y-110500000D03*
X99060000Y-111760000D03*
D25*
X99060000Y-109260000D03*
D27*
X203270000Y-122000000D03*
D28*
X200730000Y-122000000D03*
D19*
X204000000Y-117998160D03*
X204000000Y-119501840D03*
D16*
X201000000Y-117080000D03*
D17*
X201000000Y-112000000D03*
X201000000Y-106920000D03*
D20*
X163500000Y-96500000D03*
D14*
X163500000Y-99040000D03*
X163500000Y-101580000D03*
X163500000Y-104120000D03*
X163500000Y-106660000D03*
X163500000Y-109200000D03*
X163500000Y-111740000D03*
X163500000Y-114280000D03*
X163500000Y-116820000D03*
X163500000Y-119360000D03*
X163500000Y-121900000D03*
X163500000Y-124440000D03*
X163500000Y-126980000D03*
X163500000Y-129520000D03*
X163500000Y-132060000D03*
D20*
X193250000Y-132030000D03*
D14*
X193250000Y-129490000D03*
X193250000Y-126950000D03*
X193250000Y-124410000D03*
X193250000Y-121870000D03*
X193250000Y-119330000D03*
X193250000Y-116790000D03*
X193250000Y-114250000D03*
X193250000Y-111710000D03*
X193250000Y-109170000D03*
X193250000Y-106630000D03*
X193250000Y-104090000D03*
X193250000Y-101550000D03*
X193250000Y-99010000D03*
X193250000Y-96470000D03*
M02*
